/* XPM */
static char *_1301dbc935e42cdfded239ac1ba9e74[] = {
/* columns rows colors chars-per-pixel */
"35 42 2 1 ",
"  c black",
". c None",
/* pixels */
"...................................",
"...................................",
"........                   ........",
"........                   ........",
"........                   ........",
"........                   ........",
"....                           ....",
"...                             ...",
"...                             ...",
".                                 .",
"                                   ",
"                                   ",
"                                   ",
"                                   ",
"                                   ",
"      .........     .........      ",
"      .........     .........      ",
"      .........     .........      ",
"      .........     .........      ",
"      .........     .........      ",
"      .........     .........      ",
"                                   ",
"                                   ",
"                                   ",
"                                   ",
"                                   ",
"                                   ",
"                                   ",
"                                   ",
"                                   ",
"                                   ",
"                                   ",
"                                   ",
"                                   ",
"...                             ...",
"....                           ....",
"....                           ....",
"...                             ...",
"....      .      .      .      ....",
"...       .      .      .       ...",
"....      .      .      .      ....",
"....     ...    ...    ...     ...."
};
