/* XPM */
static char *_de78aa9398d4ba884761c7a07523ac8[] = {
/* columns rows colors chars-per-pixel */
"200 50 3 1 ",
"  c black",
". c #C80021",
"X c None",
/* pixels */
"XXXXXXXXXXXXXXXXXXXXXXXXXXXXXXXXXXXXXXXXXXXXXXXXXXXXXXXXXXXXXXXXXXXXXXXXXXXXXXXXXXXXXXXXXXXXXXXXXXXXXXXXXXXXXXXXXXXXXXXXXXXXXXXXXXXXXXXXXXXXXXXXXXXXXXXXXXXXXXXXXXXXXXXXXXXXXXXXXXXXXXXXXXXXXXXXXXXXXXXX",
"XXXXXXXXXXXXXXXXXXXXXXXXXXXXXXXXXXXXXXXXXXXXXXXXXXXXXXXXXXXXXXXXXXXXXXXXXXXXXXXXXXXXXXXXXXXXXXXXXXXXXXXXXXXXXXXXXXXXXXXXXXXXXXXXXXXXXXXXXXXXXXXXXXXXXXXXXXXXXXXXXXXXXXXXXXXXXXXXXXXXXXXXXXXXXXXXXXXXXXXX",
"XXXXXXXXXXXXXXXXXXXXXXXXXXXXXXXXXXXXXXXXXXXXXXXXXXXXXXXXXXXXXXXXXXXXXXXXXXXXXXXXXXXXXXXXXXXXXXXXXXXXXXXXXXXXXXXXXXXXXXXXXXXXXXXXXXXXXXXXXXXXXXXXXXXXXXXXXXXXXXXXXXXXXXXXXXXXXXXXXXXXXXXXXXXXXXXXXXXXXXXX",
"XXXXXXXXXXXXXXXXXXXXXXXXXXXXXXXXXXXXXXXXXXXXXXXXXXXXXXXXXXXXXXXXXXXXXXXXXXXXXXXXXXXXXXXXXXXXXXXXXXXXXXXXXXXXXXXXXXXXXXXXXXXXXXXXXXXXXXXXXXXXXXXXXXXXXXXXXXXXXXXXXXXXXXXXXXXXXXXXXXXXXXXXXXXXXXXXXXXXXXXX",
"XXXXXXXXXXXXXXXXXXXXXXXXXXXXXXXXXXXXXXXXXXXXXXXXXXXXXXXXXXXXXXXXXXXXXXXXXXXXXXXXXXXXXXXXXXXXXXXXXXXXXXXXXXXXXXXXXXXXXXXXXXXXXXXXXXXXXXXXXXXXXXXXXXXXXXXXXXXXXXXXXXXXXXXXXXXXXXXXXXXXXXXXXXXXXXXXXXXXXXXX",
"XXXXXXXXXXXXXXXXXXXXXXXXXXXXXXXXXXXXXXXXXXXXXXXXXXXXXXXXXXXXXXXXXXXXXXXXXXXXXXXXXXXXXXXXXXXXXXXXXXXXXXXXXXXXXXXXXXXXXXXXXXXXXXXXXXXXXXXXXXXXXXXXXXXXXXXXXXXXXXXXXXXXXXXXXXXXXXXXXXXXXXXXXXXXXXXXXXXXXXXX",
"XXXXXXXXXXXXXXXXXXXXXXXXXXXX      XXXXXXXXXXXXXXXXXXXXXXXXXXXXXXXXXXXXXXXXXXXXXXXXXXXXXXXXXXXXXXXXXXXXXXXXXXXXXXXXXXXXXXXXXXXX      XXXXXXXXXXXXXXXXXXXXXXXXXXXXXX             XXXXXXXXXXXXXXXXXXXXXXXXX",
"XXXXXXXXXXXXXXXXXXXXXXXXXXXX      XXXXXXXXXXXXXXXXXXXXXXXXXXXXXXXXXXXXXXXXXXXXXXXXXXXXXXXXXXXXXXXXXXXXXXXXXXXXXXXXXXXXXXXXXXXX      XXXXXXXXXXXXXXXXXXXXXXXXXXXXXX             XXXXXXXXXXXXXXXXXXXXXXXXX",
"XXXXXXXXXXXXXXXXXXXXXXXXXXXX   ......XXXXXXXXXXXXXXXXXXXXXXXXXXXXXXXXXXXXXXXXXXXXXXXXXXXXXXXXXXXXXXXXXXXXXXXXXXXXXXXXXXXXXXXXX   ......XXXXXXXXXXXXXXXXXXXXXXXXXXX   .............XXXXXXXXXXXXXXXXXXXXXX",
"XXXXXXXXXXXXXXXXXXXXXXXXXXXX   ......XXXXXXXXXXXXXXXXXXXXXXXXXXXXXXXXXXXXXXXXXXXXXXXXXXXXXXXXXXXXXXXXXXXXXXXXXXXXXXXXXXXXXXXXX   ......XXXXXXXXXXXXXXXXXXXXXXXX      .............XXXXXXXXXXXXXXXXXXXXXX",
"XXXXXXXXXXXXXXXXXXXXXXXXXXXX   ......XXXXXXXXXXXXXXXXXXXXXXXXXXXXXXXXXXXXXXXXXXXXXXXXXXXXXXXXXXXXXXXXXXXXXXXXXXXXXXXXXXXXXXXXX   ......XXXXXXXXXXXXXXXXXXXXXXXX      .............XXXXXXXXXXXXXXXXXXXXXX",
"XXXXXXXXXXXXXXXXXXXXXXXXXXXX   ......XXXXXXXXXXXXXXXXXXXXXXXXXXXXXXXXXXXXXXXXXXXXXXXXXXXXXXXXXXXXXXXXXXXXXXXXXXXXXXXXXXXXXXXXX   ......XXXXXXXXXXXXXXXXXXXXXXXX   ...................XXXXXXXXXXXXXXXXXXX",
"XXXXXXXXXXXXXXXXXXXXXXXXXXXX   ......XXXXXXXXXXXXXXXXXXXXXXXXXXXXXXXXXXXXXXXXXXXXXXXXXXXXXXXXXXXXXXXXXXXXXXXXXXXXXXXXXXXXXXXXX   ......XXXXXXXXXXXXXXXXXXXXXXXX   ...................XXXXXXXXXXXXXXXXXXX",
"XXXXXXXXXXXXXXXXXXXXXXXXXXXX   ......XXXXXXXXXXXXXXXXXXXXXXXXXXXXXXXXXXXXXXXXXXXXXXXXXXXXXXXXXXXXXXXXXXXXXXXXXXXXXXXXXXXXXXXXX   ......XXXXXXXXXXXXXXXXXXXXXXXX   ...................XXXXXXXXXXXXXXXXXXX",
"XXXXXXXXXXXXXXXXXXXXXXXXXXXX   ......XXXXXXXXXXXXXXXXXXXXXXXXXXXXXXXXXXXXXXXXXXXXXXXXXXXXXXXXXXXXXXXXXXXXXXXXXXXXXXXXXXXXXXXXX   ......XXXXXXXXXXXXXXXXXXXXXXXX   ......XXXX   ......XXXXXXXXXXXXXXXXXXX",
"XXXXXXXXXXXXXXXXXXXXXXXXXXXX   ......XXXXXXXXX             XXXXXXXXXXXX      XXXXXXX      XXXXXXXXXXX             XXXXXXXXXXXX   ......XXXXXXXXXXXXXXXXXXXXXXXXXXX......XXXX   ......XXXXXXXXXXXXXXXXXXX",
"XXXXXXXXXXXXXXXXXXXXXXXXXXXX   ......XXXXXXXXX             XXXXXXXXXXXX      XXXXXXX      XXXXXXXXXXX             XXXXXXXXXXXX   ......XXXXXXXXXXXXXXXXXXXXXXXXXXX......XXXX   ......XXXXXXXXXXXXXXXXXXX",
"XXXXXXXXXXXXXXXXXXXXXXXXXXXX   ......XXXXXXXXX   .............XXXXXXXXX   ......XXXX   ......XXXXXXXX   .............XXXXXXXXX   ......XXXXXXXXXXXXXXXXXXXXXXXXXXXXXXXXXXXXX   ......XXXXXXXXXXXXXXXXXXX",
"XXXXXXXXXXXXXXXXXXXXXXXXXXXX   ......XXXXXX      .............XXXXXXXXX   ......XXXX   ......XXXXX      .............XXXXXXXXX   ......XXXXXXXXXXXXXXXXXXXXXXXXXXXXXXXXXXXXX   ......XXXXXXXXXXXXXXXXXXX",
"XXXXXXXXXXXXXXXXXXXXXXXXXXXX   ......XXXXXX      .............XXXXXXXXX   ......XXXX   ......XXXXX      .............XXXXXXXXX   ......XXXXXXXXXXXXXXXXXXXXXXXXXXXXXXXXXXXXX   ......XXXXXXXXXXXXXXXXXXX",
"XXXXXXXXXXXXXXXXXXXXXXXXXXXX   ......XXXXXX   ...................XXXXXX   ......XXXX   ......XXXXX   ...................XXXXXX   ......XXXXXXXXXXXXXXXXXXXXXXXXXXXXXXXXXXXXX   ......XXXXXXXXXXXXXXXXXXX",
"XXXXXXXXXXXXXXXXXXXXXXXXXXXX   ......XXXXXX   ...................XXXXXX   ......XXXX   ......XXXXX   ...................XXXXXX   ......XXXXXXXXXXXXXXXXXXXXXXXXXXXXXXXXX       ......XXXXXXXXXXXXXXXXXXX",
"XXXXXXXXXXXXXXXXXXXXXXXXXXXX   ......XXXXXX   ...................XXXXXX   ......XXXX   ......XXXXX   ...................XXXXXX   ......XXXXXXXXXXXXXXXXXXXXXXXXXXXXXXXXX       ......XXXXXXXXXXXXXXXXXXX",
"XXXXXXXXXXXXXXXXXXXXXXXXXXXX   ......XXXXXX   ......XXXX   ......XXXXXX   ......XXXX   ......XXXXX   ......XXXX   ......XXXXXX   ......XXXXXXXXXXXXXXXXXXXXXXXXXXXXXXXXX   ..........XXXXXXXXXXXXXXXXXXX",
"XXXXXXXXXXXXXXXXXXXXXXXXXXXX   ......XXXXXX   ......       ......XXXXXX   ......XXXX   ......XXXXX   ......       ......XXXXXX   ......XXXXXXXXXXXXXXXXXXXXXXXXXXXXXX      ..........XXXXXXXXXXXXXXXXXXX",
"XXXXXXXXXXXXXXXXXXXXXXXXXXXX   ......XXXXXX   ......       ......XXXXXX   ......XXXX   ......XXXXX   ......       ......XXXXXX   ......XXXXXXXXXXXXXXXXXXXXXXXXXXXXXX      ..........XXXXXXXXXXXXXXXXXXX",
"XXXXXXXXXXXXXXXXXXXXXXXXXXXX   ......XXXXXX   ...................XXXXXX   ......XXXX   ......XXXXX   ...................XXXXXX   ......XXXXXXXXXXXXXXXXXXXXXXXXXXXXXX   ..........XXXXXXXXXXXXXXXXXXXXXX",
"XXXXXXXXXXXXXXXXXXXXXXXXXXXX   ......XXXXXX   ...................XXXXXX   ......XXXX   ......XXXXX   ...................XXXXXX   ......XXXXXXXXXXXXXXXXXXXXXXXXXXX      ..........XXXXXXXXXXXXXXXXXXXXXX",
"XXXXXXXXXXXXXXXXXXXXXXXXXXXX   ......XXXXXX   ...................XXXXXX   ......XXXX   ......XXXXX   ...................XXXXXX   ......XXXXXXXXXXXXXXXXXXXXXXXXXXX      ..........XXXXXXXXXXXXXXXXXXXXXX",
"XXXXXXXXXXXXXXXXXXXXXXXXXXXX   ......XXXXXX   ...................XXXXXX   ......XXXX   ......XXXXX   ...................XXXXXX   ......XXXXXXXXXXXXXXXXXXXXXXXXXXX   .............XXXXXXXXXXXXXXXXXXXXXX",
"XXXXXXXXXXXXXXXXXXXXXXXXXXXX   ......XXXXXX   ......XXXXXXXXXXXXXXXXXXX   ......XXXX   ......XXXXX   ......XXXXXXXXXXXXXXXXXXX   ......XXXXXXXXXXXXXXXXXXXXXXXXXXX   ..........XXXXXXXXXXXXXXXXXXXXXXXXX",
"XXXXXXXXXXXXXXXXXXXXXXXXXXXX   ......XXXXXX   ......XXXX      XXXXXXXXX   ......       ......XXXXX   ......XXXX      XXXXXXXXX   ......XXXXXXXXXXXXXXXXXXXXXXXX      ..........XXXXXXXXXXXXXXXXXXXXXXXXX",
"XXXXXXXXXXXXXXXXXXXXXXXXXXXX   ......XXXXXX   ......XXXX      XXXXXXXXX   ......       ......XXXXX   ......XXXX      XXXXXXXXX   ......XXXXXXXXXXXXXXXXXXXXXXXX      ..........XXXXXXXXXXXXXXXXXXXXXXXXX",
"XXXXXXXXXXXXXXXXXXXXXXXXXXXX   ......XXXXXX   ......XXXX   ......XXXXXX   ...................XXXXX   ......XXXX   ......XXXXXX   ......XXXXXXXXXXXXXXXXXXXXXXXX   .............XXXXXXXXXXXXXXXXXXXXXXXXX",
"XXXXXXXXXXXXXXXXXXXXXXXXXXXX   ......XXXXXX   ......       ......XXXXXXXXX...................XXXXX   ......       ......XXXXXX   ......XXXXXXXXXXXXXXXXXXXXXXXX   .............   XXXXXXXXXXXXXXXXXXXXXX",
"XXXXXXXXXXXXXXXXXXXXXXXXXXXX   ......XXXXXX   ......       ......XXXXXXXXX...................XXXXX   ......       ......XXXXXX   ......XXXXXXXXXXXXXXXXXXXXXXXX   .............   XXXXXXXXXXXXXXXXXXXXXX",
"XXXXXXXXXXXXXXXXXXXXXXXXXXXX   ......XXXXXX   ...................XXXXXXXXX   .............XXXXXXXX   ...................XXXXXX   ......XXXXXXXXXXXXXXXXXXXXXXXX   ...................XXXXXXXXXXXXXXXXXXX",
"XXXXXXXXXXXXXXXXXXXXXXXXXXXX   ......XXXXXXXXX...................XXXXXXXXXXXX.............XXXXXXXXXXX...................XXXXXX   ......XXXXXXXXXXXXXXXXXXXXXXXX   ...................XXXXXXXXXXXXXXXXXXX",
"XXXXXXXXXXXXXXXXXXXXXXXXXXXX   ......XXXXXXXXX...................XXXXXXXXXXXX.............XXXXXXXXXXX...................XXXXXX   ......XXXXXXXXXXXXXXXXXXXXXXXX   ...................XXXXXXXXXXXXXXXXXXX",
"XXXXXXXXXXXXXXXXXXXXXXXXXXXX   ......XXXXXXXXX   .............XXXXXXXXXXXXXXX   .......XXXXXXXXXXXXXX   .............XXXXXXXXX   ......XXXXXXXXXXXXXXXXXXXXXXXX   ...................XXXXXXXXXXXXXXXXXXX",
"XXXXXXXXXXXXXXXXXXXXXXXXXXXXXXX......XXXXXXXXXXXX.............XXXXXXXXXXXXXXXXXX.......XXXXXXXXXXXXXXXXX.............XXXXXXXXXXXX......XXXXXXXXXXXXXXXXXXXXXXXXXXX...................XXXXXXXXXXXXXXXXXXX",
"XXXXXXXXXXXXXXXXXXXXXXXXXXXXXXX......XXXXXXXXXXXX.............XXXXXXXXXXXXXXXXXX.......XXXXXXXXXXXXXXXXX.............XXXXXXXXXXXX......XXXXXXXXXXXXXXXXXXXXXXXXXXX...................XXXXXXXXXXXXXXXXXXX",
"XXXXXXXXXXXXXXXXXXXXXXXXXXXXXXXXXXXXXXXXXXXXXXXXXXXXXXXXXXXXXXXXXXXXXXXXXXXXXXXXXXXXXXXXXXXXXXXXXXXXXXXXXXXXXXXXXXXXXXXXXXXXXXXXXXXXXXXXXXXXXXXXXXXXXXXXXXXXXXXXXXXXXXXXXXXXXXXXXXXXXXXXXXXXXXXXXXXXXXXX",
"XXXXXXXXXXXXXXXXXXXXXXXXXXXXXXXXXXXXXXXXXXXXXXXXXXXXXXXXXXXXXXXXXXXXXXXXXXXXXXXXXXXXXXXXXXXXXXXXXXXXXXXXXXXXXXXXXXXXXXXXXXXXXXXXXXXXXXXXXXXXXXXXXXXXXXXXXXXXXXXXXXXXXXXXXXXXXXXXXXXXXXXXXXXXXXXXXXXXXXXX",
"XXXXXXXXXXXXXXXXXXXXXXXXXXXXXXXXXXXXXXXXXXXXXXXXXXXXXXXXXXXXXXXXXXXXXXXXXXXXXXXXXXXXXXXXXXXXXXXXXXXXXXXXXXXXXXXXXXXXXXXXXXXXXXXXXXXXXXXXXXXXXXXXXXXXXXXXXXXXXXXXXXXXXXXXXXXXXXXXXXXXXXXXXXXXXXXXXXXXXXXX",
"XXXXXXXXXXXXXXXXXXXXXXXXXXXXXXXXXXXXXXXXXXXXXXXXXXXXXXXXXXXXXXXXXXXXXXXXXXXXXXXXXXXXXXXXXXXXXXXXXXXXXXXXXXXXXXXXXXXXXXXXXXXXXXXXXXXXXXXXXXXXXXXXXXXXXXXXXXXXXXXXXXXXXXXXXXXXXXXXXXXXXXXXXXXXXXXXXXXXXXXX",
"XXXXXXXXXXXXXXXXXXXXXXXXXXXXXXXXXXXXXXXXXXXXXXXXXXXXXXXXXXXXXXXXXXXXXXXXXXXXXXXXXXXXXXXXXXXXXXXXXXXXXXXXXXXXXXXXXXXXXXXXXXXXXXXXXXXXXXXXXXXXXXXXXXXXXXXXXXXXXXXXXXXXXXXXXXXXXXXXXXXXXXXXXXXXXXXXXXXXXXXX",
"XXXXXXXXXXXXXXXXXXXXXXXXXXXXXXXXXXXXXXXXXXXXXXXXXXXXXXXXXXXXXXXXXXXXXXXXXXXXXXXXXXXXXXXXXXXXXXXXXXXXXXXXXXXXXXXXXXXXXXXXXXXXXXXXXXXXXXXXXXXXXXXXXXXXXXXXXXXXXXXXXXXXXXXXXXXXXXXXXXXXXXXXXXXXXXXXXXXXXXXX",
"XXXXXXXXXXXXXXXXXXXXXXXXXXXXXXXXXXXXXXXXXXXXXXXXXXXXXXXXXXXXXXXXXXXXXXXXXXXXXXXXXXXXXXXXXXXXXXXXXXXXXXXXXXXXXXXXXXXXXXXXXXXXXXXXXXXXXXXXXXXXXXXXXXXXXXXXXXXXXXXXXXXXXXXXXXXXXXXXXXXXXXXXXXXXXXXXXXXXXXXX",
"XXXXXXXXXXXXXXXXXXXXXXXXXXXXXXXXXXXXXXXXXXXXXXXXXXXXXXXXXXXXXXXXXXXXXXXXXXXXXXXXXXXXXXXXXXXXXXXXXXXXXXXXXXXXXXXXXXXXXXXXXXXXXXXXXXXXXXXXXXXXXXXXXXXXXXXXXXXXXXXXXXXXXXXXXXXXXXXXXXXXXXXXXXXXXXXXXXXXXXXX"
};
