/* XPM */
static char *_fff985d18db472f855135edcf797819[] = {
/* columns rows colors chars-per-pixel */
"200 50 3 1 ",
"  c black",
". c #C80021",
"X c None",
/* pixels */
"XXXXXXXXXXXXXXXXXXXXXXXXXXXXXXXXXXXXXXXXXXXXXXXXXXXXXXXXXXXXXXXXXXXXXXXXXXXXXXXXXXXXXXXXXXXXXXXXXXXXXXXXXXXXXXXXXXXXXXXXXXXXXXXXXXXXXXXXXXXXXXXXXXXXXXXXXXXXXXXXXXXXXXXXXXXXXXXXXXXXXXXXXXXXXXXXXXXXXXXX",
"XXXXXXXXXXXXXXXXXXXXXXXXXXXXXXXXXXXXXXXXXXXXXXXXXXXXXXXXXXXXXXXXXXXXXXXXXXXXXXXXXXXXXXXXXXXXXXXXXXXXXXXXXXXXXXXXXXXXXXXXXXXXXXXXXXXXXXXXXXXXXXXXXXXXXXXXXXXXXXXXXXXXXXXXXXXXXXXXXXXXXXXXXXXXXXXXXXXXXXXX",
"XXXXXXXXXXXXXXXXXXXXXXXXXXXXXXXXXXXXXXXXXXXXXXXXXXXXXXXXXXXXXXXXXXXXXXXXXXXXXXXXXXXXXXXXXXXXXXXXXXXXXXXXXXXXXXXXXXXXXXXXXXXXXXXXXXXXXXXXXXXXXXXXXXXXXXXXXXXXXXXXXXXXXXXXXXXXXXXXXXXXXXXXXXXXXXXXXXXXXXXX",
"XXXXXXXXXXXXXXXXXXXXXXXXXXXXXXXXXXXXXXXXXXXXXXXXXXXXXXXXXXXXXXXXXXXXXXXXXXXXXXXXXXXXXXXXXXXXXXXXXXXXXXXXXXXXXXXXXXXXXXXXXXXXXXXXXXXXXXXXXXXXXXXXXXXXXXXXXXXXXXXXXXXXXXXXXXXXXXXXXXXXXXXXXXXXXXXXXXXXXXXX",
"XXXXXXXXXXXXXXXXXXXXXXXXXXXXXXXXXXXXXXXXXXXXXXXXXXXXXXXXXXXXXXXXXXXXXXXXXXXXXXXXXXXXXXXXXXXXXXXXXXXXXXXXXXXXXXXXXXXXXXXXXXXXXXXXXXXXXXXXXXXXXXXXXXXXXXXXXXXXXXXXXXXXXXXXXXXXXXXXXXXXXXXXXXXXXXXXXXXXXXXX",
"XXXXXXXXXXXXXXXXXXXXXXXXXXXXXXXXXXXXXXXXXXXXXXXXXXXXXXXXXXXXXXXXXXXXXXXXXXXXXXXXXXXXXXXXXXXXXXXXXXXXXXXXXXXXXXXXXXXXXXXXXXXXXXXXXXXXXXXXXXXXXXXXXXXXXXXXXXXXXXXXXXXXXXXXXXXXXXXXXXXXXXXXXXXXXXXXXXXXXXXX",
"XXXXXXXXXXXXXXXXXXXXXXXXXXXX      XXXXXXXXXXXXXXXXXXXXXXXXXXXXXXXXXXXXXXXXXXXXXXXXXXXXXXXXXXXXXXXXXXXXXXXXXXXXXXXXXXXXXXXXXXXX      XXXXXXXXXXXXXXXXXXXXXXXXXXXXXXXXXXXX       XXXXXXXXXXXXXXXXXXXXXXXXX",
"XXXXXXXXXXXXXXXXXXXXXXXXXXXX      XXXXXXXXXXXXXXXXXXXXXXXXXXXXXXXXXXXXXXXXXXXXXXXXXXXXXXXXXXXXXXXXXXXXXXXXXXXXXXXXXXXXXXXXXXXX      XXXXXXXXXXXXXXXXXXXXXXXXXXXXXXXXXXXX       XXXXXXXXXXXXXXXXXXXXXXXXX",
"XXXXXXXXXXXXXXXXXXXXXXXXXXXX   ......XXXXXXXXXXXXXXXXXXXXXXXXXXXXXXXXXXXXXXXXXXXXXXXXXXXXXXXXXXXXXXXXXXXXXXXXXXXXXXXXXXXXXXXXX   ......XXXXXXXXXXXXXXXXXXXXXXXXXXXXXXXXX   .......XXXXXXXXXXXXXXXXXXXXXX",
"XXXXXXXXXXXXXXXXXXXXXXXXXXXX   ......XXXXXXXXXXXXXXXXXXXXXXXXXXXXXXXXXXXXXXXXXXXXXXXXXXXXXXXXXXXXXXXXXXXXXXXXXXXXXXXXXXXXXXXXX   ......XXXXXXXXXXXXXXXXXXXXXXXXXXXXXX      .......XXXXXXXXXXXXXXXXXXXXXX",
"XXXXXXXXXXXXXXXXXXXXXXXXXXXX   ......XXXXXXXXXXXXXXXXXXXXXXXXXXXXXXXXXXXXXXXXXXXXXXXXXXXXXXXXXXXXXXXXXXXXXXXXXXXXXXXXXXXXXXXXX   ......XXXXXXXXXXXXXXXXXXXXXXXXXXXXXX      .......XXXXXXXXXXXXXXXXXXXXXX",
"XXXXXXXXXXXXXXXXXXXXXXXXXXXX   ......XXXXXXXXXXXXXXXXXXXXXXXXXXXXXXXXXXXXXXXXXXXXXXXXXXXXXXXXXXXXXXXXXXXXXXXXXXXXXXXXXXXXXXXXX   ......XXXXXXXXXXXXXXXXXXXXXXXXXXXXXX   ..........XXXXXXXXXXXXXXXXXXXXXX",
"XXXXXXXXXXXXXXXXXXXXXXXXXXXX   ......XXXXXXXXXXXXXXXXXXXXXXXXXXXXXXXXXXXXXXXXXXXXXXXXXXXXXXXXXXXXXXXXXXXXXXXXXXXXXXXXXXXXXXXXX   ......XXXXXXXXXXXXXXXXXXXXXXXXXXX      ..........XXXXXXXXXXXXXXXXXXXXXX",
"XXXXXXXXXXXXXXXXXXXXXXXXXXXX   ......XXXXXXXXXXXXXXXXXXXXXXXXXXXXXXXXXXXXXXXXXXXXXXXXXXXXXXXXXXXXXXXXXXXXXXXXXXXXXXXXXXXXXXXXX   ......XXXXXXXXXXXXXXXXXXXXXXXXXXX      ..........XXXXXXXXXXXXXXXXXXXXXX",
"XXXXXXXXXXXXXXXXXXXXXXXXXXXX   ......XXXXXXXXXXXXXXXXXXXXXXXXXXXXXXXXXXXXXXXXXXXXXXXXXXXXXXXXXXXXXXXXXXXXXXXXXXXXXXXXXXXXXXXXX   ......XXXXXXXXXXXXXXXXXXXXXXXXXXX   .............XXXXXXXXXXXXXXXXXXXXXX",
"XXXXXXXXXXXXXXXXXXXXXXXXXXXX   ......XXXXXXXXX             XXXXXXXXXXXX      XXXXXXX      XXXXXXXXXXX             XXXXXXXXXXXX   ......XXXXXXXXXXXXXXXXXXXXXXXXXXX   .............XXXXXXXXXXXXXXXXXXXXXX",
"XXXXXXXXXXXXXXXXXXXXXXXXXXXX   ......XXXXXXXXX             XXXXXXXXXXXX      XXXXXXX      XXXXXXXXXXX             XXXXXXXXXXXX   ......XXXXXXXXXXXXXXXXXXXXXXXXXXX   .............XXXXXXXXXXXXXXXXXXXXXX",
"XXXXXXXXXXXXXXXXXXXXXXXXXXXX   ......XXXXXXXXX   .............XXXXXXXXX   ......XXXX   ......XXXXXXXX   .............XXXXXXXXX   ......XXXXXXXXXXXXXXXXXXXXXXXXXXX   .............XXXXXXXXXXXXXXXXXXXXXX",
"XXXXXXXXXXXXXXXXXXXXXXXXXXXX   ......XXXXXX      .............XXXXXXXXX   ......XXXX   ......XXXXX      .............XXXXXXXXX   ......XXXXXXXXXXXXXXXXXXXXXXXXXXXXXX.............XXXXXXXXXXXXXXXXXXXXXX",
"XXXXXXXXXXXXXXXXXXXXXXXXXXXX   ......XXXXXX      .............XXXXXXXXX   ......XXXX   ......XXXXX      .............XXXXXXXXX   ......XXXXXXXXXXXXXXXXXXXXXXXXXXXXXX.............XXXXXXXXXXXXXXXXXXXXXX",
"XXXXXXXXXXXXXXXXXXXXXXXXXXXX   ......XXXXXX   ...................XXXXXX   ......XXXX   ......XXXXX   ...................XXXXXX   ......XXXXXXXXXXXXXXXXXXXXXXXXXXXXXXXXX   .......XXXXXXXXXXXXXXXXXXXXXX",
"XXXXXXXXXXXXXXXXXXXXXXXXXXXX   ......XXXXXX   ...................XXXXXX   ......XXXX   ......XXXXX   ...................XXXXXX   ......XXXXXXXXXXXXXXXXXXXXXXXXXXXXXXXXX   .......XXXXXXXXXXXXXXXXXXXXXX",
"XXXXXXXXXXXXXXXXXXXXXXXXXXXX   ......XXXXXX   ...................XXXXXX   ......XXXX   ......XXXXX   ...................XXXXXX   ......XXXXXXXXXXXXXXXXXXXXXXXXXXXXXXXXX   .......XXXXXXXXXXXXXXXXXXXXXX",
"XXXXXXXXXXXXXXXXXXXXXXXXXXXX   ......XXXXXX   ......XXXX   ......XXXXXX   ......XXXX   ......XXXXX   ......XXXX   ......XXXXXX   ......XXXXXXXXXXXXXXXXXXXXXXXXXXXXXXXXX   .......XXXXXXXXXXXXXXXXXXXXXX",
"XXXXXXXXXXXXXXXXXXXXXXXXXXXX   ......XXXXXX   ......       ......XXXXXX   ......XXXX   ......XXXXX   ......       ......XXXXXX   ......XXXXXXXXXXXXXXXXXXXXXXXXXXXXXXXXX   .......XXXXXXXXXXXXXXXXXXXXXX",
"XXXXXXXXXXXXXXXXXXXXXXXXXXXX   ......XXXXXX   ......       ......XXXXXX   ......XXXX   ......XXXXX   ......       ......XXXXXX   ......XXXXXXXXXXXXXXXXXXXXXXXXXXXXXXXXX   .......XXXXXXXXXXXXXXXXXXXXXX",
"XXXXXXXXXXXXXXXXXXXXXXXXXXXX   ......XXXXXX   ...................XXXXXX   ......XXXX   ......XXXXX   ...................XXXXXX   ......XXXXXXXXXXXXXXXXXXXXXXXXXXXXXXXXX   .......XXXXXXXXXXXXXXXXXXXXXX",
"XXXXXXXXXXXXXXXXXXXXXXXXXXXX   ......XXXXXX   ...................XXXXXX   ......XXXX   ......XXXXX   ...................XXXXXX   ......XXXXXXXXXXXXXXXXXXXXXXXXXXXXXXXXX   .......XXXXXXXXXXXXXXXXXXXXXX",
"XXXXXXXXXXXXXXXXXXXXXXXXXXXX   ......XXXXXX   ...................XXXXXX   ......XXXX   ......XXXXX   ...................XXXXXX   ......XXXXXXXXXXXXXXXXXXXXXXXXXXXXXXXXX   .......XXXXXXXXXXXXXXXXXXXXXX",
"XXXXXXXXXXXXXXXXXXXXXXXXXXXX   ......XXXXXX   ...................XXXXXX   ......XXXX   ......XXXXX   ...................XXXXXX   ......XXXXXXXXXXXXXXXXXXXXXXXXXXXXXXXXX   .......XXXXXXXXXXXXXXXXXXXXXX",
"XXXXXXXXXXXXXXXXXXXXXXXXXXXX   ......XXXXXX   ......XXXXXXXXXXXXXXXXXXX   ......XXXX   ......XXXXX   ......XXXXXXXXXXXXXXXXXXX   ......XXXXXXXXXXXXXXXXXXXXXXXXXXXXXXXXX   .......XXXXXXXXXXXXXXXXXXXXXX",
"XXXXXXXXXXXXXXXXXXXXXXXXXXXX   ......XXXXXX   ......XXXX      XXXXXXXXX   ......       ......XXXXX   ......XXXX      XXXXXXXXX   ......XXXXXXXXXXXXXXXXXXXXXXXXXXXXXXXXX   .......XXXXXXXXXXXXXXXXXXXXXX",
"XXXXXXXXXXXXXXXXXXXXXXXXXXXX   ......XXXXXX   ......XXXX      XXXXXXXXX   ......       ......XXXXX   ......XXXX      XXXXXXXXX   ......XXXXXXXXXXXXXXXXXXXXXXXXXXXXXXXXX   .......XXXXXXXXXXXXXXXXXXXXXX",
"XXXXXXXXXXXXXXXXXXXXXXXXXXXX   ......XXXXXX   ......XXXX   ......XXXXXX   ...................XXXXX   ......XXXX   ......XXXXXX   ......XXXXXXXXXXXXXXXXXXXXXXXXXXXXXXXXX   .......XXXXXXXXXXXXXXXXXXXXXX",
"XXXXXXXXXXXXXXXXXXXXXXXXXXXX   ......XXXXXX   ......       ......XXXXXXXXX...................XXXXX   ......       ......XXXXXX   ......XXXXXXXXXXXXXXXXXXXXXXXXXXX         .......   XXXXXXXXXXXXXXXXXXX",
"XXXXXXXXXXXXXXXXXXXXXXXXXXXX   ......XXXXXX   ......       ......XXXXXXXXX...................XXXXX   ......       ......XXXXXX   ......XXXXXXXXXXXXXXXXXXXXXXXXXXX         .......   XXXXXXXXXXXXXXXXXXX",
"XXXXXXXXXXXXXXXXXXXXXXXXXXXX   ......XXXXXX   ...................XXXXXXXXX   .............XXXXXXXX   ...................XXXXXX   ......XXXXXXXXXXXXXXXXXXXXXXXXXXX   ...................XXXXXXXXXXXXXXXX",
"XXXXXXXXXXXXXXXXXXXXXXXXXXXX   ......XXXXXXXXX...................XXXXXXXXXXXX.............XXXXXXXXXXX...................XXXXXX   ......XXXXXXXXXXXXXXXXXXXXXXXXXXX   ...................XXXXXXXXXXXXXXXX",
"XXXXXXXXXXXXXXXXXXXXXXXXXXXX   ......XXXXXXXXX...................XXXXXXXXXXXX.............XXXXXXXXXXX...................XXXXXX   ......XXXXXXXXXXXXXXXXXXXXXXXXXXX   ...................XXXXXXXXXXXXXXXX",
"XXXXXXXXXXXXXXXXXXXXXXXXXXXX   ......XXXXXXXXX   .............XXXXXXXXXXXXXXX   .......XXXXXXXXXXXXXX   .............XXXXXXXXX   ......XXXXXXXXXXXXXXXXXXXXXXXXXXX   ...................XXXXXXXXXXXXXXXX",
"XXXXXXXXXXXXXXXXXXXXXXXXXXXXXXX......XXXXXXXXXXXX.............XXXXXXXXXXXXXXXXXX.......XXXXXXXXXXXXXXXXX.............XXXXXXXXXXXX......XXXXXXXXXXXXXXXXXXXXXXXXXXXXXX...................XXXXXXXXXXXXXXXX",
"XXXXXXXXXXXXXXXXXXXXXXXXXXXXXXX......XXXXXXXXXXXX.............XXXXXXXXXXXXXXXXXX.......XXXXXXXXXXXXXXXXX.............XXXXXXXXXXXX......XXXXXXXXXXXXXXXXXXXXXXXXXXXXXX...................XXXXXXXXXXXXXXXX",
"XXXXXXXXXXXXXXXXXXXXXXXXXXXXXXXXXXXXXXXXXXXXXXXXXXXXXXXXXXXXXXXXXXXXXXXXXXXXXXXXXXXXXXXXXXXXXXXXXXXXXXXXXXXXXXXXXXXXXXXXXXXXXXXXXXXXXXXXXXXXXXXXXXXXXXXXXXXXXXXXXXXXXXXXXXXXXXXXXXXXXXXXXXXXXXXXXXXXXXXX",
"XXXXXXXXXXXXXXXXXXXXXXXXXXXXXXXXXXXXXXXXXXXXXXXXXXXXXXXXXXXXXXXXXXXXXXXXXXXXXXXXXXXXXXXXXXXXXXXXXXXXXXXXXXXXXXXXXXXXXXXXXXXXXXXXXXXXXXXXXXXXXXXXXXXXXXXXXXXXXXXXXXXXXXXXXXXXXXXXXXXXXXXXXXXXXXXXXXXXXXXX",
"XXXXXXXXXXXXXXXXXXXXXXXXXXXXXXXXXXXXXXXXXXXXXXXXXXXXXXXXXXXXXXXXXXXXXXXXXXXXXXXXXXXXXXXXXXXXXXXXXXXXXXXXXXXXXXXXXXXXXXXXXXXXXXXXXXXXXXXXXXXXXXXXXXXXXXXXXXXXXXXXXXXXXXXXXXXXXXXXXXXXXXXXXXXXXXXXXXXXXXXX",
"XXXXXXXXXXXXXXXXXXXXXXXXXXXXXXXXXXXXXXXXXXXXXXXXXXXXXXXXXXXXXXXXXXXXXXXXXXXXXXXXXXXXXXXXXXXXXXXXXXXXXXXXXXXXXXXXXXXXXXXXXXXXXXXXXXXXXXXXXXXXXXXXXXXXXXXXXXXXXXXXXXXXXXXXXXXXXXXXXXXXXXXXXXXXXXXXXXXXXXXX",
"XXXXXXXXXXXXXXXXXXXXXXXXXXXXXXXXXXXXXXXXXXXXXXXXXXXXXXXXXXXXXXXXXXXXXXXXXXXXXXXXXXXXXXXXXXXXXXXXXXXXXXXXXXXXXXXXXXXXXXXXXXXXXXXXXXXXXXXXXXXXXXXXXXXXXXXXXXXXXXXXXXXXXXXXXXXXXXXXXXXXXXXXXXXXXXXXXXXXXXXX",
"XXXXXXXXXXXXXXXXXXXXXXXXXXXXXXXXXXXXXXXXXXXXXXXXXXXXXXXXXXXXXXXXXXXXXXXXXXXXXXXXXXXXXXXXXXXXXXXXXXXXXXXXXXXXXXXXXXXXXXXXXXXXXXXXXXXXXXXXXXXXXXXXXXXXXXXXXXXXXXXXXXXXXXXXXXXXXXXXXXXXXXXXXXXXXXXXXXXXXXXX",
"XXXXXXXXXXXXXXXXXXXXXXXXXXXXXXXXXXXXXXXXXXXXXXXXXXXXXXXXXXXXXXXXXXXXXXXXXXXXXXXXXXXXXXXXXXXXXXXXXXXXXXXXXXXXXXXXXXXXXXXXXXXXXXXXXXXXXXXXXXXXXXXXXXXXXXXXXXXXXXXXXXXXXXXXXXXXXXXXXXXXXXXXXXXXXXXXXXXXXXXX",
"XXXXXXXXXXXXXXXXXXXXXXXXXXXXXXXXXXXXXXXXXXXXXXXXXXXXXXXXXXXXXXXXXXXXXXXXXXXXXXXXXXXXXXXXXXXXXXXXXXXXXXXXXXXXXXXXXXXXXXXXXXXXXXXXXXXXXXXXXXXXXXXXXXXXXXXXXXXXXXXXXXXXXXXXXXXXXXXXXXXXXXXXXXXXXXXXXXXXXXXX"
};
