/* XPM */
static char *_5716d66179b4a76ecf7c0fceaa60818[] = {
/* columns rows colors chars-per-pixel */
"64 64 208 2 ",
"   c #000001",
".  c #1A1917",
"X  c #1C1A18",
"o  c #201D1B",
"O  c #22201D",
"+  c #080E21",
"@  c #0F1425",
"#  c #121729",
"$  c #131A2C",
"%  c #051630",
"&  c #0A1834",
"*  c #141D34",
"=  c #181F30",
"-  c #121E3A",
";  c #1E2023",
":  c #1D212F",
">  c #142035",
",  c #1D2435",
"<  c #1D263C",
"1  c #1E283C",
"2  c #272320",
"3  c #2A2623",
"4  c #2E2A25",
"5  c #27292D",
"6  c #2F2B29",
"7  c #302C27",
"8  c #32272B",
"9  c #322D29",
"0  c #35322E",
"q  c #38332F",
"w  c #212634",
"e  c #262936",
"r  c #20273B",
"t  c #232B3C",
"y  c #292F3C",
"u  c #372932",
"i  c #392A33",
"p  c #353330",
"a  c #3A3632",
"s  c #3E3935",
"d  c #413C37",
"f  c #423E39",
"g  c #45413C",
"h  c #49433E",
"j  c #142F42",
"k  c #183448",
"l  c #232D43",
"z  c #273045",
"x  c #2B3243",
"c  c #263149",
"v  c #2B354B",
"b  c #2D384F",
"n  c #303642",
"m  c #3A3C46",
"M  c #373C48",
"N  c #3B3E49",
"B  c #2E3A51",
"V  c #313C54",
"C  c #3F434D",
"Z  c #2E4B5E",
"A  c #3D4755",
"S  c #314059",
"D  c #2E4D63",
"F  c #324D6E",
"G  c #384C68",
"H  c #474441",
"J  c #484542",
"K  c #484847",
"L  c #42464F",
"P  c #4B4A4A",
"I  c #504F4F",
"U  c #414550",
"Y  c #464A52",
"T  c #494D55",
"R  c #47535A",
"E  c #4D525C",
"W  c #565654",
"Q  c #5A5956",
"!  c #53555C",
"~  c #57585E",
"^  c #5E5D5C",
"/  c #454E62",
"(  c #475061",
")  c #475965",
"_  c #575A60",
"`  c #5A5C62",
"'  c #50586A",
"]  c #536167",
"[  c #5F6165",
"{  c #4A6075",
"}  c #5E6675",
"|  c #5D6D75",
" . c #646465",
".. c #686665",
"X. c #6A6967",
"o. c #656669",
"O. c #67686B",
"+. c #6B6A6B",
"@. c #706D67",
"#. c #706F6B",
"$. c #72706D",
"%. c #646A76",
"&. c #696E77",
"*. c #656C7A",
"=. c #657379",
"-. c #6F757E",
";. c #757473",
":. c #787775",
">. c #7C7A74",
",. c #74767A",
"<. c #737D7D",
"1. c #7B7A79",
"2. c #807F7D",
"3. c #84837E",
"4. c #3F688E",
"5. c #3B6993",
"6. c #576E83",
"7. c #557087",
"8. c #57738A",
"9. c #426B92",
"0. c #717C8D",
"q. c #637E94",
"w. c #4A77A2",
"e. c #7D8282",
"r. c #7A8088",
"t. c #6A8FAE",
"y. c #7B9EB9",
"u. c #7DA1BE",
"i. c #5793C6",
"p. c #5D99CB",
"a. c #5FA3DB",
"s. c #73A6CD",
"d. c #63A6DC",
"f. c #65A9DF",
"g. c #66ADE6",
"h. c #6DB7F2",
"j. c #858381",
"k. c #898782",
"l. c #8B8985",
"z. c #80848B",
"x. c #85898E",
"c. c #8E8C89",
"v. c #918E8A",
"b. c #95928D",
"n. c #98958F",
"m. c #8A8E92",
"M. c #899497",
"N. c #87959A",
"B. c #909292",
"V. c #999690",
"C. c #9C9993",
"Z. c #949699",
"A. c #95989D",
"S. c #9C9C9D",
"D. c #A19E96",
"F. c #A29F98",
"G. c #A4A199",
"H. c #AAA79F",
"J. c #A9A7A0",
"K. c #ACAAA1",
"L. c #A3A5A9",
"P. c #A9AAAA",
"I. c #B1ADA5",
"U. c #B3B0A7",
"Y. c #B5B2AA",
"T. c #B9B6AE",
"R. c #BCB8AE",
"E. c #B5B5B0",
"W. c #BEBBB2",
"Q. c #B7B8BB",
"!. c #C1BDB4",
"~. c #C2C0B7",
"^. c #C6C3B9",
"/. c #C9C6BC",
"(. c #CCC9BE",
"). c #82A9C5",
"_. c #8BB4CF",
"`. c #98CEF3",
"'. c #A3D9FC",
"]. c #AFE2FF",
"[. c #B4E6FF",
"{. c #CECBC1",
"}. c #D1CEC4",
"|. c #D2CFC9",
" X c #D5D2C6",
".X c #D6D4C9",
"XX c #D9D6CA",
"oX c #DCD9CD",
"OX c #D7D5D1",
"+X c #DFDAD1",
"@X c #E0DDCF",
"#X c #E1DDD1",
"$X c #E6E2D5",
"%X c #E9E5D6",
"&X c #E6E3DA",
"*X c #EAE6DB",
"=X c #EDE9DC",
"-X c #F1ECDC",
";X c #F4F0DF",
":X c #EFEAE1",
">X c #F3EEE3",
",X c #F6F1E7",
"<X c #F9F3E5",
"1X c #F7F2E8",
"2X c #FAF5EB",
"3X c #FEF9ED",
"4X c #FFFDF2",
"5X c #FFFFFD",
/* pixels */
"H J J H J H J J H H H J J H H J H J H J J H H H J H H J H H H H H J H H H H H J H J H H H H H J H J J J H H H J H H J J J H J H ",
"J J H H H H H H J H H h H H H H H H H H H H H H J H H H H H H H H H H H H H H H H H H H H H H H H H H H H h H J H H H H H H H J ",
"H H s p p p a h h s p p p p p p p p p p p p s s f a p p p p p p p p p p p p p s s s q p q p p p p p p p p p p d f a p p p s H J ",
"H H p 1.1.1.q f f q 1.1.1.1.1.1.1.1.1.1.1.1.6 a d 6 1.1.1.1.1.1.1.1.1.1.1.1.4 p s p 1.1.1.1.1.1.1.1.1.1.1.1.1.a a 1.1.1.1.p H H ",
"H H p 1.1.1.8 f d 0 1.1.1.1.1.1.1.1.1.1.1.1.s f s a 1.1.1.1.1.1.1.1.1.1.1.1.p a a p 1.1.1.1.1.1.1.1.1.1.1.1.1.s a 1.1.1.1.p H H ",
"J H p 1.1.1.9 f f p 1.1.1.1.1.1.1.1.1.1.1.1.a a s a 1.1.1.1.1.1.1.1.1.1.1.1.q s h q 1.1.1.1.1.1.1.1.1.1.1.1.1.f a 1.1.1.1.p H H ",
"J H p 1.1.1.9 f f q 1.1.1.1.1.1.1.1.1.1.1.1.q a f s 1.1.1.1.1.1.1.1.1.1.1.1.a s f q 1.1.1.1.1.1.1.1.1.1.1.1.1.f s 1.1.1.1.p H H ",
"J H p 1.1.1.6 f f 9 1.1.1.1.1.1.1.1.1.1.1.1.a s a s 1.1.1.1.1.1.1.1.1.1.1.1.p a s s 1.1.1.1.1.1.1.1.1.1.1.1.1.s s 1.1.1.1.p H H ",
"H H q 1.1.1.4 d d 9 >.1.1.1.1.1.1.1.1.1.1.1.a a p 9 1.1.1.1.1.1.1.1.1.1.1.1.a f d 6 1.1.1.1.1.1.1.1.1.1.1.1.1.p a 1.1.1.1.p H H ",
"H H p 1.1.1.3 s f q >.>.1.1.1.1.1.1.1.1.1.1.a p p p 1.1.1.1.1.1.1.1.1.1.1.1.a s f p 1.1.1.1.1.1.1.1.1.1.1.1.1.q a 1.1.1.1.p H H ",
"J H 9 1.1.1.2 d f 7 2.>.1.1.1.1.1.1.1.1.1.1.9 0 a s 1.1.1.1.1.1.1.1.1.1.1.1.a s d p 1.1.1.1.1.1.1.1.1.1.1.1.1.d s 1.1.1.1.p H H ",
"J H q 1.1.1.3 d f q 2.>.1.1.1.1.1.1.1.1.1.1.a s f a 1.1.1.1.1.1.1.1.1.1.1.1.a f d q 1.1.1.1.1.1.1.1.1.1.1.1.1.d s 1.1.1.1.p H J ",
"H H p 1.1.1.6 f f q 1.1.1.1.1.1.1.1.1.1.1.1.0 s f a 1.1.1.1.1.1.1.1.1.1.1.1.q s f s 1.1.1.1.1.1.1.1.1.1.1.1.1.s p 1.1.1.1.p H J ",
"H H p 1.1.1.8 g f q 1.1.1.1.1.1.1.1.1.1.1.>.p a f d 1.1.1.1.1.1.1.1.1.1.1.1.f d f q 1.1.1.1.1.1.1.1.1.1.1.1.1.d p 1.1.1.1.p H H ",
"H H a 1.1.1.u f h s 1.1.1.1.1.1.1.1.1.1.1.1.q q d s 1.1.1.1.1.1.1.1.1.1.1.1.s d d p 1.1.1.1.1.1.1.1.1.1.1.1.1.d s 1.1.1.1.s H J ",
"H J f s d f s f f h f a f f f f s s f f s d f d d s s d f d f f s a s s f s f f d q s f d d f f g f f h g s f d d s f s s h H J ",
"J H s s s a a f f f a 0 d a a 9 a s q a a q d d d q q d s q s s q q a p 0 q s f s p 9 a q s a a s a q a d s s d q d a a f h H H ",
"H H p 1.1.1.4 a a 7 1.1.1.1.1.1.1.1.1.1.>.1.0 9 0 s U r z l r r z v z t 1.,.p a s 9 1.1.1.1.1.1.>.1.1.1.1.1.7 s p 1.1.1.1.p H H ",
"H H p 1.1.1.6 d d 7 1.1.1.1.1.1.1.1.1.1.1.1.9 a d d r B V V B V V V V t O.! f f s a 1.1.1.1.1.1.1.1.1.1.1.1.4 d s 1.1.1.1.p H H ",
"H H p 1.1.1.3 d d 7 1.1.1.1.1.1.1.1.1.1.1.1.a a d a x B B b V b B B V z y C s s s q 1.1.1.1.1.1.1.1.1.1.1.1.9 d q >.1.1.1.p H J ",
"H h p 1.1.1.4 d s 9 1.1.1.1.1.1.1.1.1.1.1.1.a q a a l V B b B B B B B B @ o.s s a 9 1.1.1.1.1.1.1.1.1.1.1.1.4 f s 1.1.1.1.p H H ",
"H H p 1.1.1.4 s d p 1.1.1.1.1.1.1.1.1.1.1.1.q s q q > B v v b v v v v v @ 3.s s a q 1.1.1.1.1.1.1.1.1.1.1.1.9 d f 1.1.1.1.p H H ",
"H H p 1.1.1.6 s a 9 1.1.1.1.1.1.1.1.1.1.1.1.a s d a * b v v b b B V S G F E a d s d 1.1.O.Y N ;.1.1.1.1.1.1.9 s f 1.1.1.1.p h H ",
"H H p 1.1.>.s d a 6 1.1.1.1.1.1.1.1.1.1.1.>.s d q s 9.w.t.y.u.)._.s.i.p.f.4.p s s s ` x , , r :.1.1.1.1.1.1.4 d s 1.1.1.1.p H H ",
"J H p 1.1.1.9 d s 4 1.1.1.1.1.1.1.1.1.1.1.1.a p s a h.g.'.[.].].[.`.a.d.d.i.p p a s = : : t +.1.1.1.1.1.1.1.7 d f 1.1.1.1.p H H ",
"J H p 1.1.1.9 d a 4 1.1.1.1.1.1.1.1.1.1.>.;.s a s a 5.4.q.q.8.7.6.{ S - % - a s s a w y T ;.1.1.1.1.1.1.1.1.7 d f 1.1.1.1.p H H ",
"H H p 1.1.1.7 d a 7 1.1.1.1.1.1.1.1. .T n , a a s q m # @ # w = # + e +.2.E p s d s O.:.1.1.1.1.1.1.1.1.1.1.6 s s 1.1.1.1.p H H ",
"H H p 1.1.1.9 s s 4 1.1.1.1.1.1.O.M r l v B s s a p |.c.< V |.Z.& V T.2X5X4Xs g s d 1.1.1.1.1.1.1.1.1.1.1.1.9 f s 1.1.1.1.p H J ",
"H H p 1.1.1.7 p p 9 1.1.1.1.1. .t z V V V c s s d s ] M.&./ 4XL.l A.N.R V.5Xs s f f k.3.1.1.1.1.1.1.1.1.1.1.4 a p 1.1.1.1.p H J ",
"H H p 1.1.1.p a a 7 1.1.1.1.>.! t c z t t C a f d a k Z e.S.OXP.A.<.D j  .5Xp s f d !.!.C.l.1.1.1.1.1.1.1.1.4 d a 1.1.1.1.p H J ",
"H H p 1.1.1.7 s q 4 1.1.1.1.1.1.[ Y Y ` :.+.a s s a | A k.:X&X&X=X$.) =.{.4Xp a d d ~.-X XH.l.1.1.1.1.1.1.1.2 q a >.1.1.1.p H H ",
"J H p 1.1.1.4 a a 9 1.1.1.1.1.1.>.1.1.1.1._ s s s q -X+X3X4X4X3X3X3XoX,X4X%Xp p d s B.-X$X XF.3.1.1.1.1.1.1.3 s a 1.1.1.1.p H J ",
"H H p 1.1.1.7 q p 9 1.1.1.1.1.1.1.1.1.1.1.L p s a p &X2X5X4X=X5X4X1X3X*XoX Xa f d s $ r.oX$X~.c.>.1.1.1.1.1.4 f s 1.1.1.1.p h H ",
"J H a 1.1.1.4 q s 4 1.1.1.1.1.1.1.1.1.1.1.C q s s p .X2X{.1...;.&X3X:X X X.Xd d d d # - P.-X(.b.1.1.1.1.1.1.9 f s 1.1.1.1.p H H ",
"H H p 1.1.1.7 q s 4 1.1.1.1.1.1.1.1.1.1.1.` s g d a oX*X3 A 0.  @.5X*XoX XXXa p d s x > r.%X}.V.1.1.1.1.1.1.4 s q 1.1.1.1.p H J ",
"H H p 1.1.1.2 a s 7 1.1.1.1.1.1.1.1.1.1.1.;.a s a p {.&Xa   ;   k.4X|..XXXXXp 9 s s , * e.=X(.v.1.1.1.1.1.>.4 d p 1.1.1.1.p H H ",
"J h p 1.1.1.3 s s 9 1.1.1.1.1.1.1.1.1.1.1.1.a s a a }.-X|.5   5 &X=X X}.XX.Xa s d s B $ ` $XR.j.1.1.1.1.1.1.7 d s 1.1.1.1.p H H ",
"J H p 1.1.1.9 d s 7 1.1.1.1.1.1.1.1.1.1.1.1.a a q a  X&XQ.*.&.} A.$XXXXX.X@Xd d d d V B > ,.b.1.1.1.1.1.1.1.9 s p 1.1.1.1.p H H ",
"H g p 1.1.1.9 a s 7 1.1.1.1.1.1.1.1.1.1.1.1.a a a a %XoX.X2X5X2X|.XX X XoX=Xs s a s B V l y 1.1.1.1.1.1.1.1.0 s s 1.1.1.1.p H J ",
"H H p 1.1.1.2 p s 4 1.1.1.1.1.1.1.1.1.1.1.1.a a a p (.%X@X#X%X=X&XXX.X$X%Xm.a a s a B b V , +.1.1.1.1.1.1.1.4 d s 1.1.1.1.p h J ",
"J H p 1.1.1.9 s f 7 1.1.1.1.1.1.1.1.1.1.1.1.a f s a c A.@X@X X X XXX%X.X-.- a s s s B B B t ! 1.1.1.1.1.1.1.3 s a 1.1.1.1.p H J ",
"H H p 1.1.1.9 s a 9 1.1.1.1.1.1.1.1.1.1.1.1.p p a d m.( %.E.oXXXXX XG./ c -.a a p s B B V z E 1.1.1.1.1.1.1.9 d a 1.1.1.1.p H J ",
"J H p 1.1.1.9 p a 7 1.1.1.1.1.1.1.1.1.1.1.1.s s s f ;X XP.S./.oXoXW.x.Z.(.-Xa s p s B < c c T 1.1.1.1.1.1.1.4 s s 1.1.1.1.p H H ",
"H H p 1.1.1.3 p a 7 1.1.1.1.1.1.1.1.1.1.1.1.q d s f %X;X1X;X*X&X-X>X2X>X@X-Xf s s s 1 L ) < L 1.1.1.1.1.1.1.9 d s 1.1.1.1.p H J ",
"H H p 1.1.1.3 q d 7 1.1.1.1.1.1.1.1.1.1.1.1.q a q d %X,X2X2X2X2X2X1X2X2X+X$Xs s a s > V.A.- e :.1.1.1.1.1.1.4 s s 1.1.1.1.p H H ",
"J H p 1.1.1.9 a p 9 1.1.1.1.1.1.1.1.1.1.1.1.q p p d %X=X2X,X<X,X1X1X1X1X#X.Xs d s s 1 J.oX' & x ~ 1.1.1.1.1.4 s s 1.1.1.1.0 H H ",
"H H p 1.1.1.9 9 9 9 1.1.1.1.1.1.1.1.1.1.1.1.p s 9 s oXoX,X1X,X,X,X1X1X>XXX.Xa a q a t J.>X XZ.,.O.2.1.1.1.1.4 p a 1.1.1.1.p H H ",
"J H h s a h s s d d f s g f d d d s g d q d d s p g g s g p a g s s f s a d g d f g f a q d f a a q s s s f f f f f s d g h H H ",
"H H s a s f a a a d d f f f f f s s f f a a f s p s h f g q a q s s g g s s s a p g s s d d d d a s f s s s s p p s s g s g H J ",
"J H p 1.1.1.i a a 4 1.1.1.1.1.1.1.1.1.1.1.! a p a a F.C.^.@X=X>X,X-XoXoX}.J.a p q a - y 1.v./.%XW.c.1.1.1.1.9 0 9 1.1.1.1.p H H ",
"J J p 1.1.1.6 s a 3 1.1.1.1.1.1.1.1.1.1.1.n.a s p s v.3.n.U.^. X.X X(.Y.V.3.s s s q S.x >.j.R.&X^.v.1.1.1.1.9 s q 1.1.1.1.p h H ",
"H H p 1.1.1.u s a 3 1.1.1.1.1.1.1.1.1.1.j.I.a p 0 a j.1.2.3.V.J.I.K.V.c.2.1.s s s a &X^.b.j.J.+X}.b.1.1.1.>.7 a s 1.1.1.1.p H J ",
"J H p 1.1.1.u a p 4 1.1.1.1.1.1.1.1.1.1.v.W.9 0 a a 1.1.1.1.v.W.}.I.l.1.1.1.s s d a oX%XR.k.b.^..XF.1.1.1.1.7 p p 1.1.1.1.p H J ",
"H H p 1.1.1.u a s 6 1.1.1.1.1.1.1.1.1.1.V.(.p a d a 1.1.k.V.C.Y..XK.1.1.1.1.s s g d oXoX}.C.V.Y.oXY.j.>.1.1.3 p a 1.1.1.1.p H J ",
"H H p 1.1.1.9 a a 4 1.1.1.1.1.1.1.1.1.k.I..Xa a a f $.$.T..X}./.(.#...^ ^ ^ d q s s oXoXoXI.V.T.{./.n.>.1.1.6 s f 1.1.1.1.p J J ",
"J H p 1.1.1.6 s a 4 1.1.1.1.1.1.k.C./.oX-X$Xs a f f J :.*X&X&X&XU.K P J J J a s q p oXoXoX&X}.!.Y.U.X.....;.7 p a 1.1.1.1.p H H ",
"H H p 1.1.1.8 d d 3 1.1.1.1.1.k.D.R..X&X&X3Xs p s d P W 3.3.3.1.Q P P P K P s s a p T.@X=X-X,X+X{.T.$.H P P 4 a s 1.1.1.1.p H H ",
"H H p 1.1.1.u d d 4 1.1.1.1.1.v.I.Y.R.Y.{.5Xa p s s P I I P I I I P K P P K p p a a :.$X4X{.~./.!.^.(.P I H 7 s a 1.1.1.1.p H H ",
"J H p 1.1.1.6 s f 9 1.1.1.1.1.3.D.G.U.U.W.I.s s s s J K K P K K P K K P K P p s d s P F.}.(.U.R.J.G.b.I W W 9 d s 1.1.1.1.p H H ",
"H H p 1.1.1.6 f f 0 1.1.1.1.1.1.1.3.z.l.j...a s d p I I P K K J H C J H H H a a s a I P W X.;.;.;.#.O.;.:.1.9 d f 1.1.1.1.p H H ",
"H H p 1.1.1.9 s f 9 X . X . . . . . . . . o p s s 9 O . . X . . . . X X . ; 6 a a p O . . . . . . . . . . X p s s 1.1.1.1.p H H ",
"H J s p p p p h g s p p q p p p p p p p p p s f d s p p p p p p p p p p p p s s f s p p p p p p p p p p p p q s d s p p p s H H ",
"J H H H H h H H J h H H H H h H J h C J g J H g g H h J H H H H H H H H H J J H H H H H H H H J H H h H H H H H H H H H H H H H ",
"J H H H J H J H J J J J J J H H h h h H J J J J J J H J J H J H H H J J J J H J H H J J H H H H H H H H J J H H J H H J H J K J "
};
