/* XPM */
static char *_cbc5a02a9f644c4a334d0c2049de997[] = {
/* columns rows colors chars-per-pixel */
"64 64 185 2 ",
"   c #030504",
".  c #090605",
"X  c #060906",
"o  c #0C0A06",
"O  c #050709",
"+  c #040909",
"@  c #0C0C0C",
"#  c #110D06",
"$  c #120D0C",
"%  c #190F0E",
"&  c #0D110C",
"*  c #15120D",
"=  c #1B140E",
"-  c #1E180E",
";  c #0D0C12",
":  c #130F14",
">  c #180D10",
",  c #0E1212",
"<  c #141412",
"1  c #1C1512",
"2  c #151915",
"3  c #1D1913",
"4  c #131619",
"5  c #1A1719",
"6  c #151A19",
"7  c #1B1C1B",
"8  c #22160E",
"9  c #24190E",
"0  c #291C0D",
"q  c #211611",
"w  c #241B13",
"e  c #2B1E15",
"r  c #231D19",
"t  c #2A1F18",
"y  c #301F16",
"u  c #311E18",
"i  c #1D201D",
"p  c #262114",
"a  c #2C2115",
"s  c #24221C",
"d  c #2C231A",
"f  c #2F281D",
"g  c #322416",
"h  c #392617",
"j  c #332816",
"k  c #3A2A17",
"l  c #33251A",
"z  c #39261B",
"x  c #36291B",
"c  c #3C2B1C",
"v  c #3E311C",
"b  c #171E22",
"n  c #1C1E21",
"m  c #1E2223",
"M  c #232423",
"N  c #2A2422",
"B  c #252925",
"V  c #2B2925",
"C  c #21242C",
"Z  c #252B2B",
"A  c #2C2C2C",
"S  c #352721",
"D  c #382722",
"F  c #352B22",
"G  c #3C2C21",
"H  c #312D2A",
"J  c #2D322D",
"K  c #3D3124",
"L  c #34312C",
"P  c #3C332B",
"I  c #3E382F",
"U  c #272E3A",
"Y  c #2C3333",
"T  c #2C313A",
"R  c #333433",
"E  c #3A3534",
"W  c #363936",
"Q  c #3C3935",
"!  c #353A3A",
"~  c #3B3C3A",
"^  c #422D1D",
"/  c #492E1C",
"(  c #44321E",
")  c #4A331E",
"_  c #463A1F",
"`  c #4C3A1F",
"'  c #50361F",
"]  c #432E21",
"[  c #482E22",
"{  c #402F29",
"}  c #453222",
"|  c #4B3423",
" . c #453922",
".. c #4D3A24",
"X. c #44362A",
"o. c #4B3629",
"O. c #473C2E",
"+. c #4E3B29",
"@. c #523624",
"#. c #533B25",
"$. c #5A3D26",
"%. c #543C29",
"&. c #5A3D2A",
"*. c #433B33",
"=. c #4D3E31",
"-. c #593D31",
";. c #623D24",
":. c #603D2E",
">. c #3F423E",
",. c #47412F",
"<. c #4F402C",
"1. c #544126",
"2. c #5B4226",
"3. c #55422A",
"4. c #5C422B",
"5. c #5C492D",
"6. c #464037",
"7. c #44423D",
"8. c #4F4E3F",
"9. c #564030",
"0. c #5D4531",
"q. c #5D4931",
"w. c #634427",
"e. c #694726",
"r. c #694926",
"t. c #63442C",
"y. c #68462D",
"u. c #64492C",
"i. c #6B4A2C",
"p. c #724E2E",
"a. c #75512D",
"s. c #7C502E",
"d. c #634431",
"f. c #694631",
"g. c #654A32",
"h. c #6C4B32",
"j. c #734E33",
"k. c #7B4E33",
"l. c #6F5232",
"z. c #675038",
"x. c #6D523A",
"c. c #735234",
"v. c #7C5434",
"b. c #7D5836",
"n. c #72533B",
"m. c #7C5638",
"M. c #775839",
"N. c #795939",
"B. c #3B3D40",
"V. c #3D4242",
"C. c #434544",
"Z. c #4B4640",
"A. c #494A47",
"S. c #41454B",
"D. c #454B4E",
"F. c #4D4D4C",
"G. c #4F504A",
"H. c #444F50",
"J. c #4E4F51",
"K. c #4F5151",
"L. c #535252",
"P. c #585951",
"I. c #535958",
"U. c #5E5E5F",
"Y. c #5F6057",
"T. c #74726D",
"R. c #777673",
"E. c #7B7A77",
"W. c #7D7C78",
"Q. c #825534",
"!. c #835B35",
"~. c #835B3A",
"^. c #8A5C3B",
"/. c #84613D",
"(. c #8B623C",
"). c #8E683F",
"_. c #99643F",
"`. c #8D6241",
"'. c #8B6A42",
"]. c #966741",
"[. c #9B6C42",
"{. c #9C7247",
"}. c #CBCBC7",
"|. c #D3D4CF",
" X c #DEDEDA",
/* pixels */
"W.W.W.E.W.R.Y.|.}.7.C.~ J M V T.T.7 M R S.F.G. X XP.E.W.E.E.W.W.W.W.E.W.W.R.Y.|.}.7.C.~ A M V T.T.7 M R A.F.G. X XP.E.W.E.E.W.W.",
"x } G d l f F x l f q d d l f K F c c G G l d t t l l l l S S l l S f f l S S f d r d e r s e d d t d r F } G f x K f f l f F d ",
"| w...) z z ..} ( ) = d z z } o...o...[ } ^ ^ [ ^ v ] ] ^ ( } } } } ( } ^ ] ( c c h c c k c c c z h c e  .5...^ | ..( k ( ^ +.d ",
"K #.} | j d ( ] v ^ r e z G v ^ [ } [ c ] } [ K ] ] } ] c v ^ ^ } ] } ( } c ) o.o.} } | ..| [ K c z G g x 1...v X.z x v  .^ | a ",
"z #.+...a l } ] c ^ r G ) ^ ^ ^ c c G v ^ G G G ^ } } } ] | | ) } | / o.....| ..} ] ^ c ] c z a l l D l z | @.v X.j j v ( (  .f ",
"c &.#...0 a } c / @.= } | ^ G v ( / / ( ^ ] ] ^ ( ( ) [ | +.#.|  .@.@.3.3.#.| | ) } v z l l f g l x G g x [ } j } a 0 K ..` ..d ",
") 2.#.o.d F } c ^ ' q K | [ [ | $./ / } / / / } [ | o.#.@.&.$.@.&.$.$.4.&.#.#.#...@./ ^ } ( ^ z c c c g x K v z ] e w F +...+.g ",
"| #.+.6.C.Q f S v ( q x ^ ] } @.&.o.*.K { %.$.o.[ o.@.| &.2.-.6.O.%.#.$.+.#.+...#.%.o.P K G ] %.+.| } g g ) c l { E ~ Q } 1...a ",
"+.5.X.>.U.7.i s ( / q c ' %.@.) z I K.J r h k ^ o.&.&.&.t.-.*.H.C d ..../ | } ] z l Q L.L r d G X.| ( a z [ c g P F.K.~ s `  .d ",
"5.g.K ! J.Q 6 p | &.r @.$.t.@.^ c L ! b 3 ] | #.&.#.#.&.&.+.L U 4 a @.@.| | [ ] z l E C.m 5 h h c z v d g c z h L C.F.Z n ) | r ",
"0.y.} B m 6 1 a | $.e 0.w.#.` #.f.o.6 < S %.%.@.$.@.#.%.-.d.K * 1 c | | | | | | o.o.G 2 , d o.#.o.| } z a l ^ D S B A 5 5  .#.w ",
"5.r...S 1 < d ^ | $.q &.g.&.#.$.$.#.../ $.w.d.&.#.' #.| +.#.| ^ c  .} ] v ^ ( ) } ) } S l } 1.5.3.%.[ h a G c c S s 2 1 d 3.2.e ",
"&.y.| | f e +./ | | q %.w.&.&.&.y.w.t.y.i.g.t.4.#.' ..' ' ( / | +.| | | K c ^ ^ v c k | ] ^ ( ) / ' o.x y c c ^ G a * d ^ d.2.g ",
"d.t.] @.j } 2.@.[ k 3 -.t.&.&.4.f.d.0.d.d.:.t.&.&.+.1.$...#.| | o.| } G D c ^ c k k c c ^ c c c ^ | ..z u ^ ^ z v z 1 l ] #.4.l ",
":.t.} #.j ..&.#.| c 3 4.y.w.4.4.&.3.d.d.&.&.$.$.%.#.+.#.} X.| / c v c h u l c z ^ c ^ ^ ^ ^ ] v k c } d g ( ] c ] c - c v  .y.j ",
"2.5...2.z d.&.| @.#.q 4.j.x.l.h.l.h.h.c.c.y.w.2.$.#.' ^ / / / [ ( / ] [ ^ / [ ] [ [ ] ] [ ] G z c G c y h | c z c x e z v | $.v ",
"2.4.o.&.g y.2.) | 2.y j a a e e a a e a g g S l j c g d y a d d a f l a g e 3 3 5 1 = : * * * = = * = 1 l } z z v K l z } } | ( ",
"5.2.@.&.v y.$.( #.2.d &                   @ : r v d d F d s d l a x K z K p             + +       + O @ c } ^ v ^ c l x [ ..| v ",
"&.4.#.$.3.l.#.( @.4.=   > $ # @ $ $ * * & o   e ..^ g v z j x v x k ] c v f   o $ $ $ $ @ $ @ $ $ $ X % c [ } } ^ c ] c } ..v l ",
"} u.3.2.2.g.#.) $.2.$ O % * = 1 1 : 1 1 - * X r ..v j x x l z v k z c ^ ^ d . ; * % % 1 = 1 = 3 q q * = c | | [ ^ [ ^ c ( o.x h ",
"x 5.w.4.#.w.3...&.q.- O * 0 f f d a f x v e 3 d } v g x x x x K G x v c v d   @ * w y a d e a l g l 9 w v | ] [ } G P F [ &.v g ",
"s 2.g.g.#.2.4.&.4.z.9   & a l g g a g v X.d w g | K x z c x k k K k k ^ z d O @ * e f d g a l x l S a y ^ / ] ( x C.A.N c +.v l ",
"3 | h.t...w.$.#.2.z.w . @ = 3 r r - w f v d f g ..K K c G j G c K F G } K d . X $ q q w r 8 p a t t S a c | ) v l V.T < z +.z d ",
"3 x h.t...z.2.$.&.g.g 8 = 9 8 w w 8 - 9 0 e f e g e e a e d g d a a a a z 0 $ * = 1 1 = 3 - w 3 q 0 f 8 c } z / K r < 2 z } z g ",
"7 d 4.w.| g.u.$.$.3.^ o.} ] } c e f a G c z c x k c v j g c l g l l l f g x x f j f f f j F v f x k K y g c z [ } d w r z ^ z l ",
"M s 2.w.&.2.u.&.w.#.c o.| ] S = @ B m 1 } } ) } 1.<.} v ^ K K c c K x c x z v z j x ( v v ( v ( ..+.q.f a z l G ^ z g d G c z d ",
"C r #.i...4.g.&.g.( h ] ) K = X 3 g 5 @ w [ } | ......| ] ^ ( } ^ c v c ^ c z z c } )  .+. .+...3.+.d.g e z z v c z g z z l z l ",
"M M x 0.$.y.t.&.&.[ u ] ^ c # % K ) y 4 < z }  .<.+.| X.v c ^ ) } ) } v } K S c x l j x f j a p r q 8 * d k ^ } ^ l l a c c z f ",
"V A M x 2.i.d.w.f.@.a c z k e 8 ] ^ a < < f o.( ( k j j l g g g z g e a e e e e w w w w e d l j v (  .a y l z K c z j j c c l D ",
"Q ~ C M x o.-.&.$.@.y z z c K c u D N : $ r v ) v x x z z K K [ [ ^ g g z j z c G } }  .) ..1.+.@.+.5.j g [ 0 3 d u c z z c c G ",
"7.F.E V V s J F p d V H F s 3 1 V ~ A , : 3 v X._ K v z c ] ] ^ ) | [ / [ ( ) ^ [ } ] c v ] } ] } } | q l | ] s B s d w G c ( G ",
"~ K.Z.C.C.>.B.B.~ ! C.Q ! M @ , Q ~ V 5 & < d l p w r F d e d F F F P P K K K f d S l S l d l S S d G d S X.D N E Z J s r g ..X.",
"Q A.G.C.~ E Q ! ~ ~ P Z M n @ 7 W E L 7 * , 2 4 ,   6 ! M @ 6 Q ! R E R R E R Z 7 6 Z Z 7 7 m m m B A ! J Y m M Q A L R m 5 a } ",
"*.A.L M 5 6 1 5 5 5 n n M 6 ; M V.A V 7 , & s d r t s d s q r s r r r r r 3 r r r q r w 3 r w 3 3 3 r 2 w e w N L M Z H 7 1 a x ",
"~ E < 6 6 4 5 7 5 , M r 7 2 O r H 7 Z 6 X = +.t.d.-.| [ } | ^ ^ G c G u z l l z G G c c c c c ^ ] c K 8 y ^ } F Y s 6 < r g ..} ",
"M b 7 5 3 j c ] c a e } / | | o.c r N M ; } 5.5.&.@.| / ) | | / ] ] G ^ G c z c z x x l z z z z z z G w g | ] V 7 5 = a ^ } #.} ",
"5 6 2 z &.i.j.m.u.+.x +.#.) &.} | | e 5 @ c ( v c | } v v v c c z z x x c x l l g d g h g h z a h g c w z } a - q d G ^ | } ..( ",
"7 2 g h.j.y.k.c.$...K 2.4.5.l 1 ..2.K 6 X l ../ | [ | } } } c c v z x z h g l h g g d a d f a d l d l q z ^ a a c c D z | +.#.^ ",
"7 r y.i.t.y.p.t.&.%.c #.4.4.* w 1.u.=.m @ v +.o.| ) |  .} K G c z z ] K c l l z l l l g h g g g t y l 1 l v G z c d x c | ..` ( ",
"< ] v.j.y.&.g.&.&.+.^ w.2.#.3 M P P V 6 - .. .) ( c v v c c z c v ] ] c l l h g g z z l l g g a y u l 1 l v ] } k f l ] c X.+.} ",
"* 4.!.v.t.@.t.#.#.o./ g.5.&.} N Z s s f ..#.| K G G G G ] ] ] G z z z l x c f z x l l l z l f j l g G 9 g c c ( } a g [ z +.1.} ",
"3 b.^.c.&.@.t.%.@.%.g ] G c / z w r a G k x f y e y w u t y a e w r w w 0 w q r q w w q q r = q q 1 w % a c c ^ [ g y ( ( ..1.} ",
"p (.~.c.t.&.&.&.@.4.%     . . . o o   .       9 .. .g e z v v z t l u g z q . . .     X   X   . . O o # z v ^ ^ } P H P } | +.( ",
"K ].`.~.2.&.w.#.2.t.* O , @ ; $ @ $ $ $ $ ;   c c.+.( ^ | 3.3.| [ } c c K d   @ , & $ $ $ @ @ $ @ ; @ $ c ( ^ k K D.V.N l } #.K ",
"<.[.(.c.,.K 9.d.w.f.% O 1 - w q 3 r r q 9 %   v l.( k v ..1.1.c c | ^ l v d   @ * 1 = * * * * * * * @ = v } v c K R Z < d | #.] ",
"3.)./.=.D.! s 4.h.f.= . = g X.} z k c z c e = v y.| ^ _ &.` ..} c ( } l c p   @ 1 e a a a a d w w a r - } | c ^ } d < 3 c | $.} ",
"1.!.(.3.T C 5 #.l.h.3 O * g | [ ^ c ^ G K d w K t.[ ] } | | +.} h v v z G t   @ : r a d a a d d w f e a ^ | v ^ } x r G / | $.| ",
"1.!.(.n.s , d f.Q.p.e X o r c x z z d y j z v | j.5.| #.+.3.0.[ h c | c K r X @ $ = 3 w 3 - 3 1 8 9 l l ^ [ ] ^ | ^ z | ) ..#.X.",
"3.'.(.b.=.1.2.j.^.k.e $ $ 8 w y a e r w e g D z } c x j c h z u w e h e e = # $ $ = = = % 1 1 q w a S q ^ @.X.^ ) ( c | / | #. .",
"5.).b.s.3.k.f.c.m.p.v o.o.| } K c x g a f l d g a e d e e r w e t e e d z z G [ ( ] ] [ / | #.0.y.u.+.q ^ #.| K ^ / v ..) [ &...",
"u.).N.l.| y.f.j.m.j...3.&.2.1.1...} ( c v v z c z c ] z c c c c c ^ | | } o.[ [ | / | $.$.$.w.2.i.y.5.0 c o.) l G ) v &.#.| t.| ",
"g.{./.c.#.j.h.n.v.j.) +.)  .} ( ^ ) ^ v z v v z z z c c c c z c c ^ } / c ^ ^ c } ] [ | | $.&...2.w.2.g z v x z z ) g &.&.| t.o.",
"M._.m.m.4.c.f.m.~.v.(  .( }  . ._ _ k K c v c z c c z c c c u c c z z G c c ^ ^ [ ^ | | @.&.d.&.2.w.w.z g G x c x x f | &.o.y.&.",
"l.[.Q.k.4.M.;.n.~.a.( 1.+.1.3..... ...( c c c G z z c c G ] z h c c c ^ c c ^ c c ^ / ^ } @.$.#.&.$.&.z u c x z z P 7.H o.@.h.%.",
"i.].Q.j.3.M.;.m.N.j._ <.<.1.1.K P P } ^ z l z l h z z l y u F I F g h D ] G ] ] } [ } P S o.&.-.h.h.n.] e c z v x C.S.7 z @.p.%.",
"g.!.s.k.q.M.;.j.m.p._ 5.1.( k P J.! r t y a g j z D l z g l 7.I.J r t 0 t u l g l l I L.E t ^ / [ ) [ d a c x c x H 7 , l %.p.o.",
"d.Q.!.x.P +.&.j.k.h.v 1. ._ x I D.Z 2 w e 0 g z z l z c G z E T b r t g l D G ] c z P B.b 3 z ^ | o.| d e z j c c d 3 3 l %.f.[ ",
"2.Q.c.8.S.m [ j.v.h.v ( +.<.<.K 3 : s X.[ ( ] c z z G D c c d 6 1 w g z l c ^ ^ | o.D 2 , d @.$.g.h.h.[ 8 l h K c d d l h %.h.o.",
"2.s.i.J U , h h.v.t.v (  .} ( } h t G [ ( | } ^ ] c G h z c l d e a c z l l z c } [ c g f c | $.2.t.h.c 0 G z c z g z v z | p.+.",
"4.a.l.K * = | h.c.w.c ^ ' ) ( c ] v K c ^ [ ^ K G z z g g g g g z z l l S l g h z z c ^ | | | / &.t.y.G w ] D v k x z x l | j.#.",
"&.e.p.t.k ..y.i.i.4.c  .) | ( ^ | (  .^ [ ( c c c z z l l t t y g g l u g g l l l g l z c ) | @.4.c.~.| 0 [ c K v x z l f ( p.+.",
"o.r.a.2.2.p.r.w.t.&.( 3. . . .| ) ..1...} o.| | ] ] G D g h g y t u u t t y a d u u t r q 0 g c ( #.g.G w } c K c z z f d / i.@.",
"%.r.j.$.2.l.w.$.t.3.) 5.1.1...1.+.3.1.1.........} [ ] c c ^ G z l g d l g d a z g h c G G ] [ | | | 3.c e | [ K c v z l g | h.| ",
"&.r.j.t.y.t.%.$.:.4._ 5.u.w.2.......}  .} ] c c z c c z z c l u D l u g h z G z z z c z ( o.@.+.%.4.n.| 0 o.( c v v c l z | f.@."
};
