/* XPM */
static char *cfd540bfe2fd40d4bd6444d724d7195f[] = {
/* columns rows colors chars-per-pixel */
"64 64 36 1 ",
"  c #0F0A09",
". c #150D09",
"X c #190F09",
"o c #1D1209",
"O c #221509",
"+ c #261909",
"@ c #2A1B09",
"# c #2F200A",
"$ c #202F0A",
"% c #32220A",
"& c #25350B",
"* c #29370E",
"= c #27390B",
"- c #2B3C0C",
"; c #303F0E",
": c #243010",
"> c #293611",
", c #2D3D11",
"< c #313E12",
"1 c #2E420D",
"2 c #32450D",
"3 c #354A0E",
"4 c #394C0E",
"5 c #3C520F",
"6 c #2F4111",
"7 c #334412",
"8 c #394614",
"9 c #364A11",
"0 c #3A4D12",
"q c #3B4B18",
"w c #3C5211",
"e c #42550F",
"r c #425512",
"t c #465A12",
"y c #43571C",
"u c #476213",
/* pixels */
"ooOO+OOoooXoOoooooooooOOoOOoXoXooOooooOO@oooooOOO+O@OO+oOoo+Oooo",
"ooooooXoooOOOOOOoooo+OOoooOOOooooooOoOOOoOOoOoOo+OOOoooXXooooXoo",
".ooOoOOOOOOO++OOoOoo+Ooo++O+OOo++oXXXoOooooooooOoooXooooooooooXX",
"..XooOooooXooXXXXooXooooOoO+OoooOOXXXoooOoooooooooXoooOoOOooOOOo",
"@oo. ...XXXX.XX...X.XXoXooXXooooooXXXXo+OOooooooooo@ooOOO+OXo..@",
"o+Oo . .X.ooXXoXXXXoooooooooOoXoOooXXoooooooXXX+@+OooooooX      ",
". oO+OOO++OooXo....XX.XXooXXooOooooOooO+OO+OOOO+oX........XXOOoo",
"+.  XXXXXX.oXXXXXooooXXooXXXXX.XooooXoXoo.XXoXX.X.XXXXooOoOOOooO",
"+OOoooooooXooooooooo+oo+OOoO+OooXoooXoooooXoooXoO+OooOOoXoooOoO+",
"O+++++OO++ooOOOOOOOo++OO@+@@@+OO+OOOoOoOOOoooOOXXoooXXXXooOooXoO",
".oOOOOOOoooOoXooooOOOOO++O@@@@OoOOO+oOoOOOOOOoOOoO+OooO+OooX..  ",
"....XXO+OOOoOooOo@OoOOOOoOOo@oooooXoOoooXooXXXoooXoX..XXX...X.Xo",
"XoX.. ..oO++Oo. .oXooOO+OooOoooOOOoOo+++oOOOOo+Ooo+oOoooXXXoOoOo",
"O+oXoXX.....  ...   ...ooXoooOoOooooOOOOO@@OXOO++++ooXoXXoO@O+OO",
"ooO+O+OOo...XXoOoooOoO+O+ooOO@+OOoo++++@%%%@O#@@@+@OOOO++@+++@Oo",
"OOooOOOOoo+O++OOooO@@@@@%@+@@@@@++O+O+@@%%%@O@+O@O+++@@+@@+@@@%@",
"%#@+@@@@@@@###++Oo+#++@@O+@O@oO@OO@@@@###@@@@@@@@O++@@@+@@@#@@@@",
"+%%##+@#@#%@+O+@+@@@++OoooXXoooO@@O@@@@#@@@+OoXXO@++@@+oO@OooXX+",
"XOOoooooOOoX..XoOoX.X..ooOOOoooooOOO+O@OoOoOooOoXXoOOX. .. .. ..",
"XoXX.X..X..........ooOOoOoooooooooOoOoOooooooXoOX.....X..XXXoXXo",
"oOoooo...XXXoooooXXooOOOoooooooooooOOoooXXoooXoXX.XooooooooOoooo",
"oooOooo.XoXXoooooXooOO+OOooooooooooOooooOOOOOooXX.XXXooXoXo.Xooo",
"+oooo@OoOoooooOOOoOOO+O@@+OO@OooooooOXXoooXXXXXO.. .. .......o+O",
"ooooOOO@OO+O+O#++@++@+@@@@OO@@OooO@@@@@O+OoXX@@@@@@OoXX...XooO@O",
"@oO+++OOoo++OOOo+++@OOOoXooOO+OOoOoOO@O@@@#@@ooo+@#@@@+Oo+@+@#+@",
".... ..oooOooOoooooOOOooooXXXoXooooXXXXooOOOX......X+@@@++++@o.X",
"oooooo....XXooooOoOO+OOoOooooXXXooXXooXXX...XXXXooX..XXooX....Xo",
"oOOOo+Oo++O+@@+OOO+++OOoOoO+OooooOoOoOoooXO+@+OoooX.XX....ooooOO",
"o...oooo+@++#@OooOO+OooooXXoOo++++++oOooOOOOOOOO++OooOoXoO+OO+oO",
"...o.o.ooOOOOoooXXOooOoXO++OOOooXooooooo......XXXooXoooooOOoo...",
"oOooo++Oo+++OoOooooO+OO++oXoO++OOO+O++oO+oO++O+OooooOoo.oO++OOoo",
"O+Ooooooo+++O++O+@+@+O+X..X.XoXooO+@@@+@++O+OO+@+O+++ooOOOooOoOO",
"+O+OOOOOOoOOOOOO+oOoXXXX.XXoXoXooOOOOOOOo++@+@+@+OO+O++O+OoO+OO@",
"ooOoo+OOoOooXooooX..XXXoX.XXXoXXXXoooooooo+@++O++OoOOOOO+++O++O+",
"X .  XXoooO+oooXoXXoooXX.XX.XXoXooOXXOoOXoo++O+OXXXXOOOOOXXooXX.",
"+O@++oXX...XooO+Oooo.X.XXoXXXooOOooXooOooooooOoo.Xo+#%@++OXXXoO+",
"@++OoOooooooX.XoooXXoXXoXooOO+OOoO++++@+OoooooXXXo+@%%@@+OOOOOO@",
"@+++OO+OOOOOoooooooO+++++@#%%%@+@#%@+@@@@OO.ooO++++@@@@+@@+O+++@",
"++O+OoOooo+++O@###@##@#++++O++OO++++ooO+##@@@@++@++@+++O++OO++@@",
"X... .....XooOO+@@@OO+OOoOO++OooooooXXoO+##@@#++++oXXoXX..XXXooo",
" .X...ooXXX.....ooooo+@+OOOo+ooooooooooooooooooXo..Oo+oXX.X  . .",
"#+++OOOO@OO++++ooo+++++ooooooOOoO++OoooOOooXoooooOO++@+o@@@@++O+",
"@+OoOoooOXO+@+++oXoOOOoooooooooOOooXoOOO+OOooo4++@@++OOO#@@##@@@",
"ooooooXooXoOOOoooooooOOoooooOooooXXXooO*-++OOO;-@@@+++++@@#+#+Oo",
"O+OOOooooXooooXXo2eOooOoOOOOO6OOoo..XXo1-$1+++=21#%%@++OO+O.oooX",
"oooooo.....XO++OO;;oOoooooooX5ooXXXo-*-**2--1o&---+@@@@@@@+O+++o",
"XooO+@24-+++++OO2003OO+@++6we2oooo@O;;;-245=-&&3=2XXoooOOoOOOoo.",
"oOOOOO21;X..ooO@328--OOOOO1-225--OOo*;252=44==22&5O+oXX.X2..ooXO",
"-oX-X.34413-@@21242-2298O+6&52&--=oo-386261w=223-1-@+@+@O2O++Ooo",
"--O-1o=221112o2=85r233323O1214-1-&1323,77021-114&---=6+@21&OOoo.",
"==1==312e4--321-2122;236324311216-1116868q-=11$3&32*=3-+-2---1X.",
"==1=1111---121121--1227722431e42-21-2$226>-==-&13=-311-12e=--=&.",
"=11=331233-11=11&-323w240;412=2-=64=;=61&==-=11=-&$==2&143-1521=",
"==22=1=1=42131321=356444542;1&=121u--=41=1$-&231-=====1242=-4211",
"1&-31===11--134341;52311283;1331&-351,6132$2111=11111=-=3-9622&-",
"33--2=1=1=-1&25531872536e2424422-2-2911111131===11=3=13-622;;-&-",
"33141=12$1=61w931;22;6t6-=2231623-=1431--4443=&==6&-$=1>:,-:,,>2",
"942=114-=-$12936e-&*&>2-113-2239211=-1--&-13=1=1--==2,2>,-<>6;<<",
"-161114-&=-==;-6252>$$3943e231-2e>;-&-$;3-11511121=1-19,-8t81-3>",
"6=23-63&1=116=-621e28*24134555=68-;66976=1-633111=&1=>>66*t8-34-",
"12332-2;&--6-68622&32;4-232241626,6829q211=22211$&====6,=&4811;2",
"-453362>&-,9*,6<4-=2422133--1-3;->q*12221311111311=11-2-6--;3224",
"23r3632:,92=6,,6e=-3241-32=;11=6=,7>2-631w==12121==11$---;182441",
"-22-;0-2q79-3&&95==-32&4312;&=6=196,-4-111111311-==1=1$$--*y03=&"
};
