/* XPM */
static char *_db7f786b4c54803f37ab8bd8f6717d9[] = {
/* columns rows colors chars-per-pixel */
"64 64 255 2 ",
"   c #010200",
".  c #070802",
"X  c #0A0C02",
"o  c #0E1302",
"O  c #111403",
"+  c #151C02",
"@  c #1A1C04",
"#  c #192303",
"$  c #1C2C02",
"%  c #1D3301",
"&  c #232406",
"*  c #232C05",
"=  c #252B08",
"-  c #233303",
";  c #293A05",
":  c #343809",
">  c #2D2F19",
",  c #262626",
"<  c #2D2D2D",
"1  c #353926",
"2  c #343434",
"3  c #3B3B3B",
"4  c #423E0E",
"5  c #2C4702",
"6  c #374705",
"7  c #344B0B",
"8  c #395603",
"9  c #3C6602",
"0  c #3B412C",
"q  c #3E4138",
"w  c #45480B",
"e  c #475708",
"r  c #55560D",
"t  c #464A12",
"y  c #524D10",
"u  c #495614",
"i  c #585A16",
"p  c #466603",
"a  c #566709",
"s  c #4D710F",
"d  c #567905",
"f  c #5C6618",
"g  c #5D7419",
"h  c #697A09",
"j  c #6E6F11",
"k  c #666818",
"l  c #677419",
"z  c #767916",
"x  c #46483A",
"c  c #4F5632",
"v  c #575C38",
"b  c #635C22",
"n  c #57682B",
"m  c #5B673A",
"M  c #6D772D",
"N  c #636839",
"B  c #434343",
"V  c #4A4C42",
"C  c #4A4A4A",
"Z  c #504F40",
"A  c #4D5242",
"S  c #585942",
"D  c #515151",
"F  c #5C6642",
"G  c #656846",
"H  c #6B7646",
"J  c #747A49",
"K  c #747854",
"L  c #71726A",
"P  c #797978",
"I  c #837F1E",
"U  c #807F53",
"Y  c #5B8608",
"T  c #56900C",
"R  c #668804",
"E  c #679707",
"W  c #76950F",
"Q  c #6A8519",
"!  c #77871A",
"~  c #59A005",
"^  c #6FA70F",
"/  c #75B905",
"(  c #788625",
")  c #68912C",
"_  c #7C9423",
"`  c #78873A",
"'  c #72A825",
"]  c #7BCC20",
"[  c #778448",
"{  c #788C4D",
"}  c #7EA844",
"|  c #858A19",
" . c #899719",
".. c #95951D",
"X. c #A09C1F",
"o. c #86A706",
"O. c #85B706",
"+. c #99BA08",
"@. c #87AA17",
"#. c #97A21B",
"$. c #8CB518",
"%. c #A2AB1B",
"&. c #A6B61D",
"*. c #868A24",
"=. c #899828",
"-. c #979825",
";. c #8F9332",
":. c #A49E24",
">. c #87A628",
",. c #97A82A",
"<. c #8CB726",
"1. c #9AB829",
"2. c #9AA637",
"3. c #99B635",
"4. c #A7A925",
"5. c #AAB52A",
"6. c #B4B926",
"7. c #A2A93B",
"8. c #A6B935",
"9. c #B3B83A",
"0. c #98C808",
"q. c #91D10C",
"w. c #A3CA0A",
"e. c #A7D50B",
"r. c #B3D906",
"t. c #A5C41C",
"y. c #B0D118",
"u. c #97E907",
"i. c #A5EA04",
"p. c #B7E706",
"a. c #B8FB06",
"s. c #B5E617",
"d. c #A9F111",
"f. c #9CC628",
"g. c #99D829",
"h. c #AAC828",
"j. c #B7C92A",
"k. c #B7D827",
"l. c #A7C836",
"z. c #B1CF30",
"x. c #B6D43B",
"c. c #8EE523",
"v. c #B8E828",
"b. c #B2F129",
"n. c #B5E335",
"m. c #C3DE09",
"M. c #C5DB18",
"N. c #C3E906",
"B. c #C9FA06",
"V. c #D7FA06",
"C. c #D1E416",
"Z. c #C8F719",
"A. c #D7FA17",
"S. c #E7FD06",
"D. c #F6FF06",
"F. c #E7FD18",
"G. c #F9FE17",
"H. c #C7D427",
"J. c #CACC34",
"K. c #C3D839",
"L. c #D7D739",
"P. c #C5E826",
"I. c #D5E628",
"U. c #C8F624",
"Y. c #D6F827",
"T. c #CAE833",
"R. c #DAEA38",
"E. c #C8F438",
"W. c #DAF836",
"Q. c #EAFD29",
"!. c #F9FF27",
"~. c #E8EA37",
"^. c #E7FA38",
"/. c #F7FD39",
"(. c #84894B",
"). c #899B46",
"_. c #868956",
"`. c #8D9653",
"'. c #959B56",
"]. c #91AD4D",
"[. c #97A759",
"{. c #A9B64F",
"}. c #858A70",
"|. c #90AC6F",
" X c #A5AC6C",
".X c #8DCE4D",
"XX c #B6D352",
"oX c #A9EB4C",
"OX c #B5D16E",
"+X c #B5EC6B",
"@X c #C7DB46",
"#X c #D3DB48",
"$X c #C7D450",
"%X c #C7E647",
"&X c #D7E745",
"*X c #DBF948",
"=X c #CDF255",
"-X c #DAF657",
";X c #E5E845",
":X c #E8FC47",
">X c #F7FC49",
",X c #E9FC55",
"<X c #F6FD56",
"1X c #FCFF5C",
"2X c #C7D96F",
"3X c #D3F26D",
"4X c #DBF678",
"5X c #E5FA6A",
"6X c #FDFF64",
"7X c #F7FE68",
"8X c #E6F976",
"9X c #F9FE76",
"0X c #878786",
"qX c #929290",
"wX c #9CAF96",
"eX c #A7AB88",
"rX c #ACB28D",
"tX c #A7A899",
"yX c #A9AAA8",
"uX c #ABB8A6",
"iX c #B5BAA5",
"pX c #A7D093",
"aX c #B6EE8A",
"sX c #B7CBB2",
"dX c #BAE7B0",
"fX c #D0D695",
"gX c #D0ED8E",
"hX c #E9FC8A",
"jX c #FBFD87",
"kX c #FCFF98",
"lX c #CFD8AF",
"zX c #D0F0AF",
"xX c #E8F2AF",
"cX c #FCFEA4",
"vX c #F8FDAB",
"bX c #FAFCB6",
"nX c #D7DDC6",
"mX c #D1EED0",
"MX c #DAE8D7",
"NX c #EAF4CE",
"BX c #F8FCC6",
"VX c #FDFDCC",
"CX c #FAFCD8",
"ZX c #FEFFDC",
"AX c #D5F5E4",
"SX c #E4ECE4",
"DX c #E9FBE6",
"FX c #FEFEE4",
"GX c #F3F6E9",
"HX c #FDFEEC",
"JX c #E8FCF7",
"KX c #F5F5F4",
"LX c #FDFEF4",
"PX c #F3FCF8",
"IX c #FEFFFE",
/* pixels */
"3 3 2 2 2 2 2 2 3 < < 2 2 2 3 2 2 3 2 3 2 2 2 2 2 2 2 2 2 2 2 2 3 3 2 3 3 2 2 2 < 2 2 2 2 2 3 2 2 2 2 2 3 3 B 3 B 3 3 3 3 3 3 3 ",
"3 3 3 3 3 2 3 3 3 3 3 2 < 3 2 3 3 2 3 3 3 3 3 2 2 2 2 3 3 3 3 3 3 3 3 3 2 2 2 2 < < < 2 < 2 2 2 2 2 2 2 2 2 3 3 B 3 3 3 B B B 3 ",
"3 2 B 3 3 2 3 3 B 3 3 2 2 3 3 3 3 3 3 3 3 3 3 2 2 2 3 3 3 B 3 B B B 3 3 3 2 2 2 2 < 2 2 2 2 2 2 2 2 2 2 < 2 3 3 C 3 2 3 3 C 3 3 ",
"3 2 2 2 3 3 3 2 3 2 3 2 3 3 3 3 B B B B 3 3 3 B 3 3 B B C C C C C C C B B 3 3 2 2 2 2 3 3 3 3 B B 3 3 2 < 2 2 2 2 2 < 2 2 2 2 3 ",
"3 3 3 3 3 B B 3 3 3 3 2 3 B 3 B B B B 3 3 q 3 q 3 B C B C B B C C C C B 3 q 3 2 2 2 2 2 3 3 3 B 3 B x < < 2 2 < < < 2 2 2 2 3 3 ",
"B 3 B 3 3 3 3 3 B 3 3 B ).` m V x 3 3 3 q B F } eXyXyXiXtXyXyXtXyXyXyXyXyXyXyXyXyXyXyXyXyXtXtXeXeX X).N 0 2 2 < < < , 2 2 2 3 B ",
"3 3 B B 3 3 3 2 3 B x 3 j.h * o         . 5 ] xXIXIXIXIXPXIXIXPXMXPXIXIXIXIXIXIXIXIXLXLXbX XXX8X9XC.^ 5 x 2 2 3 2 2 < < 3 3 B 3 ",
"B B C 3 B 3 3 B B B B 3 J N .         . % ' hXLXKXSXLXLXsXIXIXIXKXmXKXIXIXIXIXIXLXFXNXxX9Xl.@.Q.F.O.6 - c 2 2 3 3 < 2 < 3 B 3 B ",
"3 3 B 3 3 B 3 B B 3 B 3 C Z ,       . % T gXLXHXfX}.gXkX|.AXPXIXIXsXsXIXIXIXIXCXvX3X1.&.A.A.Q.!.m.p $ 5 ` < < < 2 < 2 < 2 2 2 3 ",
"3 2 2 B B 3 3 2 2 B B B 2 C 3 , . o ; T +XCXLXbXOX.Xl.h.' +XDXIXIXNXuXPXIXLXbXOXn.s.W @.H.*X#X/.z o % O.H 2 2 < < 2 < 2 < < 2 3 ",
"3 3 3 3 B 3 B B B 3 B B 3 2 C 3 1 8 ~ oXbXIXHXcX3Xs.0.R ~ U.NXIXIXLXuXJXLXZXhXf.w.#.! ..:.x.6.6.&   Y p.c < < < < < < 2 < 2 2 3 ",
"2 2 2 2 2 3 2 2 2 2 < 3 2 2 3 B q ^ oXvXHXIXZXBX/.B.w.W d.a.hXLXIXLXAXDXlXxX8Xe.+.l 5.:.-.=.6.y   * q.o.x 2 c H m v 1 , , , < 2 ",
"< < < 3 3 A v v B 3 < 2 3 B 2 2 B H vXHXIXLXHXVX!.B.N.b.Z.i.=XPXIXIXJXAXlXcX<Xr.| l.J.4.,.6.j X   d e.:   : f.,. .n.).2 2 < < < ",
"2 2 < 2 3 [ z N Z C 3 3 2 3 3 2 2 C 0XKXIXLXIXFX/.V.V.A.F.a.=XDXIXIXJXAXCXVX,Xp.,.%XL.R.R.#.=   * O.h . & $.f.@.E.:X[.2 2 2 2 2 ",
"< 2 2 2 3 '.R.K.{.G B 3 2 3 3 3 2 2 C qXKXIXIXHX9XQ.S.D.D.S.7XLXIXIXIXAXnXLX7XB.k.,X:X:XL.i . o Y W + + >.v.f.E.:X:X`.3 2 2 2 2 ",
"2 2 < 2 3 '.:X~.6.XXK B B 3 3 3 3 2 < C qXKXIXIXVXvX1XG.D.!.cXIXIXLXIXJXKXIXkXA.E.<X<X<X6.# X 8 Y & # >.T.k.E.*X,X:X`.2 2 2 2 2 ",
"< 2 < 2 B [.J.%.! a 3.H B B 3 3 2 3 2 2 C 0XKXIXIXIXHXbXjXkXVXLXHXVXLXJXJXIXZXQ.Q.6X6X>Xz X - 8 + & 8.R.H.h._ 8.:X<X[.2 3 2 2 2 ",
"2 2 < 2 B (.j y : * : M G B B 2 3 3 3 2 2 C P KXIXIXIXLXLXFXVXbXvXNXLXIXAXLXIXbXG.>X1XR.r % - + 7 @XR.5...r t 2.-X<X[.3 3 2 2 2 ",
"2 2 < 3 x J w @ o X o = ` K B B 3 3 2 2 < 2 B P KXIXIXIXLXZXvXkX2XsXIXIXSXsXKXIXcXS.Y.M.8 9 5 k ;XL.X.z y t n 3.*X:X[.3 3 2 2 2 ",
"2 2 2 2 3 H @ .       = ( =X_.B B 2 3 2 3 < < 3 P KXIXIXIXFXcX9X2XdXIXIXPXuXiXKXIXkXE.P.E E l.<XL...k y 4 : u =.@X%X[.B 3 2 2 2 ",
"2 3 2 2 3 F X         * >.*X$X).B B 2 2 3 3 2 < 3 0XKXIXLXZXkX6X5XdXMXSXLXSXuXsXMXIXVX9XA.H.;XJ...b i l k b u M 7.,.(.B 3 2 2 3 ",
"3 2 < 3 B S           * <.K.J.1.G C 3 2 2 3 3 < < 2 0XKXIXVX9X>X7XaXwX}.sXPXKXSXMXGXLXbX!.t.X.I k b _ 8.;.l i b ( *.G B 3 3 3 2 ",
"3 2 2 B C x           - l.*XI.0.gXP C B 2 3 3 3 2 < 2 P HXkX>XS.b.+X|.H }.nXIXIXLXGXIXVX^.r.6...I z 3.9.5.I b u k *._.B B 2 2 3 ",
"3 3 3 B C B           & l.<X/.Q.NXKXP B 3 3 3 2 2 2 < 2 G -XV.p.Y ) +XpXnXIXLXCXxX_.[.$XF.V.%.*.I ;.,.,.4.:.k 4 t w J B B 3 3 3 ",
"B 3 3 B C B = 7 > .   O 3.6X!.1XAXiXxX0XB 3 3 2 2 2 < < 3 m &.W p 8 p ].aXfXgXXX2X2X8.k.r.Q.H.#.,.,.8.5.4.5.*.b 4 > Z B 3 3 3 3 ",
"3 B 3 B C J ,.1.1.r . . g &XQ.hXLXMXSXKXqXB 2 2 3 2 2 < < 2 v ( e w 6 e Y Y 0.e.^.^.Q y.S.Q.>X6.*.f i ( 2.h.6.,.( i G B B 2 3 3 ",
"B 3 3 C C H = * r =.f   @ Q 0.XXnXGXIXIXKXqXB 3 2 3 3 2 2 < 3 F M t : w Q >.h./.!.V.E ~ V.A./.R.5.*.i k l.x.@XK.x.x.'.C B 3 3 3 ",
"3 B 2 C C V % % o # z ! o # p ) H }.sXIXIXKXP B 3 2 2 3 2 2 < 3 v b 4 i =.( ;.%X;XF./ T N.S.k.!.P.z.5.l.-X,X:X*X:XT.`.C C 3 3 3 ",
"3 3 3 C D V 9 E T 5 O Q 0.8 $ s OX|.pXuXPXLXVXK B B 2 3 3 2 2 2 3 c v ( =.l ( l.;XQ.q.^ u.S.e.p.G.!.^.,X6X1X1X>X6.z S B B 3 2 3 ",
"B 3 2 C C B $ ; p E * 5 w.a # ~ W.>XQ H [.OX1XE.v 3 3 2 2 3 3 2 2 3 x ` ( *.( >.J./.i./ ^ y.S.o.o.C.I.;X1X6XL.z : X B D C 3 3 3 ",
"3 3 3 C D A o X @ 6 @ 8 j.& X W Y.G.M.^ ^ o.r.p.2.v x 3 2 3 2 3 < 2 3 Z ).#.z ( 2.>XA.q.T s &.V.r.+.r.Q.~.H.i X O u `.B B 3 3 3 ",
"B 3 2 B C [ p - X o o Q j.    g >.9.~.t. .M.C.j.5.{.J 3 3 3 3 2 3 2 < 3 F =X .Q >.J./.a.] T u l %.m.m.r.+.a $ 6 / s.H C C 3 3 B ",
"B 3 3 B B ].t.W 5 % 8 $.5.    : u i ..k b :.~.~.&X%X-XG B B 3 2 2 3 2 < 2 J @X$._ =.;XQ.B.d.0.W g s d s 8 % 9 q.Z.+.F B B 3 3 B ",
"3 3 3 C C [ ..! e 9 T s.4.    7 h R k t i k :.J.W.*X>X-XG 3 B 3 2 3 2 < < 2 H %Xa k ,.>X/.F.S.B.u.O.d ; # % p q.U.t.G x B 3 3 3 ",
"B B 3 B C G w : 5 p / v.|     u z.W.k.@.>.6.&.K.*X,X<X,X5XG B 3 3 2 2 2 < , < N 8.e l 8.7X1X>X/.F.w.d * X o 7 f.W.6.N B B 3 3 3 ",
"3 3 3 C C Z o # 8 ~ d.M.k . . 7 n.6X:XE.*X>X<X,X<X,X6X<Xx.7.v B 3 2 2 2 2 , , 2 m >.u i g ;.$X>X/.%.w X . X i 3.H.#.H B B 2 3 3 ",
"3 3 3 B C B + 5 T q.U.%.: O   ; l.7X1X<X1X<X6X6X7X1X>XH.h h ,.M B 2 2 2 2 2 , , 2 N 3.a y r k | #.| =     X g z.j.o.} C B 2 3 3 ",
"3 3 3 B C V % E g.y.#.j @ @ X = >.*X6X>X<X6X1X1X:X/.G.D.S.N.N.Y.;.3 2 2 2 2 2 < < 2 J n.@.W | W j e O     = 1.P.w.0.J D C 3 3 3 ",
"3 3 3 B C F <.j...k y : O @ o = Y b.:X/.W.>X/.F.S.G.>X9X9X6X>X!.~.(.B 3 2 3 2 2 2 < 3 (.,X^.R.T.t.a +   . u $.o.h 6 V D B 3 3 2 ",
"3 B 3 B D [.5.j = @ @ @ O @ O O p f.W.!.Z.F.D.G.jXZXHXLXLXHXFXBXcX9XU B q 2 2 2 2 2 < 3 K 9X6X6X;X .& o $ 8 6 @ .   C D B 3 3 3 ",
"3 B 3 C D (.y @ .   . = = + @ X ; ^ b.!.B.B.D.kXLXIXIXIXIXIXIXLXVXvXVXP B 3 2 2 3 3 2 2 3 K 9X1X/.+.8 5 5 - = t *.h.[.C B 3 3 3 ",
"3 3 3 B B S X       O : t = @ X @ d e.Q.A.i.:XVXLXIXIXIXIXLXHXbXvXVXIXKXP 2 2 2 2 3 3 < 2 3 Z I.F.d.] O.e.%X<X<X#Xj.'.D C 3 3 3 ",
"3 2 3 B B B         # u g 7 @ O . 7 @.v.S.u.oXxXLXIXIXIXLXBXfXfXNXIXIXIXKX0XB B 2 3 2 2 < < 2 G vXcX6XG.I.5.-.k r y G D C 3 3 3 ",
"3 3 2 B B 3       O : g ( f & @ . & Y t.S.a.' ].lXIXIXIXHXxXlXGXIXIXIXIXIXKXqXV B 2 3 3 2 < < 2 0XGXbX/.V.y.:.*.z ( K B B 3 3 3 ",
"3 3 2 3 3 x     o : g ' 1._ : # O o 8 R +.D.s.Q { zXPXIXHXNXLXIXIXIXIXIXIXLXNXP D B 3 3 2 3 2 < 2 }.gXG.Q.>X<X:X&XH.'.B 3 3 3 3 ",
"3 3 2 3 3 V + > a _ 3.n.v.&.j ; - O * 9 d o.G.T.) |.MXIXLXHXIXIXIXIXIXIXFXlXrXiXL D B 2 3 3 2 2 2 B m #.| ..-.4.%.! G 3 3 2 2 3 ",
"2 3 2 3 q m d ^ q.b.v.Z.Z.Z.0.a - 5 $ % 5 p o.!.P.) OXCXFXLXIXIXIXIXIXIXZXNXGXIXKX0XD B 3 B 3 B 3 2 B 3 1 # + @ & * Z B 3 2 3 2 ",
"2 2 < 3 B A - 5 6 6 6 6 e p R d 8 5 5 $ + ; 9 @.Q.v..XzXVXDXIXIXGXnXIXIXLXIXIXIXIXCXP C 3 3 3 3 3 2 < B 0 c @ X     3 3 3 2 3 2 ",
"2 2 < B 3 (.k t > = & # + O o o o # $ % + # 5 d e.S.d.+XkXDXIXHXxXmXIXIXIXIXIXIXHXbXxX0XB 3 3 3 3 3 < 2 3 N 3. .f * 3 2 3 2 2 2 ",
"2 2 < 3 B U 9.9.8.7.7.7.2.2.=._ h e 5 % % $ % 9 / V.B.n.3XDXZXvXfXMXIXIXLXIXIXLXZXbXCXgX[ B 3 2 3 2 2 < < 2 v ` 1.h.v 2 2 2 2 < ",
"< < < 2 3 K j k b b b M M ;.7.9.-X&X$.a 5 5 $ 9 q.S.B.i.%XxXgX3XOXmXDXIXDXJXIXFXBXcXgXz.<.v B 3 2 2 < 2 < < 2 3 n z.J 3 2 < 2 < ",
"< < < 3 B '.&X#X@XK.9.2.*.k u y f 7.>Xh.d 5 % 9 q.F.C.0.n.+X#XOXNXzXmXIXDXmXIXFXkXhX5Xf.Y b 2 x 3 < 2 3 2 < 2 B x 9.G 3 3 2 < < ",
"3 2 3 2 3 x S S S G H `.9.#X&X-.t i 2.>X$.8 5 9 d.!.A.o.u.0.P.hXVXaXdXHXNXdXDXZXjX3X,X' 8 O , < 3 3 2 2 2 3 3 3 3 3 B 2 2 2 2 3 ",
"2 3 3 3 3 < 3 2 3 3 2 B * : ( #Xj.f ( #XU.d 5 T A./.Y.O.i.r.F.3X3XXXaXBXbXpXzXVX9X5XW.Y - o X c J B 3 2 2 2 2 2 2 2 2 3 3 3 2 2 ",
"2 3 3 3 3 3 3 3 B B 3 F u > O i #Xj.! 8.^.^ 8 / Q./.M.e.Y.F.S.g.XX&XoX+XcXaXaXvX7X,Xv.e # o X Q $Xm B 2 2 2 2 2 B 2 3 3 3 3 3 2 ",
"2 3 B B 3 3 3 B C 3 2 x w k u O ( ;Xf.<.I.r.Y i.!.Q.A.U.Y.G.p.<.-XF.c.g.9XhXaXjX,X:X$.5 O   O >.z.M 2 3 2 2 2 3 B 3 3 2 2 B 3 3 ",
"3 < 2 3 2 3 3 < 2 2 2 3 + + l 6 = %XR.g.r.B.c.B.S.D.V.F.Z.D.d.b.F.S.a.u.I.5XgX7X:XW.Y - .   O _ j.e 1 2 2 2 2 2 3 2 3 2 2 3 3 2 ",
"3 3 < < 2 3 3 2 2 2 2 3 $ - - | O >.>XZ.p.Y.8X*XF./.^.G.a.W.5XT.p.V.V.O.s.5X4X*X^.f.p $       g j.@.5 > 2 3 2 < 3 3 3 3 2 2 2 2 ",
"3 2 3 3 3 2 3 3 3 2 2 0 x x x H x S '.].[. XtXtXtXyXyXtXeXeX X`.2.2.[ [ ].[.].{.[.[ G A B B B V H ).[ S 3 2 3 3 3 B B B B 3 3 3 ",
"3 3 2 2 2 2 2 3 3 < < < < < 2 < 2 3 2 2 2 2 < 2 3 3 3 3 q B B B 3 B B C C B B B B C C B B B B B B 3 3 2 2 3 3 3 3 B B B B B 3 3 ",
"3 3 B 3 2 2 3 3 3 2 < < < < < < 2 2 2 2 2 < 2 2 2 2 2 2 2 2 3 3 2 3 3 3 3 3 2 3 3 B 3 3 3 3 B 3 3 3 2 2 < 3 3 B C B B B B B 3 3 ",
"3 2 B < < 2 < 2 2 < < < , < < < < < < < < < < < < < < < < < < < < < < 2 < 2 < 2 2 2 2 < 2 2 < 2 < < < < 2 3 3 B B B B B 3 B 3 3 ",
"3 < < < 2 < 2 < < < < < < 2 2 3 2 2 2 3 2 < 2 2 2 2 2 2 < 2 2 2 2 2 2 2 2 3 3 3 3 3 3 2 3 2 2 2 2 2 3 2 3 B 3 3 3 B B 3 2 2 2 3 ",
"B 3 2 3 3 2 2 3 3 < < 2 2 2 2 2 3 2 2 2 2 2 2 2 2 2 2 2 2 2 2 2 3 3 2 3 3 2 3 2 2 2 3 3 3 2 3 2 2 2 2 2 B B B B B B B B 3 3 B 3 "
};
