/* XPM */
static char *_5b1057340d24b20e43e1ee5bbada8f5[] = {
/* columns rows colors chars-per-pixel */
"64 64 256 2 ",
"   c #1D1D1D",
".  c #101010",
"X  c #282828",
"o  c #383837",
"O  c #2C4300",
"+  c #344C01",
"@  c #394F03",
"#  c #354A06",
"$  c #365101",
"%  c #3C5502",
"&  c #3E5901",
"*  c #3D540A",
"=  c #3F5A0B",
"-  c #3D5120",
";  c #405604",
":  c #425D01",
">  c #445C0C",
",  c #485F0F",
"<  c #43570F",
"1  c #424E1E",
"2  c #405612",
"3  c #445A12",
"4  c #4A5D19",
"5  c #465A18",
"6  c #466201",
"7  c #496503",
"8  c #4C6A04",
"9  c #47610B",
"0  c #4B650B",
"q  c #4E6A0A",
"w  c #476800",
"e  c #516E05",
"r  c #526D0B",
"t  c #4F7000",
"y  c #537204",
"u  c #5B7A03",
"i  c #55730C",
"p  c #5A760D",
"a  c #5C7A0C",
"s  c #4C6412",
"d  c #4C641A",
"f  c #4B6514",
"g  c #516515",
"h  c #526C13",
"j  c #52661D",
"k  c #536B1E",
"l  c #586E1A",
"z  c #557113",
"x  c #5A7413",
"c  c #5C7A13",
"v  c #57721A",
"b  c #59721B",
"n  c #5E791A",
"m  c #577810",
"M  c #60751C",
"N  c #627C1C",
"B  c #647D15",
"V  c #495D28",
"C  c #515C2D",
"Z  c #4F6522",
"A  c #4E612A",
"S  c #516424",
"D  c #556C23",
"F  c #586D25",
"G  c #54692B",
"H  c #5D7522",
"J  c #5D7329",
"K  c #597524",
"L  c #4D6130",
"P  c #596936",
"I  c #5F7332",
"U  c #5D723A",
"Y  c #627524",
"T  c #637B25",
"R  c #647A2C",
"E  c #667A2D",
"W  c #657B33",
"Q  c #65753C",
"!  c #6A7D3A",
"~  c #434343",
"^  c #4B4B4B",
"/  c #515151",
"(  c gray35",
")  c #5E674C",
"_  c #636E48",
"`  c #6A7846",
"'  c #61615F",
"]  c #707951",
"[  c #6F706B",
"{  c #71726D",
"}  c #6E7470",
"|  c #797979",
" . c #747673",
".. c #64810A",
"X. c #69860F",
"o. c #638113",
"O. c #66831C",
"+. c #6A851B",
"@. c #6D881F",
"#. c #77951B",
"$. c #668423",
"%. c #6A8525",
"&. c #6D852A",
"*. c #6E8B27",
"=. c #728B2E",
"-. c #72812E",
";. c #6C8234",
":. c #6D8339",
">. c #6D883B",
",. c #738B34",
"<. c #758B3A",
"1. c #77863A",
"2. c #7A9336",
"3. c #7C9B34",
"4. c #7C933C",
"5. c #78982D",
"6. c #6F8245",
"7. c #6D824A",
"8. c #758545",
"9. c #758D42",
"0. c #7B8D4C",
"q. c #7A8C46",
"w. c #7E924A",
"e. c #7E994A",
"r. c #7D8A5A",
"t. c #7A8654",
"y. c #7F9259",
"u. c #758561",
"i. c #829C3B",
"p. c #899F3A",
"a. c #88A13B",
"s. c #819643",
"d. c #849C43",
"f. c #839C4A",
"g. c #899D4F",
"h. c #869A46",
"j. c #828F59",
"k. c #829255",
"l. c #85925B",
"z. c #8B9C58",
"x. c #909C5E",
"c. c #8BA943",
"v. c #8AA448",
"b. c #93AB4D",
"n. c #8CA452",
"m. c #8FA857",
"M. c #91A657",
"N. c #94AA54",
"B. c #97AD5A",
"V. c #9AB255",
"C. c #9DB85D",
"Z. c #9BB856",
"A. c #A1BB5A",
"S. c #838E68",
"D. c #869565",
"F. c #899964",
"G. c #869466",
"H. c #858E73",
"J. c #8E9C76",
"K. c #929E73",
"L. c #929D7B",
"P. c #8DA16A",
"I. c #96A569",
"U. c #97A867",
"Y. c #9CB565",
"T. c #99A773",
"R. c #9BAC75",
"E. c #9BA47A",
"W. c #96A479",
"Q. c #A4BA66",
"!. c #A3BB6D",
"~. c #A4AD7E",
"^. c #A3B474",
"/. c #AABC7D",
"(. c #A9BD79",
"). c #B1BD7F",
"_. c #A5C35B",
"`. c #AFCA61",
"'. c #ADC379",
"]. c #B3CB78",
"[. c #B6D06A",
"{. c #C1D67B",
"}. c gray53",
"|. c #939393",
" X c #9D9D9D",
".X c #9AA583",
"XX c #9CAA81",
"oX c #9CA98B",
"OX c #9AA390",
"+X c #A1AD82",
"@X c #A1AA8B",
"#X c #A3B383",
"$X c #AABA84",
"%X c #AEBC8D",
"&X c #AAB588",
"*X c #B0BD85",
"=X c #A1A19F",
"-X c #ADB896",
";X c #B1BE93",
":X c #ABB3A2",
">X c #B3B7AC",
",X c #AFB3B6",
"<X c #B9BBB4",
"1X c #BCBCBB",
"2X c #B7BBBE",
"3X c #B4C38C",
"4X c #B7CA89",
"5X c #B7C688",
"6X c #BDD683",
"7X c #B9C595",
"8X c #BDCF99",
"9X c #B8C69B",
"0X c #BED096",
"qX c #BCC6A5",
"wX c #BFD0A3",
"eX c #BCC3B5",
"rX c #C5D58C",
"tX c #C1CF9B",
"yX c #CBDC94",
"uX c #C2D19C",
"iX c #C9D999",
"pX c #D2E997",
"aX c #C4CCAC",
"sX c #C4D4A3",
"dX c #CAD5A5",
"fX c #CDDAA4",
"gX c #CCD9AB",
"hX c #C4CCB4",
"jX c #C1CAB9",
"kX c #CBD5BA",
"lX c #D1DDB2",
"zX c #D4DEBC",
"xX c #D6E9A7",
"cX c #DBEBB4",
"vX c #D7E6B8",
"bX c #E1F7AE",
"nX c #E2EDB3",
"mX c #E4F3B3",
"MX c #EAF9B9",
"NX c #C9C9C6",
"BX c #CFD4CE",
"VX c #D7D9D1",
"CX c #DDE6C9",
"ZX c #E3EBCB",
"AX c #F2FDCB",
"SX c #E1EADA",
"DX c #EAF2DD",
"FX c #F6FED9",
"GX c #FAFFE4",
"HX c #FBFFEE",
"JX c #F4FCE7",
"KX c #FBFFF2",
"LX c #FBFFF9",
"PX c #F4FCF1",
"IX c #E8EDE7",
"UX c None",
/* pixels */
"UXUXUXUXUXUXUXUXUXUXUXUXUXUXUXUXUXUXUXUXUXUXUXUXUXUXUXUXUXUXUXUXUXUXUXUXUXUXUXUXUXUXUXUXUXUXUXUXUXUXUXUXUXUXUXUXUXUXUXUXUXUXUXUX",
"UXUXUXUXUXUXUXUXUXUXUXUXUXUXUXUXUXUXUXUXUXUXUXUXUXUXUXUXUXUXUXUXUXUXUXUXUXUXUXUXUXUXUXUXUXUXUXUXUXUXUXUXUXUXUXUXUXUXUXUXUXUXUXUX",
"UXUXUXUXUXUXUXUXUXUXUXUXUXUXUXUXUXUXUXUXUXUXUXUXUXUXUXUXUXUXUXUXUXUXUXUXUXUXUXUXUXUXUXUXUXUXUXUXUXUXUXUXUXUXUXUXUXUXUXUXUXUXUXUX",
"UXUXUXUXUXUXUXUXUXUXUXUXUXUXUXUXUXUXUXUXUXUXUXUXUXUXUXUXUXUXUXUXUXUXUXUXUXUXUXUXUXUXUXUXUXUXUXUXUXUXUXUXUXUXUXUXUXUXUXUXUXUXUXUX",
"UXUXUXUXUXUXUXUXUXUXUXUXUXUXUXUXUXUXUXUXUXUXUXUXUXUXUXUXUXUXUXUXUXUXUXUXUXUXUXUXUXUXUXUXUXUXUXUXUXUXUXUXUXUXUXUXUXUXUXUXUXUXUXUX",
"UXUXUXUXUXUXUXUXUXUXUXUXUXUXUXUXUXUXUXUXUXUXUXUXUXUXUXUXUXUXUXUXUXUXUXUXUXUXUXUXUXUXUXUXUXUXUXUXUXUXUXUXUXUXUXUXUXUXUXUXUXUXUXUX",
"UXUXUXUXUXUXUXUXUXUXUXUXUXUXUXUXUXUXUXUXUXUXUXUXUXUXUXUXUXUXUXUXUXUXUXUXUXUXUXUXUXUXUXUXUXUXUXUXUXUXUXUXUXUXUXUXUXUXUXUXUXUXUXUX",
"UXUXUXUXUXUXUXUXUXUXUXUXUXUXUXUXUXUXUXUXUXUXUXUXUXUXUXUXUXUXUXUXUXUX:XUXUXUXUXUXUXUXUXUXUXUXUXUXUXUXUXUXUXUXUXUXUXUXUXUXUXUXUXUX",
"UXUXUXUXUXUXUXUXUXUXUXUXUXUXUXUXUXUXUXUXUXUXUXUXUXUXUXUXUXUXrXE i.p.b.{.fXUXUXUXUXUXUXUXUXUXUXUXUXUXUXUXUXUXUXUXUXUXUXUXUXUXUXUX",
"UXUXUXUXUXUXUXUXUXUXUXUXUXUXUXUXUXUXUXUXUXUXUXUXUXUXUXUXUXtXs.,.h.M =.M Q UXUXUXUXUXUXUXUXUXUXUXUXUXUXUXUXUXUXUXUXUXUXUXUXUXUXUX",
"UXUXUXUXUXUXUXUXUXUXUXUXUXUXUXUXUXUXUXUXUXUXUXUXUXUXUXUXUX^.4XyXpXU.g Y h.I.UXUXUXUXUXUXUXUXUXUXUXUXUXUXUXUXUXUXUXUXUXUXUXUXUXUX",
"UXUXUXUXUXUXUXUXUXUXUXUXUXUXUXUXUXUXUXUXUXUXUXUXUXUXUXUXUXl.s.q.w.F M Y.g.T.UXUXUXUXUXUXUXUXUXUXUXUXUXUXUXUXUXUXUXUXUXUXUXUXUXUX",
"UXUXUXUXUXUXUXUXUXUXUXUXUXUXUXUXUXUXUXUXUXUXUXUX7XUXUXUXd.V.6XE M z ,.pXQ.E G.UXUXUXUXUXUXUXUXUXUXUXUXUXUXUXUXUXUXUXUXUXUXUXUXUX",
"UXUXUXUXUXUXUXUXUXUXUXUXUXUXUXUXUXUXUXUXUXUXUXUXl.uX+X+X$.$.4.>.n 8 e.f.T B.lXUXUXUXUXUXUXUXUXUXUXUXUXUXUXUXUXUXUXUXUXUXUXUXUXUX",
"UXUXUXUXUXUXUXUXUXUXUXUXUXUXUXUXUXUXUXUXUXUXcXyX(.N.X.....u $.Z.i 7 >.W 7 i.h.mXUXUXUX).k.UXUXUXUXUXUXUXUXUXUXUXUXUXUXUXUXUXUXUX",
"UXUXUXUXUXUXUXUXUXUXUXUXUXUXUXUXUXUXUXZXUXUXI.:.:.h...u u u N $.t t 3 F p 7 g 8.) -X*Xx.x.nXUXUXUXUXUXUXUXUXUXUXUXUXUXUXUXUXUXUX",
"UXUXUXUXUXUXUXUXUXUXUXUXUXUXUXUXUXUXd.Z.Z.[.9.J m c o.t i w w a m e i e y 8 m 6 m w a._.3.c.c._.lXUXUXUXUXUXUXUXUXUXUXUXUXUXUXUX",
"UXUXUXUXUXUXUXUXUXUXUXUXUXUXUXUXeXUXb.b.@.i e.Y.$.5.o.y y 8 t 8 r 7 e 6 8 q w y y m m c m i 3.O.;XUXUXUXUXUXUXUXUXUXUXUXUXUXUXUX",
"UXUXUXUXUXUXUXUXUXUXUXUXUXUXUXUXE./.O.@.m 8 6Xf.8 8 w 8 h h w q 8 & i w w 8 : 8 8 y m 8 i m o.3.a.`.5XUXUXUXUXUXUXUXUXUXUXUXUXUX",
"UXUXUXUXUXUXUXUXUXUXUXUXUXUXUXUXUXq.p @.m o.m.T r 8 8 w w v w w 7 7 w q w q 8 8 8 w m $.8 c m t +.B 0.UXUXUXUXUXUXUXUXUXUXUXUXUX",
"UXUXUXUXUXUXUXUXUXUXUXUXUXUXUXlXaXI.2.q i r f H 7 e 8 w w 7 y w 6 m : 6 6 w e i m q 8 m w c @.i t #.A.U.vXUXUXUXUXUXUXUXUXUXUXUX",
"UXUXUXUXUXUXUXUXUXUXUXUXUXUXUXt.sXR.r N $.w s s 7 8 t u m 7 t t 6 e 7 : & 6 e 8 w w m i e i w i u t %.R %XUXUXUXUXUXUXUXUXUXUXUX",
"UXUXUXUXUXUXUXUXUXUXUXUXUXUXmXw.'.E y `.o.e q 9 6 6 r 7 q i 7 r 0 6 8 0 6 : 8 : w 6 6 8 w m e i r h v.n.^.UXUXUXUXUXUXUXUXUXUXUX",
"UXUXUXUXUXUXUXUXUXUXUXUXUXUXz.-.9.D 8 i 8 6 f q 0 8 6 e r : & 6 e 6 : : 6 & 6 w w w & w i i m z i $.C.R q.&XUXUXUXUXUXUXUXUXUXUX",
"UXUXUXUXUXUXUXUXUXUXUXUXUXUXV.].C.0 r 6 6 r 6 0 e 8 6 0 q 6 & w l & + % 9 : % 6 0 : 7 7 7 8 w w m m e v F sXUXUXUXUXUXUXUXUXUXUX",
"UXUXUXUXUXUXUXUXUXUXUXUXUXlX=.g.].$.c e 6 7 ; % : 6 7 8 9 q q & 0 % : 9 6 9 : & 7 6 0 e 7 8 w w 8 8 7 n :.8XqXUXUXUXUXUXUXUXUXUX",
"UXUXUXUXUXUXUXUXUXUXUXUXUXF.8 n T R q 9 0 7 7 0 6 8 7 7 r e w : 9 $ : 0 0 h q : 6 0 6 0 q 7 0 q m i t a O.Q.k.UXUXUXUXUXUXUXUXUX",
"UXUXUXUXUXUXUXUXUXUXUXUXUXT.%.m b 0 r 0 q 0 ; : 6 8 6 6 e w w w v : : 9 0 0 6 : 7 r 0 q 7 6 w q 8 q y a c s.x.UXUXUXUXUXUXUXUXUX",
"UXUXUXUXUXUXUXUXUXUXUXUX7XD 4.$.t t 8 6 w 6 e % @ ; ; ; ; 0 k 9 7 ; ; % 6 r 9 r 0 e 6 8 8 6 e z 8 w 8 8 y p M.UXUXUXUXUXUXUXUXUX",
"UXUXUXUXUXUXUXUXUXUXUX.Xy.;.R c.a i O.e r q : 0 6 0 0 , : ; & & : r r ; 6 h 0 0 6 7 6 6 7 7 i m w f w +.8 a.s.;XUXUXUXUXUXUXUXUX",
"UXUXUXUXUXUXUXUXUXUXUXG.'.B.H v.+.w 9 v v & : : 6 0 6 6 0 6 6 r ; 8 e 6 0 i y r 7 7 w 6 6 7 w 8 t w y v 9.tXwXUXUXUXUXUXUXUXUXUX",
"UXUXUXUXUXUXUXUXUXUXUXK.bXm.9 7 e m q 9 q 0 9 6 : 9 6 : : 7 r 7 6 ; % 7 7 6 7 8 8 7 8 7 7 e i 8 t t t h w.R.J.UXUXUXUXUXUXUXUXUX",
"UXUXUXUXUXUXUXUXUXUXUXFXGXF.i u D >.@ = 9 0 7 e s % > 9 9 > > $ : 8 Z 2 6 6 & 0 0 6 e v 0 x e h J k q m y B B -.7XOXUXUXUXUXUXUX",
"UXUXUXUXUXUXUXUXUXUXUX.XvX` 6 8 d f d > & > : & , s ; h f $ * > e 6 Z Z : 6 v b : e : 0 6 =.v r E 9.r r e a p h.fX:XUXUXUXUXUXUX",
"UXUXUXUXUXUXUXUXUXUX+XI.g.l N x : w d > K s $ < $ O 9 % & & $ m z @ S I D h 6 8 7 : , s g g 6 6 q h 6 y y y Y.! 4XdXUXUXUXUXUXUX",
"UXUXUXUXUXUXUXUXUXqXvXMXm.h v e w w O % , ; > * < % % > : 6 i w 8 ; * 4 D > w e 6 9 s h s v t t 7 0 e i t e !.k.W l.UXUXUXUXUXUX",
"UXUXUXUXUXUXUXUXUXE.^.1.*.e b 8 w q f >.< @ j g : % 3 d 7 7 w : % = 6 & s 9 6 7 9 % 6 y 6 7 6 : 6 i 9 K r 0 H s.;.*XUXUXUXUXUXUX",
"UXUXUXUXUXUXUXUXUXAXiXY e N h 9 z 7 g f * < * g : : * < 6 % 6 0 , , : 7 f % 6 : % : y 8 8 7 i : t w f b 0 h 2.Y <.UXUXUXUXUXUXUX",
"UXUXUXUXUXUXUXaXuXFXT.C K T $.H J D b 7 7 e < 3 l s + + L L D s 0 % 6 r d D : 6 i e 0 h r h h h 8 x Y ; s >.d.i.t.UXUXUXUXUXUXUX",
"UXUXUXUXUXUXUXUXj.7XcXuXE b >.q D R : & 6 6 < * < < s @ - P D % , 6 7 6 * F : 9 7 8 : % &.2.&.9 0 i K m.f f.C.2.R.CXUXUXUXUXUXUX",
"UXUXUXUXUXUXUXUXT.x.HXHX^./.D.W.9Xu.e p ; R <., 1 V , + * * % : j O ; 0 0 9 h 0 b * U P.D E Y g 7 6 q H A cX5X6.z.^.t.UXUXUXUXUX",
"UXUXUXUXUXUXUXUXUXAXSXJXk.` sXUXoXJ._.p J (.:.O F.^.* < < d ,.h 5 O $ b h =.N : h T U 7.<.;.:.D z : N Y.A 8X(.^.xXmX3XUXUXUXUXUX",
"UXUXUXUXUXUXUXUXUXhXH.HXzX] UXUXUXSXT g >.< Y g #X` 7 x ] _ b.l ; g j , ; n J + : n =.r 9 N ZX@X8.8.:XLXhX.X] lXUXUXUXUXUXUXUXUX",
"UXUXUXUXUXUXUXUXUXUXUXUXUXUXUXUXUXjXR g j 5 -.;.$X$X7 % K.%XN M M , , ].N.% J F 0 2.h v r &.FXUXyXmXSXPXHXaX#XFX@XUXUXUXUXUXUXUX",
"UXUXUXUXUXUXUXUXUXUXUXUXUXUXUXUX&Xj.DXhX.XU M p kXKXG.j.;Xj.jXBXC 1 E.K.4.h : c ! 5XR.tXw.F l.gXUXeX` &XfXUXUXUXaXUXUXUXUXUXUXUX",
"UXUXUXUXUXUXUXUXUXUXUXUXUXUXUXUXUXcXUXUXUXcX6 p.KXDX-XgXl.&XLXIXfXC E._ T x @.a.(.A 7.k.z.rXS +XUX<X~.` r.UXUXUXUXUXUXUXUXUXUXUX",
"UXUXUXUXUXUXUXUXUXUXUXUXUXUXUXUXUXUXUXUXUXUX{ >XHXL._ G.VXKX;XC JX| ,XUXqXQ Q cXUXOX/.4 uXUXUXUXUXUXUXUXUXUXUXUXUXUXUXUXUXUXUXUX",
"UXUXUXUXUXUXUXUXUXUXUXUXUXUXUXUXUXUXUXUXUXUXUXUXUXUXUXUXUXVXdXK.UX .1XUXUXtXI 0.UXUXmX^.k.S.UXUXUXUXUXUXUXUXUXUXUXUXUXUXUXUXUXUX",
"UXUXUXUXUXUXUXUXUXUXUXUXUXUXUXUXUXUXUXUXUXUXUXUXUXUXUXUXUX{ UXUXUX{ UXUXUXUXUXUXUXUXUXUXUXUXUXUXUXUXUXUXUXUXUXUXUXUXUXUXUXUXUXUX",
"UXUXUXUXUXUXUXUXUXUXUXUXUXUXUXUXUXUXUXUXUXUXUXUXUXUXUXUXUXUXUXUXUX{ 1XUXUXUXUXUXUXUXUXUXUXUXUXUXUXUXUXUXUXUXUXUXUXUXUXUXUXUXUXUX",
"UXUXUXUXUXUXUXUXUXUXUXUXUXUXUXUXUXUXUXUXUXUXUXUXUXUXUXUXUXUXUXUXUX' >XUXUXUXUXUXUXUXUXUXUXUXUXUXUXUXUXUXUXUXUXUXUXUXUXUXUXUXUXUX",
"UXUXUXUXUXUXUXUXUXUXUXUXUXUXUXUXUXUXUXUXUXUXUXUXUXUXUXUXUXUXUXUXUXo =XUXUXUXUXUXUXUXUXUXUXUXUXUXUXUXUXUXUXUXUXUXUXUXUXUXUXUXUXUX",
"UXUXUXUXUXUXUXUXUXUXUXUXUXUXUXUXUXUXUXUXUXUXUXUXUXUXUXUXUXUXUXUXUX~  XUXUXUXUXUXUXUXUXUXUXUXUXUXUXUXUXUXUXUXUXUXUXUXUXUXUXUXUXUX",
"UXUXUXUXUXUXUXUXUXUXUXUXUXUXUXUXUXUXUXUXUXUXUXUXUXUXUXUXUXUXUXUXUX~ |.UXUXUXUXUXUXUXUXUXUXUXUXUXUXUXUXUXUXUXUXUXUXUXUXUXUXUXUXUX",
"UXUXUXUXUXUXUXUXUXUXUXUXUXUXUXUXUXUXUXUXUXUXUXUXUXUXUXUXUXUXUXUXUXo |.UXUXUXUXUXUXUXUXUXUXUXUXUXUXUXUXUXUXUXUXUXUXUXUXUXUXUXUXUX",
"UXUXUXUXUXUXUXUXUXUXUXUXUXUXUXUXUXUXUXUXUXUXUXUXUXUXUXUXUXUXUXUX}.X / UXUXUXUXUXUXUXUXUXUXUXUXUXUXUXUXUXUXUXUXUXUXUXUXUXUXUXUXUX",
"UXUXUXUXUXUXUXUXUXUXUXUXUXUXUXUXUXUXUXUXUXUXUXUXUXUXUXUXUXUXUXUX|   ^ UXUXUXUXUXUXUXUXUXUXUXUXUXUXUXUXUXUXUXUXUXUXUXUXUXUXUXUXUX",
"UXUXUXUXUXUXUXUXUXUXUXUXUXUXUXUXUXUXUXUXUXUXUXUXUXUXUXUXUXUXUXUX}.  ~ UXUXUXUXUXUXUXUXUXUXUXUXUXUXUXUXUXUXUXUXUXUXUXUXUXUXUXUXUX",
"UXUXUXUXUXUXUXUXUXUXUXUXUXUXUXUXUXUXUXUXUXUXUXUXUXUXUXUXUXUXUXUX|.X ^ UXUXUXUXUXUXUXUXUXUXUXUXUXUXUXUXUXUXUXUXUXUXUXUXUXUXUXUXUX",
"UXUXUXUXUXUXUXUXUXUXUXUXUXUXUXUXUXUXUXUXUXUXUXUXUXUXUXUXUXUXUXUX X  ( UXUXUXUXUXUXUXUXUXUXUXUXUXUXUXUXUXUXUXUXUXUXUXUXUXUXUXUXUX",
"UXUXUXUXUXUXUXUXUXUXUXUXUXUXUXUXUXUXUXUXUXUXUXUXUXUXUXUXUXUXUXUX=X. / UXUXUXUXUXUXUXUXUXUXUXUXUXUXUXUXUXUXUXUXUXUXUXUXUXUXUXUXUX",
"UXUXUXUXUXUXUXUXUXUXUXUXUXUXUXUXUXUXUXUXUXUXUXUXUXUXUXUXUXUXUXUX1X| }.UXUXUXUXUXUXUXUXUXUXUXUXUXUXUXUXUXUXUXUXUXUXUXUXUXUXUXUXUX",
"UXUXUXUXUXUXUXUXUXUXUXUXUXUXUXUXUXUXUXUXUXUXUXUXUXUXUXUXUXUXUXUXNXBXBXUXUXUXUXUXUXUXUXUXUXUXUXUXUXUXUXUXUXUXUXUXUXUXUXUXUXUXUXUX",
"UXUXUXUXUXUXUXUXUXUXUXUXUXUXUXUXUXUXUXUXUXUXUXUXUXUXUXUXUXUXUXUX1X<X1XUXUXUXUXUXUXUXUXUXUXUXUXUXUXUXUXUXUXUXUXUXUXUXUXUXUXUXUXUX"
};
