/* XPM */
static char *_473983186e04c06f7e7be78d7559ee8[] = {
/* columns rows colors chars-per-pixel */
"64 64 253 2 ",
"   c #110E0D",
".  c #15120E",
"X  c #1B150E",
"o  c #16180F",
"O  c #1E190F",
"+  c #151411",
"@  c #1B1612",
"#  c #1D1A12",
"$  c #1E1C19",
"%  c #211712",
"&  c #231D14",
"*  c #281C12",
"=  c #2B1D15",
"-  c #231E1A",
";  c #291E1B",
":  c #1F2119",
">  c #252114",
",  c #2A2415",
"<  c #2D2915",
"1  c #25211B",
"2  c #2B231B",
"3  c #2D2B1C",
"4  c #332316",
"5  c #3C2516",
"6  c #342C16",
"7  c #3A2D16",
"8  c #33251B",
"9  c #39261B",
"0  c #332B1C",
"q  c #3B2D1C",
"w  c #363115",
"e  c #3B3515",
"r  c #35321D",
"t  c #3B331D",
"y  c #3F391A",
"u  c #272320",
"i  c #2E2421",
"p  c #2E2A22",
"a  c #342721",
"s  c #342C23",
"d  c #3C2C23",
"f  c #363024",
"g  c #3B3223",
"h  c #3C3A21",
"j  c #393228",
"k  c #432B1B",
"l  c #452918",
"z  c #443616",
"x  c #443C16",
"c  c #44331C",
"v  c #4B341C",
"b  c #433B1B",
"n  c #4B3B1B",
"m  c #51341D",
"M  c #523E1C",
"N  c #412E23",
"B  c #482F22",
"V  c #433324",
"C  c #4B3324",
"Z  c #453B25",
"A  c #4B3C24",
"S  c #463228",
"D  c #493529",
"F  c #463B2A",
"G  c #4B3D2A",
"H  c #523624",
"J  c #553726",
"K  c #533B25",
"L  c #5B3A24",
"P  c #543A2B",
"I  c #5B3D2C",
"U  c #5A3E31",
"Y  c #623D24",
"T  c #683F24",
"R  c #623E29",
"E  c #48421C",
"W  c #4B421C",
"Q  c #504317",
"!  c #54421C",
"~  c #5A431C",
"^  c #544B1C",
"/  c #5B4F1A",
"(  c #5C521C",
")  c #614A1F",
"_  c #63561C",
"`  c #635C1C",
"'  c #64631C",
"]  c #6A621E",
"[  c #474222",
"{  c #4B4523",
"}  c #4E4925",
"|  c #4E412D",
" . c #4E4A2A",
".. c #544423",
"X. c #534B24",
"o. c #5B4C23",
"O. c #53432D",
"+. c #5B422C",
"@. c #544C2A",
"#. c #5B4D29",
"$. c #5C5324",
"%. c #565129",
"&. c #5C542A",
"*. c #5E582A",
"=. c #4E4330",
"-. c #554631",
";. c #5B4331",
":. c #564934",
">. c #5B4B34",
",. c #5C4E39",
"<. c #5F503A",
"1. c #644525",
"2. c #644C23",
"3. c #63432D",
"4. c #6C4428",
"5. c #644B2C",
"6. c #694E2C",
"7. c #734B2B",
"8. c #7B4C2E",
"9. c #625525",
"0. c #6A5426",
"q. c #635A25",
"w. c #6D5B24",
"e. c #64532A",
"r. c #6B532D",
"t. c #625B2A",
"y. c #6E582B",
"u. c #76572B",
"i. c #735D2C",
"p. c #634331",
"a. c #694531",
"s. c #624E36",
"d. c #6B4B32",
"f. c #604F38",
"g. c #625037",
"h. c #6A5534",
"j. c #63533A",
"k. c #69563C",
"l. c #6A593E",
"z. c #785737",
"x. c #6D6323",
"c. c #6E642B",
"v. c #766724",
"b. c #72652C",
"n. c #7C632D",
"m. c #756A2C",
"M. c #7A6D2C",
"N. c #7B7626",
"B. c #7E722E",
"V. c #686832",
"C. c #766A31",
"Z. c #7A6D32",
"A. c #75603F",
"S. c #7D7230",
"D. c #747139",
"F. c #655640",
"G. c #6C5B42",
"H. c #715E44",
"J. c #746246",
"K. c #796445",
"L. c #75634A",
"P. c #79664C",
"I. c #7C694C",
"U. c #7D6C52",
"Y. c #82522F",
"T. c #845331",
"R. c #8A5A34",
"E. c #835C3E",
"W. c #945C36",
"Q. c #866F2E",
"!. c #86772A",
"~. c #85792A",
"^. c #856232",
"/. c #8B6934",
"(. c #926C37",
"). c #986338",
"_. c #946C39",
"`. c #9C6D3C",
"'. c #867839",
"]. c #8D7C3A",
"[. c #967A33",
"{. c #947738",
"}. c #9D7C3B",
"|. c #A8673C",
" X c #A36B3C",
".X c #A4723E",
"XX c #A8753F",
"oX c #845C41",
"OX c #886845",
"+X c #956B47",
"@X c #98754C",
"#X c #907A49",
"$X c #816E53",
"%X c #837155",
"&X c #86755A",
"*X c #897658",
"=X c #A57948",
"-X c #B37E43",
";X c #A77A52",
":X c #907D61",
">X c #8A872A",
",X c #96892D",
"<X c #95942E",
"1X c #938331",
"2X c #978539",
"3X c #999931",
"4X c #A48436",
"5X c #A68935",
"6X c #A4833B",
"7X c #A8873D",
"8X c #AD8C3B",
"9X c #B18F3A",
"0X c #A39334",
"qX c #A59A34",
"wX c #A99A34",
"eX c #AB9D35",
"rX c #B1903E",
"tX c #ABA835",
"yX c #B2A938",
"uX c #B4AA39",
"iX c #B8B63A",
"pX c #BBBB3C",
"aX c #C0C13D",
"sX c #8E8444",
"dX c #918746",
"fX c #958C48",
"gX c #98924B",
"hX c #999953",
"jX c #B68646",
"kX c #BB8346",
"lX c #B78748",
"zX c #B68B48",
"xX c #BA8D4A",
"cX c #A79645",
"vX c #A1994F",
"bX c #BD9B44",
"nX c #B99548",
"mX c #A78758",
"MX c #B38B5B",
"NX c #A49D51",
"BX c #A19F59",
"VX c #B7915F",
"CX c #BEBD41",
"ZX c #A9A75A",
"AX c #B99763",
"SX c #BB9B65",
"DX c #BEA56D",
"FX c #B6B662",
"GX c #B7B763",
"HX c #BABA65",
"JX c #BCBB68",
"KX c #C09D66",
"LX c #C5A96E",
/* pixels */
"G.U.&XJ.-.k.j.:.O.Z q q d G G ,.F.G.G O.j.s.H.F.H.P.K.K.j.l.J.j.l.k.O.l.| >.>.j.G -.f.F ,.,.,.O.A K H.k.s.O.k.k.,.#.-.V c G G q ",
"H.U.&XL.s.F.k.O.-.A g g q G O.,.j.G.G -.l.g.G.k.H.U.OXK.k.G.$Xh.H.s.O.G.| >.:.j.| O.j.| <.j.:.O.O.G l.j.s.O.g.k.s.:.-.V q G G Z ",
"F.U.&XP.Z 0 g 0 d 8 , = 8 2 q s g g 8 8 0 8 d g j V h g d q h 0 V 0 s d < 8 8 6 8 8 0 2 0 a s q s 3 g 0 8 1 0 3 , , 4 * 2 * , 8 ",
"G.U.&Xj ; * 1 = 1 * & O 1 * 1 > 1 & # .   . . @ O ; % . & @ % & & * , = & % O X & O & & & O , 1 2 * 1 & O O + X . X O & > X X * ",
"F.U.F.& 1 * 1 , 1 > > O * > 1 1 > > * b ~.eXtX<Xo.3 [ %.@.r 1 > = , 1 , * & O X * & & & & * ; , 0 1 2 > # O O # . X & < w w < & ",
"j.P.-.; 1 * 2 * 8 8 & & 1 & 2 8 ; * & [ ,XiXpXeX$.3 } t.&.h 3 > * 1 , 1 * & O X > & O & & > = 1 0 1 1 * # # O O X O # < w w < # ",
"j.P.,.} Z.2X'.@.t #.^.^.6.0 * a 9 a , 7 ] >X>XN.E 3 } *.&.h 1 1 s s p 1 L R.}..XT.B 9 P +.H a ; N H P d 2 Z y.^.y.M < y X.X.b < ",
",.P.:.[ b.'.Z.{ < 9 c v q 1 i D I G 9 7 _ ~.>Xv.E 3 } t.%.h 1 1 s s p 1 L R.6X.XT.B N U a.U a ; B I P N 2 c / 0.o.y f #.Z.Z.*.f ",
"j.P.:.w ..^ { r 1 A 2.0.M 2 i D U D d g [.pXaXtX%.3 [ *.%.h : u j j p 1 H T._._.8.c g I a.I a ; V I I N 1 q ! ) M q r @.Z.Z.@.r ",
"<.P.,.@.'.cX].@.t 5.(._.6.a i D U P d g !.tXtX,XX.3 } *.%.h u u s j p $ R  XxXkXW.H a H I C i ; N P I B , q ! ~ M 7 0 @.C.Z.#.f ",
"j.L.:.@.'.cX2X%.g 5./._.r.s i D U P s < Q ` ' / w 3 [ &.%.h : u p s p $ 1. XxXlXW.C @ * * % @ - V P P N 2 +./.4XQ...3 @.C.C.%.r ",
"j.J.:.@.sXbX2X&.g 5.(._.r.8 + * ; % $ & n ` ' / w 3 { &.%.h : u p j p 1 I  XzXjXW.C i B H N 2 2 B I I V 2 e.7XbX7Xr.f X.C.Z.%.r ",
"j.G.=.y *.c.e.Z , q n M c - 2 S U D s 8 Q ' ' / w 3  .t.%.h : 1 j j p u 9 T 7.7.Y 8 d I a.P a ; B I I V 2 e.}.bX7Xe.r @.C.Z.>.3 ",
"j.J.=.r X.w.o.y > 4 7 7 4 & i D ;.P s d N.qXtX,XX.3 } *.%.h : u p j p : c 4.u.u.T 9 d I p.P a $ , 8 9 = ; 2.6XnX6Xe.3 } b.b.%.3 ",
"F.H.:.@.{.cXsX&.3 8 v v q ; i D U P d 0 x.,X<X~.E 3 h %.[ r : u j j p u R  XzXjXW.C d J a.J a ; B I I B 2 A y.n.y.n > < e e < > ",
"G.J.:.%.].cX].&.r 1.^./.5.2 i N P D a w x.,X,XN.E o > > > : + : u u 1 $ R |.xXjXW.B d I a.P a ; d P P d 1 ..n.{.n...: , w w < # ",
"G.J.:.%.].cXsX#.g 5.(._.r.0 @ ; 8 ; & 0 !.iXpXwX( 3  .t.&.h : o $ - $ $ T  XxXjXW.C N U p.H i i Z I I N 2 #.}.rX}.2.& > w w < # ",
"G.J.=. .'.2X'.X.s 5./.(.r.a i D U P a g [.iXiXwX%.3 { &.%.h : u p s p $ R `.jXlXW.C N U a.I a # * 9 8 = O q ..2.! q & < w w < # ",
"F.H.G 1 w e w < 3 5.(.(.r.a u D U D s q !.tXtX0XX.3 } *.%.h : u s j s : R  XkXjXW.C d I a.P i @ % * * % O ..^.{.Q...> , w w > # ",
"H.l.G < y b b 6 & c ! K c - i D U P s d _ >X>XN.b 3 h ^ } r : u s j s 1 R ).xXlXW.C d I a.U a - N P J d 2 Z n.Q.n.A # < w w < # ",
"H.l.F 2 y E b < 1 A 2.2.H ; i S U P d < Q ` ` / w o > < > # $ : p p p : R ).xXlXW.B N R a.P a i B P P N 8 5.6XnX6X2.# > < w > # ",
"L.l.| < y n b < < 6.(._.r.a @ ; ; 1 & * Q ] ' _ e o > < < # o   + @ + + R  XxXkXW.B d U a.P a ; N I P d 2 e.7XbX6Xq.> < w w < # ",
"L.G.G < b E b 0 8 5.(._.u.a @ % * & % * Q ' ' / w : r E y 3 # o . + + + R  XxXxXW.C d I a.J a u N I L N 2 e.6XbX7Xr.> < w w < # ",
"P.G.=.< b E y 6 0 6.(._.r.0 @ ; = & O , Q ' ' _ y 3 } *.*.h : : i 0 1 $ 4.XXnXkXW.H N U a.I a i V I I V 8 r.7XbX7Xr.> < w w < > ",
"P.G.=.3 b E b 6 > 9 c n q & @ & = * % 8 v.3X3X,X^ 3 @.t.&.h 1 u s j p u p..XnXxXW.J N R d.I a ; N L I N 3 r.7XbX7Xt.> < w w < # ",
"L.G.=.< b E b w 0 6.[._.u.0 @ & * * & 0 ,XiXpXeX_ < } *.%.h 1 u s j p : a. XxXzX).J N 3.d.U d ; S 3.I N 2 h.8XbXrXi., 0 y b w > ",
"J.H.,.3 b b b 6 6 5.^.^.r.9 + & * % @ q !.yXyX0X$.3 [ } } h 1 1 s f p u 4. X-X-XW.J d P R P d i B P D N a y.6X8X}.y.h &.C.C.*.h ",
"G.G.I.%.< , < > 8 A A A P , . + + + . < w.v.v.v.E   o # # o     + + + + I 8.8.8.7.N & * ; % % % 1 8 8 2 ; Z ~ ....V 3 h [ Z h 3 ",
"j.G.P.P.,.[ G | g g D h d g d V S =.G -.O.-.#.:.l.G.H.l. .j.k.j.G :.<.Z G P Z G -.=.D V F F -.=.=.G d V F c t O.>.:.:.A g F G F ",
"<.G.U.P.:.:.@.>.A A G G V G G O.-.>.j.g.,.g.k.<.I.%X*X*Xg.I.$X$Xk.l.J.,.-.>.B O.f.k.>.| -.=.G.f.j.O.A A ;.G c ,.l.G.l.O.A O.,.:.",
"<.H.U.U.:.+.+.>.O.V G A V G G G -.j.<.,.:.g.l.g.L.U.&X*Xg.$XI.$Xg.k.J.>.>.>.Z O.j.j.,.=.=.=.F.:.j.O.A G #.G q j.H.l.j.O.O.O.>.O.",
"<.J.U.P.O.-.>.j.O.V O.A V Z O.G P F.>.,.+.k.k.j.H.P.&X%Xl.K.I.*Xk.l.J.-.j.j.G O.s.G.:.G -.D G.>.j.O.A A +.A V j.G.k.>.O.G O.k.O.",
"<.L.U.J.-.-.,.-.G Z O.S N A O.G G l.:.>.,.j.k.j.G.P.&X*Xl.H.I.U.H.k.J.-.<.,.A O.O.l.,.G -.G G.:.j.G G A O.G V >.k.k.-.O.F O.>.-.",
"j.P.$XH.8 * , * * * 1 , * 1 > 1 1 O & + X O * & & > & # O O O # * = , ; & ; * O X O & & > * & & 1 8 2 1 & # & O X O # * * > * O ",
":.U.L.2 > > 1 * * 1 1 1 1 1 1 8 1 > O # * > < , & , 4 0 8 , * & , , 2 2 = 1 & O O * O - 1 ; & 1 1 3 2 > & > # * O O O > 1 , 1 # ",
"<.I.:.* , 1 = & , 1 1 1 * * 2 2 2 * & 0 %.Z.S.t.r a.MXDXSX+XN & 1 , i 8 > = * X O & & * > * > * , 0 2 1 1 > & & & O 1 s G F j 2 ",
"j.K.=.& = , ; * = 1 8 2 ; 1 < w r 3 < r } m.S.q.g s.mXDXAXOXN < 0 w g 3 8 r 0 < 8 * & , 1 ; * , 8 g 0 3 2 * , * & & $ j F G j 1 ",
"j.L.:., 5 l l = ; d I p.D i b x.N.v.^ w } m.Z.*.r -.;XSXVXOXd b ( q.^ w  .NXJXHXfXg q ~ 1.M q t n.9X7Xn.q 6 n ~ n 0 > 2 3 0 2 2 ",
"j.J.:.= 5 l k = - B I U D ; y ` v.] E r @.m.S.*.r ;.;XSXMXoXt E q.x.^ w  .NXJXFXdXA 6.XXkX.X+.Z n.7X5Xn.w 6 v ! n 6 O # 1 > # 1 ",
"j.J.-.4 l B l 4 - S I ;.D - q.eXaXuXB.h { c.Z.$.f I ;XAXMXoXA t.5XeX~.} %.vXFXFXdXF 5. XkX`.+.V n.4X4Xi.0 w n ! n 6 1 f F F j 3 ",
"j.H.:.9 H L m 4 u N U U D ; } ~.<X>X` > < 6 w < O P ;XSXAXoXV $.1X0Xm.E @.NXJXGXdXZ +..XkX`.P g i.4X6Xi.w 6 n ~ n 6 1 s h j j 1 ",
"F.H.:.H T.|.W.I i d P U B i w ( ' _ b < [ V.m.%.r Z oX#X+Xd.h 9.1X0XQ.[  .vXJXGXdXF 5.`.-X_.+.V i.5X4Xb.0 9 n ! v 6 > s G G j 1 ",
"j.L.:.H T.|.R.J ; N U U D i w ^ ` ( y r } m.Z.*.g d p.h.5.D < y ^ / E < } NXHXFXdXZ P z./.u.C V i.4X4Xy.w 9 n ! n 9 > 3 g g 3 1 ",
"f.H.:.V 4.T.7.B ; N U U S ; b x.N.N.^ r } m.S.$.t C A.OXOXa.g o.~.1Xm.E  .vXHXHXsXg v 1.7.1.q t n.5X7Xi.w < c M z 7 O + # # + > ",
"-.F.;.= 5 5 5 * - N U U S - } >X3X,Xq.r [ c.m.&.r D A.OXOXp.g e.1X0XQ.{  .NXHXFXsXV a..XkX`.+.c n.5X4Xi.w < n ! n 8 # # # O + 1 ",
"s.F.:.= 5 l 5 = ; S U p.D 2 %.,XtXqXv.< < y y w # q 3.d.6.K t q.1X0XB.[ =.sXBXBXD.Z 5. X-X).O.0 c 2.$.M < 9 n ! n 6 - 3 g h a 1 ",
"s.j.;.a B Y m 9 @ % ; * % + t.eXCXuXv.3 > w w < # d 3.k.d.A t $.1X0XB.[ h t.D.V.e.g a.=XkX`.I 8 y ! ! z , 7 ! 2.Q 0 ; p F F j 1 ",
";.F.U J W.|.W.J - a H H N - *.qXCXuXN.3 < y b w & C E.#X+Xd.3 E q.x.( w  .hXFXFXdXh K ^._.u.S c n.9X8Xi.Z +.[.7X[.#.3 p F Z j > ",
":.l.:.C 8.R.Y.H ; N U p.S ; 5.0XiXyXb.t } m.S.t.h ;.;XSXVXE.0 6 x x e >  .hXGXGXdXw 9 l v k 4 0 y.[.[.y.V #.}.rX}.2.3 p F F g 1 ",
":.H.O.9 m Y m 5 % ; k N a @ *.0XpXyXm.r { c.m.$.3 -.;XSXMXE.9 w x E e < } NXJXHXfXZ K z./.u.C > 7 z z w < E n.[.n...2 3 V j p 3 ",
">.G.O.= 5 l l = @ % ; % & + 9.qXpXyXv.h } c.Z.*.f ;.;XSXVXA.w < e E e > [ gXZXZX].F a..XkX`.+.8 7 z z 6 * 6 n M z 6 # + # # # # ",
":.k.O.8 l m l = @ % ; = & + $.0XpXtXm.y } Z.Z.*.r P OXmX;Xz.8 6 x x e 1 r *.V.V.@.3 z 1.7.+.c , 7 z z 6 * 6 n ! n 9 1 j =.| g 1 ",
"-.j.-.C 8.W.T.J % i d d 8 % e.0XpXyXm.3 < b b w > V z.I.A.a.8 w x x e < f *.V.V.%.8 4 v m v 4 0 y.[.[.y.q z 0.i.0.V 2 s F F j 1 ",
"O.s.=.J R. XR.L ; N R p.D ; t.eXCXyXB.r [ q.c.$.r ;.MXLXKXOX0 6 x x e > h ].hXhXD.s 4 v m z 4 8 ~ Q.n.^ 8 q ! ) ! b 1 p F F j 3 ",
"-.k.P = 5 5 5 * $ ; 9 9 2 @ t.qXpXyXS.y } m.S.*.t d a.h.d.J 8 6 x Q e < @.vXHXFXfXZ 1.(..X^.K q ! x.i.! < 6 n ~ n w & 3 g r 2 3 ",
"-.k.| * 5 l 5 * ; d P I S 2 E v.N.N.( r @.m.S.t.h O.@XmXmXz.6 6 x x e > @.NXJXFXgXV v 5.7.1.V t ^.9X9Xn.q e n ~ n 7 > 1 3 0 1 1 ",
"-.k.,.l L T L c ; S U U D ; X.N.>XN.q.y } m.Z.*.t S d.A.A.+.6 w x x e < $.NXJXFXgX| 6.=XkX`.1.A ^.5X4Xn.t w n ~ n q 1 j G G j 3 ",
"O.F.G.P 8.Y.8.L ; d C S B ; q.5XqX0XN.r 3 e y w < +.+X;X@XE.q 6 e e e , } sXgXgX'.G 5.R.).^.+.V 0.M.^.0.c K 0.y.0.K < s g j p 3 ",
"G k.L.I.P N B d - i i i 2 - } $.%.$.X.3 3 r r r 3 N ;.+.R U , * < , , > 3 h [ [ Z 0 S K K A Z 8 w e e 0 0 Z ......Z 2 1 - 1 1 1 ",
"G s.L.U.U.>.-.j.f.D F O.V 0 :.:.=.=.G.<.<.P.J.:.<.j.J.J.G.L.$X%Xt.V.K.:.G.:.G | O.O.:.:.G F ,.-.G G V O.,.l.K -.:.j.s.:.j.:.-.G ",
"O.s.J.I.U.j.>.G.<.O.O.P F t j.j.,.>.G.G.k.U.J.g.H.j.P.I.I.I.$X*Xl.H.U.:.G.:.O.-.O.:.g.j.:.G j.:.-.O.A O.g.H.O.,.g.G.l.>.j.<.-.O.",
"G j.J.P.P.f.>.j.,.| :.| V d >.j.,.:.G.H.l.L.P.k.G.k.K.I.I.K.I.:XH.k.L.O.k.:.O.O.+.-.j.,.:.O.>.,.:.O.A P j.l.} j.j.G.g.:.j.<.O.-.",
"| <.L.U.J.,.,.g.,.O.:.G G q j.F.<.:.F.L.H.P.U.l.G.A.K.I.I.K.I.:XH.H.J.-.s.:.:...:.-.<.<.>.=.:.j.O.j.G -.k.G.O.s.l.G.F.,.j.<.O.O.",
"O.<.J.U.G.| O.O.O.G F V g i =.-.F | =.:.:.F.<.=.:.+.>.g.,.f.f.J.-.>.<.G | G D Z G F | G =.D G | F -.c A O.-.V O.O.:.-.G G | F G "
};
