/* XPM */
static char *af181ee849e44ec0ed8458cf1a1366bc[] = {
/* columns rows colors chars-per-pixel */
"65 66 255 2 ",
"   c #010002",
".  c #090403",
"X  c #0C0906",
"o  c #130601",
"O  c #150B04",
"+  c #1B0C04",
"@  c #170E09",
"#  c #1C1106",
"$  c #171109",
"%  c #1B130B",
"&  c #181717",
"*  c #240C03",
"=  c #260B07",
"-  c #2B0C03",
";  c #330E02",
":  c #380D0A",
">  c #251205",
",  c #2C1405",
"<  c #251906",
"1  c #2C1A06",
"2  c #23150B",
"3  c #2B140A",
"4  c #23190C",
"5  c #2B1B0C",
"6  c #331303",
"7  c #3C1404",
"8  c #311A06",
"9  c #3D1B05",
"0  c #32150A",
"q  c #391409",
"w  c #331C0C",
"e  c #3C1C0B",
"r  c #271712",
"t  c #241B11",
"y  c #2B1C12",
"u  c #341E12",
"i  c #391E11",
"p  c #2B210D",
"a  c #34220D",
"s  c #3B240A",
"d  c #3B220D",
"f  c #2C2113",
"g  c #2A2318",
"h  c #332313",
"j  c #3A2313",
"k  c #3B2A14",
"l  c #36251B",
"z  c #352A1A",
"x  c #3C2C1B",
"c  c #3C311D",
"v  c #232323",
"b  c #2D2A26",
"n  c #3D3121",
"m  c #36322B",
"M  c #500C0B",
"N  c #421604",
"B  c #491702",
"V  c #431B06",
"C  c #4B1A05",
"Z  c #431C0B",
"A  c #4A1D0A",
"S  c #551D06",
"D  c #421E12",
"F  c #6C1514",
"G  c #44230C",
"H  c #482509",
"J  c #4B230C",
"K  c #45290C",
"L  c #572706",
"P  c #54240D",
"I  c #5C230B",
"U  c #5B2B0D",
"Y  c #57300E",
"T  c #5B310E",
"R  c #462613",
"E  c #4B2612",
"W  c #442C15",
"Q  c #4B2B15",
"!  c #44261A",
"~  c #422C1C",
"^  c #4B2C1A",
"/  c #522B13",
"(  c #562814",
")  c #5C2D12",
"_  c #463117",
"`  c #4C3215",
"'  c #44321D",
"]  c #4A331C",
"[  c #553316",
"{  c #5C3314",
"}  c #5D3816",
"|  c #54341B",
" . c #5A361B",
".. c #553A1D",
"X. c #5C3A1C",
"o. c #662909",
"O. c #632D0D",
"+. c #732B06",
"@. c #762B0B",
"#. c #64320D",
"$. c #69320D",
"%. c #673A0E",
"&. c #76350C",
"*. c #672B13",
"=. c #642E12",
"-. c #762D14",
";. c #653313",
":. c #6C3413",
">. c #633B15",
",. c #6A3B13",
"<. c #64341B",
"1. c #6B341B",
"2. c #643B1B",
"3. c #6B3B1B",
"4. c #743512",
"5. c #743A14",
"6. c #793B13",
"7. c #783518",
"8. c #743B1B",
"9. c #7B3B1A",
"0. c #4B3522",
"q. c #473827",
"w. c #4E3924",
"e. c #47312A",
"r. c #523A24",
"t. c #553826",
"y. c #593D26",
"u. c #593F2A",
"i. c #7C2B2D",
"p. c #643A24",
"a. c #6B3D22",
"s. c #733C23",
"d. c #783822",
"f. c #65431C",
"g. c #6B461B",
"h. c #6A411D",
"j. c #77441A",
"k. c #57442D",
"l. c #584128",
"z. c #5C422B",
"x. c #654422",
"c. c #6D4324",
"v. c #694A25",
"b. c #64462C",
"n. c #6A462C",
"m. c #66492C",
"M. c #6B4B2E",
"N. c #734323",
"B. c #764727",
"V. c #7C4B24",
"C. c #754C2C",
"Z. c #7B4C2B",
"A. c #77522A",
"S. c #7C532D",
"D. c #654730",
"F. c #694631",
"G. c #664B31",
"H. c #6D4D31",
"J. c #724D32",
"K. c #7C4D33",
"L. c #734D38",
"P. c #6F5233",
"I. c #735133",
"U. c #7B5435",
"Y. c #7A5937",
"T. c #755439",
"R. c #7C5639",
"E. c #7E5A3C",
"W. c #565656",
"Q. c #745744",
"!. c #7A6044",
"~. c #5C5E61",
"^. c #656565",
"/. c #6D6D6D",
"(. c #6E6E70",
"). c #747474",
"_. c #72777D",
"`. c #7B7B7B",
"'. c #920C0E",
"]. c #B80B10",
"[. c #83370D",
"{. c #863C16",
"}. c #B51F23",
"|. c #8A3E23",
" X c #923234",
".X c #B13836",
"XX c #D31E24",
"oX c #F32D30",
"OX c #86421A",
"+X c #9D4F1E",
"@X c #854A26",
"#X c #914E2A",
"$X c #87542D",
"%X c #835333",
"&X c #8B5733",
"*X c #835B34",
"=X c #8B5B35",
"-X c #81573B",
";X c #845C3C",
":X c #8A5D3D",
">X c #925C35",
",X c #89623A",
"<X c #8B613F",
"1X c #986339",
"2X c #CC3D46",
"3X c #855D42",
"4X c #895355",
"5X c #BF4A49",
"6X c #856343",
"7X c #8D6441",
"8X c #8E6948",
"9X c #936541",
"0X c #956943",
"qX c #9A6C44",
"wX c #946C4B",
"eX c #976D4A",
"rX c #9D7146",
"tX c #9B714B",
"yX c #976E50",
"uX c #9C7351",
"iX c #9E7954",
"pX c #A26E45",
"aX c #A37346",
"sX c #A3734A",
"dX c #A7774A",
"fX c #AB764A",
"gX c #AD794C",
"hX c #B0774C",
"jX c #B37B4D",
"kX c #A47A53",
"lX c #A47955",
"zX c #AB7D55",
"xX c #B57E51",
"cX c #CE494C",
"vX c #E35467",
"bX c #AD835B",
"nX c #BB8352",
"mX c #B68A5A",
"MX c #B78C62",
"NX c #BE9263",
"BX c #C7915A",
"VX c #C69A68",
"CX c #C9AC74",
"ZX c #7A7C83",
"AX c #7B8087",
"SX c #888787",
"DX c #958F8D",
"FX c #969694",
"GX c #A1A19C",
"HX c #979DA3",
"JX c #B4B3B2",
"KX c #CFB496",
"LX c #B2BEC2",
"PX c #D1CFCD",
"IX c #F4F3F1",
/* pixels */
"KX^.PXJXDXAX).q.LXIX`.^.b X ~._.(.FXSXGX).JXW.^.PXPX).HXLXPXDXGXFXDXSX`.(.GXZXm GXPXDXZXGXDXv /._./.W.W.HXHXAX(.v (.LXDX~./.HX_.HX",
"DX# % O X X X X t t t 4 g g f t l f t l r 4 4 y b c l c y h g g f f h t 4 h f h ~ w.C.m.q.z.t.n q.% u.w.w.w.z z x g h % < 3 % 4 % ",
"m T.M.r.I.C.P.F.l.r.r.y.z.r.u.u.z.G.l.6Xl.u.J.P.Y.z.z.r.y.w.r.r.z.l.b.r.0.l.w.u.I.;XI.t.I.z.b.G.D.f wXR.E.z.M.I.E.I.T.7XJ.7X-X7XR.",
"m U.z.G.P.U.m.0.T.w.D.I.J.u.H.b.z.u.I.7XI.I.I.F.D.I.F.F.J.H.y.y.m.b.r.I.I.T.P.H.H.P.J.J.I.3XG.0.u.X :XR.l.l.D.y.D.D.I.P.-XR.b.b.m.",
"& T.m.z.I.*Xm.y.H.m.m.H.m.r.z.m.z.' D.L.u.I.H.I.l.I.z.m.I.l.u.u.G.b.' F.l.y.P.D.I.m.J.I.I.6XH.R.n ~ eXY.y.z.T.n.m.y.M.z.r.F.I.r.I.",
"v !.I.U.F.o . . . . .                             @ 3 u ! ~ h 5 y o . . . . .                             @ 3 i ! x a r r m.T.I.Y.",
"v 7XJ.Y.R.e Q { p.L.l.y             .             < / 3.%X:XN.V J D / { p.J.u.t             .             < / c.&X=Xx.V G I.P.P.U.",
"v aXJ.U.I.7 I @.{.|.B.k 2 z ` ] ' g 2 k _ ] ] k h 2 s [ B.S.f.6 e N I @.{.@Xn.d 2 x ` _ ' g < k _ ] ` k h 2 s } B.S.f.; 0 J.J.*X<X",
"v H.7X-Xm.7 B +.+.*.<.V a r.A.,XA._ 6 ` f.g.f.g.} a > E ;.3.[ 6 : 7 B +.+.-.<.9 a r.S.,XP._ 6 ` g.N.f.c.} 5 , E <.3.) 6 = Y.z.D.u.",
"v E.H.F.I.; A :.8.<.=.N 0 G T 5.g.G - A ) ;.;.2.Y 8 - ( 7.8.=.N ; 7 A :.1.<.=.7 0 G #.j.>.G - J ) #.#.>./ 8 - ) 7.4.) 7 - G.D.I.3X",
"v D.k.G.F.7 P 1.*.$.) A - ^ >.>.) 7 * V =.;.#.{ J , = G ) 1.{ ; ; B P 1.:.$.) Z - ` } >.) q - Z } #.$.} H , * J { <.{ ; 2 z.J.3Xu.",
"v z.L.H.u.B S *.4.OXZ.J ; G } >.} Z * G >.;.#.T H w 6 J 3.%Xc.Z e C I *.4.OXB.H ; G } >.{ N * H >.$.T ) G 0 w P 8.%X3.Z w z.H.P.u.",
"v E.E.H.D.V ) s.1XjX7XK e [ h.V.-Xt., Z } ,.,.h. .w d t.,XiXR.d G A ) B.1XjX,XG e  .f.V.Y..., G { ,.,.c.[ a d y.7XuXS.e u E.H.R.D.",
"& E.8XT.D.* , K [ X.X.G s c.$X1X*Xt.8  .V.1XdXtXx.w r _ z.M.| 1 3 - , W | 2...G G c.$X1XY._ 8  .V.1XdXeXp.5 4 ] b.H.0.3 2 3XL.G.I.",
"& E.E.D.l.* $ g x k , s ; U 5.%.;.G - H ,.9.V.N.` 3 O < p k a 2 o * @ p c k 1 e ; U 6.&.;.G - J 3.j.@Xc.R 2 @ < p k a # . E.E.T.3X",
"v I.8XR.;XO O t n q.a j ; L 6.OX*.J = 7 O.5.8.<.N > 2 x q.k.q.4 3 + @ t n e.5 j ; I OXj.$.D * N $.4.j.;.9 = 4 c w.l.n 4 4 7XwXE.R.",
"& 7X7X:X-X@ @ t u u r j ; I OXOX:./ 0 Z 1.4.5.<.Z * o r n p y # + @ O 4 h h r j : I OXOX*.^ 0 Z :.4.5.<.e * o y n u 4 # O 9XtX0X3X",
"& f h 4 t = + < j j a j : P 7.8.;.G > Z 4.6.9.1.D * + f z b t # o = > p j s a u ; ( 7.7.;.G * J 4.6.9.<.Z + + g b b y @ o 4 t f h ",
"b rXxXnXnX= e ..3XyXI.Z 6 J 2.N.N. ., N $.6.@Xc.E 3 + > 1 w a + + : e r.3XyXM.9 6 E 2.N.N.| - V :.6.@Xc.J 3 + > , a w + o sXtXrXaX",
"AX9X7X<XdX9 P } 9.@XZ.E 6 _ b.T.P.~ , ] I.S.<X6Xb.y < ] U.8XH.j r D J ;.|.@XZ.Z 8 _ m.Y.G.W 3  .C.S.7X6Xl.y 1 ] S.wXH.a r R.R.R.:X",
").n.S.R.J.7 S o.@.@.*.D + 2 < 5 j 4 + > j W _ ] k 4 y  .Z.&XC.e w N S o.@.@.*.D * 2 < p h 2 @ > k W ] ] h 4 u X.@X&XB.0 r u.-X-X-X",
").R.7XR.U.N o.$.|.[.) ; + % g t g y O + # f 4 z p 2 < V O.@Xs.q 8 B o.5.|.[.) ; + % g t l r @ O # f 4 z p % , H ;.@Xa.7 3 :XR.7XR.",
").-X-X%X:XN S $.7.+.{ ; @ @ t 4 4 t + O # t t z f < * Z U *.1.7 - B S $.7.+.Y - @ $ t 4 4 4 + O # t t z p < > V U *.*.: = 9X0X;X7X",
"/.J.-Xn.*XN S O.:.j.v.e o @ 5 > 1 < + + # f f 1 a > * V U *.I A ; C S #.:.j.n.8 o + r , 1 < + O # a p 5 h > * V ) *.*.N - -X:Xp.%X",
"/.-X-X-X0XN p.%XqXjX%Xd > j ..v.G.w.r 3 a _ z.G.k.5 - 9 S I *.A ; V a.%XpXjXK.e > k X.M.G.q.t 3 k ' G.G.k.3 - 9 L I *.A = 9X9X3XR.",
"/.*X<XK.-Xq ( 6.OX+XV.G , y.Y.=XE._ 3 r.m.Y.8X6XM.a 8 K ) 8.s.J w e ) 6.OX+XB.9 , l.S.,XE.W , t.m.T.6X6Xv.w 8 J T 7.s.Z , K.K.%X:X",
"/.R.J.J.J.6 B L +.7.8.N ; H #.%.,.t., H U $.#.>.f.w u ..C.9X:XQ , 7 B L *.7.1.N 6 H %.$.2.[ , H T %.#.>.X.8 i ..A.9X-XE - 3Xs.p.:X",
"~.<X:XK.9X6 S 4.d.|.s.N ; J #.&.) E , N U $.:.3.{ , 0 z.K.&X-XE w 7 S 8.|.|.8.N ; P $.,.) R , A U $.:.3.[ , w b.R.=X-XJ 3 3X3XL.0X",
"b U.m.p.J.0 S &.[.{.s.D ; J %.%.{ ^ 0 Z O.8.j.3.p.3 3 ` { :.B./ 0 7 S &.[.{.s.Z ; H $.%.) ^ 3 Z O.5.j.3.y., 3 ` { 1.B.E * -XR.-XJ.",
"v H.D.I.U.A I -.&.#XZ.R 6 V %.V.g.l.u s T 5.j.h.M.h > G T ;.1.E 6 B *.4.6.@XB.H 6 H ,.V.f.u.u H #.j.j.c.G.w , K { =.1.E - J.J.m.R.",
"(.P.I.M.H.P ) n.*XwXJ.d 8 K T A.v.k.a G T ,.g.x.l.j a ` [ <.<.^ e ( <.p.-X8XH.s 8 G >.v.v.l.u G T ,.>.x.y.p w _ { <.<.E w u.z.J.J.",
"`.F.I.;XE.b.n z.z.m.t.t.l.n.k ;Xl.I.m.F.P.M.D.l.F.b.z.l.b.H.P.M.l.D.R.F.b.n.F.H.b.M.b.m.H.P.m.m.P.M.J.m.M.M.M.l.b.I.I.z.t.u.u.l.u.",
"SXz.J.u.b.I.w.b.M.F.z.z.w.u.f fXD.I.z.M.m.H.H.u.b.m.z.b.b.m.z.J.;XI.-XF.M.b.F.I.D.n.m.m.M.m.M.m.m.m.F.b.m.F.M.M.b.H.P.z.l.J.M.;XF.",
"`.w.U.w.t.0.u.u.' 0.] ~ l _ ] ] ' ] 0.w.0.w.] ] w...w.w.0.x ' t.r.' 0.] w.w.t.~ x q.z.y.y.M.w.r.t.t.w.r.t.0.~ t.z.z.r.r.x u.l.G.-X",
"v BXnXjXxX<XaXdXdX:X<X-XpX:XpXpXaXdXaXfXhXnXhXfXaXhXpX<X7XhX9XhXdXdXgXgXnXhXBXBXnXnXjX<XaXxXdXgXnXnXhXxXpXpXjX0X*X-X:X1X1X:XM.0Xt.",
"~.BX9X0X0X:X:X:X7X:XE.9X:XI.;X<X;XY.1X:X:X:X7X:X<X<X;X%X;XR.*X9X1X6X:X0X:X:X7X9X1X8X1X<X-XH.M.:X=X:X:Xn.m.M.K.J.H.F.-X:XU.J.<X<Xe.",
").nXY.m.9X-X:X7X:X:X;X0X<XR.*X<X*X-X;XqX<X<X:X;X*X-X:X:X7X-X*X7X9X<X<X8XsXsX0XqX<X<X,X0XrX0X;X:X-X-X;XI.I.J.J.H.H.-X1X;X*XI.7X-Xp.",
"`.nXT.1X0XU.<X0X6X:X0X;X;X,X<X0X7X;X0X<XgXaX<X1X1X7X=X0X:X:X:X0X0XqXrXsXqXmXbXrXrXqXdX0XqXrX<X:X-XR.U.U.M.;X:XU.n.-X;X<Xm.-XR.:X! ",
"^.xXI.qXwX3 u w j e.z %                           # G | n.C.X.9 G 3 w i ! n h $                           > G  .B.M. .9 e R.:X<X| ",
"/.mX;X-X7XN I 4.|.#XH.k O t p a p % # y p h h t t < G <.S.=Xc.7 D A ) 4.|.#XM.j O y p a p % # y 5 j h p t < K 2.$X=Xx.6 e U.xX<X! ",
"^.bX-X:X-X7 B +.@.7.3.s w w.A.*XP.' 6 ` f.v.f.f.} 1 < / 3.3.[ 0 ; 7 C +.@.7.3.9 a r.A.*XM._ 8 ` f.v.f.x.| 1 1 ( 3.3.[ 6 3 K.tXE.^ ",
"^.aXR.<XmX6 C $.:.<.*.N w G #.j.g.H - J ) ;.#.h.) w - P 7.,.=.7 ; 7 C 4.:.<.=.7 w R %.j.h.s - J T ;.$.3.Y 8 - ( 8.:.) 7 - :XtX9XD ",
").mXrX-X:X7 S 1.:.$.=.A - W >.>.{ 7 * Z { ;.#.{ H 3 * H ) 3.{ 6 6 B S 1.:.$.) Z - Q } >.( 7 - Z =.;.#.{ H 3 * J ) 3.{ ; = -XK.E.! ",
"v lX;X;X7XN P -.6.#X%XE ; J } 2.>.R - N ;.$.T T J w 0 / N.&XB.Z Z A P -.{.#XK.G ; R >.>.>.D - J >.$.T Y J 0 w / N.=Xs.Z w R.6XE.! ",
"v eXw.T.:Xq / 3.&XaX;XK G } g.*X:Xt.8 K >.j.V.A.X.a w y.;XyXI.e d N Y a.=XaX*XG G y.g.=X,Xw.8 R >.V.V.A.} w h y.6XtXM.e u H.E.E.x ",
"@ dXy.u.E.* * a W ` K s 9 h.@X$XC.| , [ V.>XpX8X2.r 2 h ' ..~ < * * > h _ ` K d V 3.@X$XC.Q 8 [ V.>XpX7Xt.1 > k _ w.k > + u.z.D.y ",
"& 8XE.*X;X# O t c n , h ; S 6.&.=.Z = 7 $.8.j.3.J < # f k ' z % % o @ t c n , e ; L 6.&.U Z * N :.5.j.2.Z 2 # f k ] z 2 @ F.E.F.g ",
"& :XM.P.,XO X t l ~ 5 h ; I OXOX*./ 3 N O.4.5.;.7 > + z q.c k 2 2 + @ 4 l x r j ; I OXOX$.E = A :.4.5.=.7 2 + z w.c l 4 + J.R.I.2 ",
"& qXI.:X-X= @ 4 w 1 1 h 6 ( 7.9.*.J , Z 8.6.8.2.D * o y z g t @ @ = # < w 1 5 h ; ( 9.9.*.G , J 4.6.5.<.e * o y b g t @ o Y.R.U.4 ",
"v % % X % = 0 _ L.6Xb.e ; P 3.9.c.[ - 9 $.5.OX3.J > + 3 < y y # o = w ` Q.;Xz.9 6 P 3.j.h.` - V ;.6.OX3.G 2 + > r a 1 + o h @ %   ",
"& nXBXnXBX7 J %.Z.#XK.E 8 _ b.T.I._ , ^ C.Z.<X3Xy.u < ^ C.3XF.u 5 Z J >.@X#XZ.G 6 _ m.T.H.^ , | C.Z.7X!.y.u < ` A.3Xb.w t BXdXnXjX",
"& -X-XR.R.N S L @.@.=.D * 2 5 a j 5 @ > d _ ] w.k 4 y | Z.>XC.i u N S o.-.@.=.D * 4 5 h h 3 @ , W _ ] 0.h % u X.Z.>XC.w r J.R.R.F.",
"W.R.-X3X0XN o.4.|.[.) 6 + % g 4 f t @ @ # g 4 z p % > H O.j.s.q 0 N o.4.|.&.U ; + % g r f r O @ @ f 4 z p % , V $.B.s.q 3 9X<X9XJ.",
"ZX;X-X-XR.N S O.-.+.{ , O O t # 2 % + + O t 4 p f < * V U *.=.N ; B S #.-.+.{ , @ @ t # 2 4 @ o # t t f p < , V I *.=.: - K.K.K.-X",
"`.0X0X8X3XN I a.Z.$XA.j @ > u d k h # # > h k k ~ > * 9 P o.I A ; C ) 3.OX&XC.w O > u d k f + + > a x k c > - 9 I *.*.N - 0X7X:X0X",
"`.:X3XsX-X7 p.@X1XhX%Xd > ] m.E.E.w.2 k ..l.!.!.G.w ; s L *.1.A ; e p.#X1XfXS.e < 0.M.-XY.0.t x ..b.Q.!.m.1 , Z L *.*.A ; wXJ.K.-X",
"ZX-XI.F.mX0 C o.+.{.8.N 6 ` N.V.C.| , ` 2.B.B.A.x.e w ` <.#X%XR 0 q S o.&.{.8.7 6 [ V.j.A.` 6 | f.N.V.P.x.w u ` 3.%XK.E , mX8X3X3X",
"`.F.L.E.J.6 C $.7.{.s.N ; J #.$.{ [ ; 9 U %.#.;.} 8 w z.R.9X-X^ 3 7 C $.7.|.1.7 6 J #.#.{ ^ , N L #.#.>.{ , i b.R.0X-XJ > tXtXE.Q.",
").J.wXm.F.: S 4.{.{.|.A ; H #.:.) R 3 N O.5.5.a.y.6 3 | 2.s.K./ 8 q S 6.{.{.s.Z ; J $.%.) R 3 V #.5.8.a.X., 5 [ 2.N.Z.E - wXR.T.L.",
"`.zXlXE.7XN I 4.&.OXZ.Z 6 H %.j.f.u.u G U 6.j.g.m.u > K T =.1.E 0 N I &.[.@XB.Z 7 H %.V.f.y.u Z #.6.6.c.m.5 , G T O.1.E - 8XyXT.8X",
"`.iX3XG.T.E ) a.R.0XP.K 8 H Y A.v.k.a d T ,.f.x.z.j w ` _ X.<.( Z P <.a.-X9XH.d 8 H >.v.m.l.a G Y >.3.x.l.a w _ { <.<.J w T.zXuXlX",
"`.J.t.zXwXL.6XtXbX6XMXVXVXmXBX,XgX0XT.;X3XI.H.H.R.eXuXlXMXbXbXuXwXE.CX0XzXlXtX9X3XE.<X-X,XE.E.*X;X6XT.!.8X8X8XwX!.!.E.G.D.Q.L.L.6X",
"AXVXT.6XT.F.uXE.3X6XmXlXVXtX0XT.:X;XU.H.P.J.I.6XE.7X6XbXbXMXlXMX7Xb.VXeXeXlXlXzXzXsXqX,XqX,X:X-XE.E.E.;X8X6X6XE.R.E.7X!.wXzXuXbXCX",
"SXbXyXiX6X3XlXlXtXzXNXkXNXlXnX:XI.H.D.T.H.Y.J.7XQ.tXMXNXlXNXzXVXyXu.NX7XlXuXzXlXmXdXtXqX;XU.U.H.H.T.3XY.T.E.!.T.I.E.7X8XwXNXbXMXbX",
"SXiX-X0X8XyX-XL.0X8X3X8X3X8XJ.D.w.t.t.0.M.k.M.J.R.8X6X8XyX8XyX8X-Xi VXL.R.lX8XyXyXpXqXK.-Xn.J.F.<XP.| D.D.J.H.I.@XK.3XE.E.L.:XyXlX",
"SXZX`.JXt. XF  X XM F .X.XcX.XF  XF .XcXXX2X5X X Xi. X( '.}.}.'.i.4X).(.).).(.).`.W.i.vXvXvXoX: M XX2X'.'.].XXoXoXoX'.: F cX4XSXDX"
};
