/* XPM */
static char *_65a04e98e7f4205efd69c2d9f6a5564[] = {
/* columns rows colors chars-per-pixel */
"64 64 46 1 ",
"  c #8F6E51",
". c #9E7E60",
"X c #A08366",
"o c #AB8F72",
"O c #AF9375",
"+ c #B39676",
"@ c #B39A7C",
"# c #B89E80",
"$ c #BDA385",
"% c #C1A586",
"& c #C2A887",
"* c #C0A688",
"= c #C4AB8B",
"- c #C9AF8F",
"; c #C9B08F",
": c #C7AE90",
"> c #C7B092",
", c #CCB394",
"< c #CEB799",
"1 c #CFB89B",
"2 c #D0B796",
"3 c #D0B798",
"4 c #D3BB9C",
"5 c #D6BFA1",
"6 c #D7C09F",
"7 c #D8C09F",
"8 c #D7C1A2",
"9 c #DBC4A4",
"0 c #DFC8A7",
"q c #DDC7A9",
"w c #DEC9AB",
"e c #DFCCB0",
"r c #E0C8A7",
"t c #E2CCAD",
"y c #E6D0AF",
"u c #E3CEB1",
"i c #E6D2B4",
"p c #E8D4B6",
"a c #E7D4B9",
"s c #E9D6BA",
"d c #EAD9BE",
"f c #ECDBC3",
"g c #EEDFCA",
"h c #EFE0CD",
"j c #F0E1CE",
"k c #EEE1D0",
/* pixels */
"4stwadffffffffddfdaptiddfsfdsaatiafaufaidfiyaa8uaaydfffffffsdsf8",
"aiaafdfdffhhhdddffdasfaasffdtq9,9ud1rt526y8w0wafaidffgggfgfsaiwt",
"fsiaadffhhhhhfffdsaiaddadffiu494ayu9w93iw9iaydaffddgjgjgggsiagw8",
"dfiiaffgfhhhhfhfayiutiuaffdqdu5iit4aa9iiteddfgffffgggjjgjfsaafs9",
"ddiffffghhhhhfgddsgddd5iuuuidiqu1,&<fquasdsffgffgjhgggjjjfptaga4",
"saafffffghhkfhfdggggfdupiiffsrir5= 8i9rasidfggafghggfhghhfpfgffa",
"saagffffdhgfhkfhjjggfdgfdfffau9,ii4ppridsadggsddgggfghhjgdshhgff",
"gasffffisfdffdfkkjgggfddfffdf44dsfw399ttisffgfgggggfghhhjjdhgfgg",
"fddffdfdysdgfhhhhkggffsddffdaqwsaddi9tg0wfgfffghgggggggkjgdhgdgg",
"afddffffafghgfhhhkggggffdfddaweiasfs0daa9fgdddgfgggfggfghhiggfdf",
"daddfgfdafgfdghkkkkgggggfddffr4ufafutddddysdffsyafsfaffffspipddf",
"iifdfdgfadfhhhhhkkkkgjkgffffiqragfdiiafffsataifgssfffudatprytiip",
"fddfffgfsgfhkkkggjhkjjgggfda4ussdgfr5affffdffhggfgggfydap9iaadfa",
"ffdfffgfdffhhkkhjkggjjjffgurdadffggytiddgfaffgggghggfffaiiasfdff",
"dfdfffgfdifhhhfhggggggggggfqffaffgfditafffadffhghggffffsiiasffdf",
"dddffffgfafgggfgggggggfggfpufpddfggffdiaffddfhhhhggfgffsasdffdpd",
"addffffffadafghfaiaffgfgffipffssfggdf9t9issfdfgggfgggfddfsfffddp",
"dddfffhfddapdspupi0taat6iw1rassfsdddy5uy3ai9igfgffaffefsffpffsss",
"sdffdffsauuuiripiaadgiiffi5uauewpdadu5y9,i8<dgffauiffifsfffdddad",
"ssddddfsaipisiiriattadpdfiifii55tapfaaaad4raffgsafiddifffssassss",
"pssddadsaaafdsadgd6wpddaeuuauu1q19iiiasfddpdffffiatafuffdddspssp",
"ywiadafdisdsatpadp3riw13q9tisawwaiiadsaffsddffaaiiiffiafddsaripy",
"tissaassiffa9ptwp49409w45siafffisssdsfsaffaisfprttddfaifdsadiiuy",
"pyasdaysafffu0it9t,tw93iafsfffsififfffdd9aduttprpffgiaffdffpriui",
"pyypsdawaffddddpdi9334waaasffssiusiifdiafsidstitaffgusddffdspuap",
"7py7eaaitsaadaaatd,*>49uiiaaddfftuiedfiidditdfpfgfdfuddfgfffp923",
"$67;9ytpywtpifaiafw99dsqditaadff<4fdadisddrtfpidffsissfffffdup4-",
"0yyttt6piw97itissu58ass98t8tddisw=iaafsadd9is53pfftagfffdfdpiaiy",
"issssy0paat99934rawafii8$39tiassfswaaadssw5t444ufddfddffffqtaiyi",
"spsssp#yiapswww9idiq8idwtit2wpfdsdqwyaifd9ufsr5risffgfddspiduyiy",
"ppssssryiiasddasdds55dfdsid<4wytafi95wusffffdsiuaffffdsuiudssdpp",
"pspssprppaasdaafdddywffddffai9uaadft9iwqddffddasyaffaaaiwuaaddds",
"pssssa9aaasffiu9tfaqaasfffsafs9esdsafsw9dfffaddsuuaddpisday<wiss",
"sppssdqpddffdwf4qippasafffffafu5iffssfwufaiwaaddduwffddfdfp99wis",
"spdsssiqassffegisfdssppsffffssaiusfatsq*X=643adfaaaaffffdp99tits",
"ddsdsde5rpadiafdfggddsafgfsffgfduusssi9=ooya>iduuddfffdgdp9wuiai",
"ddsdddyiyafdudfffggddfdfffdafdaiyutssiqiuo$9$qrwidddfdfaat9aiqai",
"fddsafqugfffdaffdfgfsfdfffddsu8qtqqasu15<$qq931pdffgfdaairwuu4qa",
"fffdaitdffgdsadfpdfffddaffdatuwiaiwsau341efiwaddffgdfdiat9uiawif",
"ipyyitsafdfffdsppagddtadfffu9dsifsus9urtqiiadfgffgaipfsfptasai9i",
"dssfdsfaffffffituaisdisfffs9afffia:p5,44r59apsgffgsffggffdwiayia",
"dddffsaiddfffffgdfatwiaffsiaasafasifdau9qdawripdfgpsggdddaysrtif",
"dasddarddfffffdfffdaiqtaidfffffaaisffsft1ritpafdsgitdggfda9r8ddd",
"ffffffsfdddddffffdfdsfsuwiddssuratffffpriuipdfffgfd9dddapar54afd",
"fffdffddpappsdffdssssffattaffatifufffaupqufffsggfffpptiiafs93pdf",
"daddaddspspaddffdfffausrwrafffuesassdapaisdfffddfggfstttipy9tsdd",
"a9,49ttpssasdddffasffs9yt$affd9tsdiffssssiffdfffgfgffdaipty9dfdd",
"r,pq9i2yiiudfddffafsafwiwtadda9iuaaisfauwuaaafgggggffaiitda;sdfd",
"y$si4330w00aadsdstafdayw:eqyai9ititist4tiqisddfgfggdsttyiddq8fda",
"4,spttst69iaaddsw48iaydea9<wu9idit9at42idywdfdffdffd0psdidadaada",
"9rpiyapi49taddaew900wafddyya3ttasitw97,te9tsdggdfsss0tttadafae4q",
"ryiii0paewpsaswtpiypaddddssy,tipd0004ttttispsdsffs0iiiaaadddsi9e",
"4wyrtrppyttwitypstpssadadsa7ttsiiai%,9tsdpiadsdddfu4adapsdddssst",
"prtp19ppiy92;isiaysppu0piyst9yttyy091ass98apfffsssy<1aapsdddsasi",
"ppyiapyitpi9tdsdatypaitpittrssiaypyyssd0,6pdfdapiyiaiipdsdpsppsa",
"iiiyit9y;;wwtaaypyaap9wptt,9ssptiiayaasi330dfddawtaaaapppppspssp",
"ppi8wtwt&+.rwww91y0ppitpsu66idu808ysptyd3wwidffa6eadasdsdppspdss",
"ysi24it;&%Owsddt60itapypssawueys9=@@$t6a3iww9eds9udapiddddpppdsp",
"ypppt93,ytdfffdsa0iapiypsddtd0idt,t4wqyiwidaay8dtdddyddddddppsds",
"ssst42989sfffdfdsdtidpppssdud8wdppiuqdfda9fddf@dt0pddddfdddadpsd",
"sddt9q9sasdffdgfisa9ptpsdsptew,qisieaddfeeafddqyt9esdffdddasddss",
"pds0qydsyadfddfdpay62;0spriiud1#,uididffiaaddfdyayqydffffyadddsp",
"sti9adddssfdddfdaawt929ttsddds8$9wdfaasaedffdfddddeuaddafuudaidp",
"&iweddffffdffdddssstitsdddpaadduyuafuuiudafdfdaddfadaupauepaewiw"
};
