/* XPM */
static char *_ef6ff1fcca64a2ff9a1f0741e0a3bd1[] = {
/* columns rows colors chars-per-pixel */
"64 64 48 1 ",
"  c #010000",
". c #060000",
"X c #090200",
"o c #0C0400",
"O c #0D0500",
"+ c #0E0500",
"@ c #110700",
"# c #130800",
"$ c #140900",
"% c #160A00",
"& c #170B01",
"* c #190C01",
"= c #1C0E02",
"- c #1D0F03",
"; c #1F1003",
": c #201104",
"> c #221204",
", c #231305",
"< c #251405",
"1 c #261505",
"2 c #281605",
"3 c #291706",
"4 c #291807",
"5 c #2B1907",
"6 c #2C1A08",
"7 c #2E1B08",
"8 c #2F1C09",
"9 c #311D09",
"0 c #321E0A",
"q c #341F0A",
"w c #35200B",
"e c #37210B",
"r c #38220C",
"t c #3A230C",
"y c #3B240D",
"u c #3D250D",
"i c #3E260E",
"p c #40270E",
"a c #41280F",
"s c #442910",
"d c #452911",
"f c #472A11",
"g c #4A2C12",
"h c #4D2E13",
"j c #4E2F14",
"k c #4F3014",
"l c #503115",
"z c #553416",
/* pixels */
"addddayyyeqweqweqydfdayyeyyyww53,5599w95w9wweyywwwwwwwyyyayewwya",
"8wwye955,33<<552335,55qye5595999955533,59ew9ww95599959we95555555",
"555355357wwuyypspt95598q99999wwq9w99wwwww58999955q9999999wwyww85",
"9wwyywtyyyuwq599wyyyeqyewyyypyyyyyyywwweywww75553,599w9ww9999559",
"993,waasdyyydllhf9wyadyweyyyyypyutwwww995;,wyyyspywepasyy995599w",
"4,,6=,w555slhsdsffyq5>>>5wwwyywytayayyey5,9;eyyyayuaasye955==$,5",
"w,,,>5tyhllyq9yyyfld9$k&>9ww99qqw95559ew,>w;ydddpppsatwydfi5995y",
"y9,#5tddaywwweeyywqy6>3&9yyyadaayyw995,,=@@=>3<,<239eusayy9,,;5y",
"wwwwwwwwwyytywwwwwyyy9>,5489w999w9wwyyyydayyyyttyywwq999www955wy",
"yyw9999www965555599tywww9wwyyyytywwwtyyyssaytayaddddsyyypadgdsyy",
",5566453995,;,,6655wytydddydyyytweyyww99855,,5,>,55,555,>=,3,,,,",
"&@OO==$,,=;,,,5,>=>&OOOOOO@#=9ydllkhklzzkkkhdtt8,,,$@O..XXX.@OO=",
"@$@@@X........  XX#$=>=>;;=====#OX.... .X.......XX.XXXOO@@$&$$@@",
"====$$@@OOOO#@@@$=,wtyyyww99655,=====$$=&$###$$&==;;,,3599t5,>=$",
"====&==$@$$=,==,9wtyaaaayyy95w6ww9ww854,,,,<5555898wwq48943,>=>&",
"&&@@@$@=&=,&@O@==>,,5553,,,,=,,,55,,>>,>,,5<,,,<,;,;>5,,33,>===$",
",3;&&&=;;;,;===$$=$$==;=====>,69646989q996,33,5,54,3>>>;;;;=&;=,",
"&@@@@@=&$$$$>,589wwtt4,,,,,>>==@#@#@$==$@O#$>,55443,<<<>><,;$$=&",
"=@;q&@=;=;;=======;=O@5O@=,,>,=;=$###=;=@,3O$=$==$$==>==#$#o3,.#",
">&&;@&;>;>;;===$@@@@O$yXO@$$$#@$$#$$O==$#>>$>>>>>>,,,>>>,;=#;,O,",
"=>=@;>>>>>=====;=>==@$$&==;;$==$$$O@@@$@$#$=;,,>,5,653<>>>>;@@$>",
">,3,3>>>,,>>>,3335,,6,>33553553,,,==@@#=;=,===&$$@@$=>><,5,,>;;,",
"3,,=;=,;>>,,,,>>=&>>,55q9wwwwewwt9965,,>=;&==&&;=>>,>>=>======;;",
"3,>;;=&=$=====&====>>=>,,,355555;;;;,,,>>,,>,,,,>>=====&>,,,;,,5",
"====,;,,=,=;,,,5,35599weyydayywe999q86655559w48855<5,,,,;=======",
"===@O=$==,,5555599959wwewtysdglklkllkhfddyyyyw99952,,,,;,;====&&",
"953,,;,=;=>>,,3,>>,,,53,,,,,,,,,,35,35654,55555555755,,;;,,<,,58",
">>=>=&=;=$===;,,>;=====>,>>;;=;>,,,5569qw945554,59955,,;;,>;>==;",
"q666669966,,4w9we9w9w5,;>;,55,,,==$======&=;;>,,,,,55w8545679889",
">,5,,56q9t9w69955569999wyyyyew999q99956,,,>=;<5,79wwww8w4>;;===>",
"t6;$=35966994665,5,555,59995353545336695=;=,5585599ww466556;;=,9",
"96,9,,9599wwwyyyyyda9,,5yyyew99995,35,,$#y=$,3559958566664,&,5;5",
"yw5=,yy9555q956689w9,=y$,953;;===$$===$@O#O$,,59q859800www8;;;,w",
"ww,=>,,,,,,>599989853=#>33<,,88,365433648wahkdgaddsadyyyyyww,,8w",
";56999w93,5,,3,,,,33538w9twwyyyt443,,,33555,,555,,;=;$;;;==$$==;",
"989wwywwq99559ytyww8wyydasaywyyyyq99w99tydyyw9w9qwyysyttyw9yyww9",
"wwww86655,,5,,>=$;;,3634999994wwpat9984qtyydgdssayt6433909q99ww9",
"..... .XX..X.. .X.X ..OOOOOOooO@&$@O##&=&$&$$#OOO#oo.XOOOXXOOO. ",
"......... ...XXX...OO... .......  X  .. .... XXXOOOXO...     XOo",
",,,;==@@@@@=>,,>,3,,,;=$==&,======&$@@@$#=&====;=;>>&@@@$=;=,,,,",
"w99wwwyww9wyywqww95,,=$;;;==#$$$&$&&$$==,,,,>,;,,555535566966668",
";;;>;;;==;==;552,3,;;;;=>;,;,=;;>>>>;=;==$=;>=;;;=,,,,==;=$==;==",
",5,,,5445,445,55383553,5559555,,>33,48846,535<,,,,,,;;,3,3,5666,",
"=$>;=,55,4558wwusdaaw,,5yayw99685555,,;=$;=;,7wwwwwwww994,3>$$==",
"w,55=9ww85548455855,$=e#=33325<<,>,,>,,;#y;,998553<<,,5466,=,,39",
"w5&=5wtww,;;=;,,,3,,==>=,559999etpttqtw9>>=,885759959w9wty9,8,3e",
"<<,,55w999yyeyw975595=O,5959q5999yyytq995=39wettewwq943,,,=oXX$;",
"tidayww95>,;;;;;;>;===>,5557995<>=&==$;;,,,,35,55555689w9wtywt9t",
"w9w8wyyaddsiaaaapsysytww8553><5359599q999ewyyysdaaaautyyyytyw9w5",
"w78w99w9wwwwwwwwqw9964669tyyputpassayyywyyypysyytpyww95555,557w9",
"=&==;,===;;,,999909qw989w9q9552355999w99wwwyyaywqweyw55<>=====$$",
">45,3559955555649ttw99463335<<<,355999899wwytywyuyeyyytuyq9555,,",
"wyayyat9,==;3,>==$$=&===,,,;;,;,,,3554,5395,60iiweqqwaafhkddyady",
"diyyew93,;;=#$=&=,=======;>>>,535559w99999ee04345339wwww9wyyddaa",
"wtywtw555555<5,,,,>,,=>3333,,553,359999999wwwww45q9999qw9w9wwyy9",
"w9www9w9w999wwww9996663533,>,,>>==>=<><533,58041>,>5533,336599w9",
"95,=,395555,533233,,=@,@$=,,;,;,,55<>55,-3,,3414368860893,,$#$=5",
",,,4;9tyyyyywutq943,=Oh@$=,4360qeutw97,=$q:@-11,11113,,>>,$#63@,",
"@O,,$;4699wytuatpyw93$>O=49940q055w5335=++X&:,14643836669,=O,&O@",
",=&@,309w99wweeuttwq53&44343643359wwue534,,,1144480wqtt0995;@@$=",
"ttydjhgdyweyatutywq99443333443434qqq9wwtrqrrqqqqwwww998099tttytt",
"99009w9q9w99ww9w9q64633,>3,4463369qq55,>**;,1,3<14446668664638q9",
"=,=$@O@=$@OO=,,3,>3,346999qq93>,,>&@@OOO+++++@OOO*;*=;;;==$==,$=",
"O@@@OO...X...X.XX@O$$==$;@O. .XX.XXXXOOO++..o+O@@OOOo@OOOOXOXX@O"
};
