/* XPM */
static char *a2f2f32c58bf42a9a36dce48e7c1ef7c[] = {
/* columns rows colors chars-per-pixel */
"64 64 110 2 ",
"   c #020000",
".  c #0B0301",
"X  c #0F0804",
"o  c #140401",
"O  c #1A0503",
"+  c #140A04",
"@  c #1B0C04",
"#  c #150D08",
"$  c #1B0E09",
"%  c #1D1006",
"&  c #1D130A",
"*  c #230704",
"=  c #230A05",
"-  c #290906",
";  c #210F0A",
":  c #2C0A08",
">  c #241306",
",  c #291606",
"<  c #23140C",
"1  c #2C140C",
"2  c #26190D",
"3  c #2B1B0D",
"4  c #33150E",
"5  c #321B0E",
"6  c #211410",
"7  c #2D1610",
"8  c #251A10",
"9  c #2C1D11",
"0  c #331610",
"q  c #381711",
"w  c #331C11",
"e  c #391D13",
"r  c #321E18",
"t  c #34210F",
"y  c #39240E",
"u  c #2E2115",
"i  c #2F2418",
"p  c #342314",
"a  c #3B2315",
"s  c #3D2915",
"d  c #352419",
"f  c #3C251A",
"g  c #36281B",
"h  c #3D2B1B",
"j  c #3C301D",
"k  c #3E2F21",
"l  c #422416",
"z  c #422B16",
"x  c #42261A",
"c  c #432C1B",
"v  c #482D1C",
"b  c #46311D",
"n  c #4B341E",
"m  c #4C3A1E",
"M  c #51361F",
"N  c #51381F",
"B  c #452E21",
"V  c #492E20",
"C  c #453222",
"Z  c #4C3522",
"A  c #4E3924",
"S  c #493529",
"D  c #4D3A29",
"F  c #513624",
"G  c #533B24",
"H  c #593F26",
"J  c #553D29",
"K  c #593F29",
"L  c #543E30",
"P  c #564126",
"I  c #5A4126",
"U  c #57412B",
"Y  c #5B432C",
"T  c #5E482E",
"R  c #574532",
"E  c #5E4631",
"W  c #5F4832",
"Q  c #5C4C38",
"!  c #614427",
"~  c #61462D",
"^  c #63492E",
"/  c #6A4C2E",
"(  c #614731",
")  c #644B33",
"_  c #694E34",
"`  c #664E39",
"'  c #694F39",
"]  c #675037",
"[  c #6C5136",
"{  c #67503B",
"}  c #6C533A",
"|  c #715436",
" . c #72563B",
".. c #74593E",
"X. c #7A5C3E",
"o. c #6F5540",
"O. c #6B5841",
"+. c #715640",
"@. c #755A41",
"#. c #7A5D42",
"$. c #715E48",
"%. c #7A5F48",
"&. c #746045",
"*. c #7D6144",
"=. c #7E6349",
"-. c #805F3E",
";. c #836445",
":. c #826549",
">. c #86684A",
",. c #8B6A4A",
/* pixels */
"  . @ , > t z y n M 5 1 G I v M J G Y G A 3 5 G U E W  .| .. .v B +.%.,.,.X.) ^ H G o v ~ ) / ! N % 5 ! ~ H H H n z H I 9 u G . ",
"  . @ > , t t 5 m N a > A Y v G ~ A G Y J 1 1 J U Y )  .) ]  .f F %.%.>.,.#._ ^ I A o c I  .| / p + H I H G H G I H G C % A G . ",
"  . @ , , y 5 y n Y z , G ~ z G H Z Y U J 3 5 G J U ]  .' ' #.x V @.@.@.>.-.X.! ' M O v Y | | G X h ! N I I I G G F H % s ) A   ",
"  . @ , , z y y n ! a 5 G ^ v G A G Y A D 5 5 J I Y _  .| ' %.v F +. .+.,.X.X.~ W G O b ^ | / p 2 ^ G N M G A H A H t > Y ) v   ",
"  . + , , y z s b ~ l , A I b G G U Y A U p 3 A J J ~  .] ~  .x F #.+.' #.X.X./ Y ~ O A I [ A @ M I n M n P N M C G @ s ~ ) n   ",
"    @ > , y z z G I a , I / v J I J E U I 5 e J A E E  .| ( o.V F #.' } X.X.#.) ~ ! O Z I A 2 u G A N A b I N H I 3 2 Y ~ ~ A   ",
"  . @ > = y z n G I p w G ~ v I I A A J ~ e 5 D U U _ o.#.} { V V @.'  .#.-. .) ) H O b J p > G G M G N N G G I A + v ) ( K A   ",
"    @ = > y z M A ~ a 1 J I v ! G E ~ G A 3 e G U Y W  .X.}  .C F #.' (  .-. ./ ( ) $ Z Z @ s G A G M M A I H I 2 w ! ) ~ I v   ",
"    + , , z z n G I e 5 T Y v I U G I D A 3 5 J K ) ) ....' ..F F ' ' ) -.-.[  ._ ~ * V t 2 P A A Z A n G G I g % G ( | ~ ( v   ",
"  . @ , p c Z b P ~ f 5 G ~ J U U Y Y A C 3 p ) ~ ~ [ %.#.' } A F X.' [ | X.| / ( K = a + c P A M n n H Y I I + p ^ ) / ~ / b   ",
"    @ , 5 h b A G ^ x 5 G ( ~ G U Y E A G w a Y Y E )  .@. . .V C  .' |  . .[ ( ' ! @ # u G A n A M H Y I ! p 2 ~ ) ) | ~ ) b   ",
"  . % 3 t n A M I ] z 5 Y R I G / Y Y G G e 5 E L ) ) @.o.} X.Z F X.) }  ._ / ~ | Y . . n n n n b A H G ~ K @ Z ) ~ ^ ) K ( b   ",
"  X % 3 a A A A A Y Z 5 Y E n K I U G A G 5 5 U ( W ) X.@.{ ..C F ;./ | X.[ / ) ^ H   u H M N n b A H H Y 6 e ( / ~ ) ) ~ Y v   ",
"  . > 3 s G A G A I v 5 U ) Z K E T ( T ] e p U ( U T .. .` } B Z  ._ ..[ | [ _ I p % G b M y b A M ! ^ d . G ) _ ( _ ) ) / v   ",
"  X > t p A A A J ( z e ~ Y v I _ _ Y U G w p ( ) E ) @.@.` ` c J } ) _ ) / ( / M X h n c n @ p H I ^ M   + K ' _ ( _ ) ~ ) C   ",
"  X % p s G G A J Y x 5 ] E B ( _ E ( I A w e W W E { @. .`  .v F ) ) [ / _ ( H 3 2 b b b b n n ~ ^ I % $ * K  . .( ' | ^ Y A   ",
"  . % s Z G U I H J v a Y ) v ~ _ Y U T A w 3 W ` ) } %. .`  .c x _ / X._ ^ ~ s + b M M z z M G ~ / 2 5 r $ ) [  .( +.| ( ! V . ",
"  . > p A U A G ) / M a ( ^ G ^ W ~ A E U w a ( ) ) ) *...{ @.x h ] | X.^ ~ G % 9 N n b z b M H ! h # G f + ) } _ / ( _ ( _ B . ",
"  . % p C J A A Y ) M e _ Y Y ] ( ) J U U 5 x ] v W ] +.@.} *.B c E ' X./ T t # s n z z b A I ! A   ; Y f + ( | [ _ _ _ ) ) Z   ",
"  X 3 u b I T U K Y Z a [ ^ Y ( ) ) Y U I 0 s ] x ( #.%. . .@.B C _ )  ._ A % p b n z n v H ~ I # . t Y f * / | [ _ _ ' _ ) C   ",
"  X 2 9 h Y J ( U E b a { ) E W ] ( _ ~ E e f ..V ) :.=. .} } B v ) ( ] ~ u % c b N m m G I H 9 . % v ) f @ ( X. ./ ..| / ) v . ",
"  X 2 9 c I D Y Y _ v p ) ) ) ) } ] Y ) ( p v @.Z ' @.@. .' } B c E } [ n # c n n b N H I / y @ + t ~ ) d @ / [  . .} | _ ) Z . ",
"  . 3 9 b ( Y U T _ x s | ] ) {  .] ] ] E 5 a o.c o.=.#.@.} } B C ) } [ 2 9 G M M G N / ^ M & % % b Y ) h @ [ [ / ' [ } ) ) A . ",
"  X 3 u h I W Y J ( A x ..] W } X.] E ` ` 0 a  .B W  .@.%. .} B v ) ( v % N N A b M ~ ^ Y & u X h G ! ) f $ / .. .( X.' _ ! C   ",
"  X 9 g C J E E U ) A e }  .) }  . .W Q } e f @.V ) } } @... .v C ' ) 3 g I J A A I / ~ p a 3 2 Z H ! _ f 1 |  . .|  .| | ( V . ",
"  + u b A J Y E (  .G 1 { } ` `  . .) ] ` e v %.V ) o. .....} v v ] h u ~ G G G ~ / K z 2 h + z H H H _ f q |  ._ X. .} ' ( F . ",
"  # u C L ) ) ` ( } F e ..{ ) @.@.@.{ ) { l f :.A W { } ` ] ` q c D & U T G G Y ) H b & A 6 p A K J Y ) f 7 |  ._  . .} ) E F . ",
"  # u A L ) ` ' ` } K q @.} { ` o.*.} ) +.l a :.Z )  .` W ( W 5 c r C ) ~ _ / ^ Y H 9 b h > P J K H Y | h 1 ' | _ ' | _  .( F . ",
"  & g C J Q ` { }  .K q o.{ o. .@.=.} ) O.f x :.F ` ..' E ) ) 0 w u ] T ) ' Y I ^ A 9 I @ Z K J Y ~ K ) h 7 [ | | | } ' } ) J . ",
"  & k g C ) Q Q O.} K 0 ` ` `  . .%.` Q o.e x :.J E } ' ( Y ] 6 X A ] ) ( ] ~ I J & G 9 2 K Y F K ~ ! } c 0 [ | ..-. .) ' ( A . ",
"  # d C ` ` L S D ` F e @.) ` ` @.%. .) o.l a @.J ) ) ` Y L E # 6 T ( ( g Y ~ I u G b # b Y K H K J ) | v 7  .#.| X...[ ) Y A . ",
"  # k Q $.$.L C i B Z q o.` ` +.} $. .` } B a { F ) ) E Y Y Z X Z ) } Y c ~ ( C h I # e Y ! K Z H K ) X.V 4 |  .@.-.#.[ | ) J o ",
"  & D Q } $.S f r 6 e 0 ) E ` } ` o.o.) { x V @.A E ] W ( D 9 9 W W ] E ( ) E h Y j   A ~ ~ K G Y ! ) [ C 4 X.X.X...@.| ) ( V . ",
"  & C S R E r 7 6 X O 7 ` R ` ' { o.} ( } x x +.A W ( W ( h $ L ( Y Y E _ [ j U ~ +   K / _ ! A ) ) ) _ C 0 X.X.#...@.} ( ( V . ",
"  & j k k g 6 * $ . . 7 ) L E ' o.} } ` ` f e +.G ` ) E U & k ) W ( E E  .U Z } h ; o J ^ _ ^ Y ! ) [ | B 5 -.-.-.;.#. .) E A . ",
"  & > 6 d r ; $ O X + 6 K L ] ) ` ' o.` E a a ' K E } ) u 2 Y ) Y Y E W U h  .E & v o E ' | ) _ | | | | l 1 %.;...;.} @. .) J . ",
"X &   X 6 r ; O   X r 6 G D ) E ' ) ' ` ` r B ` F ) R J & D E Y G E W W k W  .u h K O Y ) [ _ _ ) | _ ..F 1  .#.#.;.X.| ) ) A . ",
"  .   # $ X .     . t 1 h J ) L ( ( ` ( ) a x ' F E L r i E Y L U W ) D U ..A 9 ( K O Y ) _ _ ^ ) ) K  .A 4 } | -.;.#.#.' ' J . ",
"    . $ 6 $ X o o . h g 2 G Y L ( ( ` K K a e ` A ) b 6 E E U U W ] W U } ..9 A X.Y O K ) _ ..I ) K ) [ B e  . .%.;...) ' ) J . ",
".   # $ ; ; ; O . > P p + Z Y Y K L ` K ) a d ) J U 8 k E E U R E W R  .@.A g ] X.) O ( [ _ | ~ / ) ) ..x 0 X. .#.-.#.X...` ~ . ",
"    & p 3 & 6 2 p n P p X n E J K L L ( ( a f ) E h 6 R U ] ) W E R ` @.` 9 R  .@.( O ( ) [ _ ) [ _ Y ..b 0 X.#.#.;. .@.' ' A o ",
".   & s m b C P P s T 9 . g J Y K K K ( E a r E D 2 S Y ) ' { } ) W  .+.j g Q @.@.Y * ' ' } _ ^ _ ' Y } v 5  . .;.;.|  .' ) C . ",
"  . # p c n A b b b P + + n I Y ( E L L ( e q R g 9 E R W { @. .Q } +.U 8 T {  .:.[ - ....| } _ | ] W } c e ..X.#.@.@.} } ) C . ",
"  . X 9 y b N b z P g   2 N E J K K ` ( R r 0 S 6 D E E W } @.` ` ` O.9 g Q ..@.:.) - @.:.| ..]  .[  . .B e *.#...#.#.| [ E v . ",
"  . o > u z b b G n . . s A Y L K E ) E E 5 e 9 g E Y E ] @.}  .` o.D 2 E ) @.@.%.' : o.-.}  .}  .} ' } B e X. .X.*.X.} ' _ n   ",
"  . . + 3 y m z 5 .   + Z F Y K ) ( ` E ) e $ 8 J Y E } ' o.&.@.} ` r A ] { +. .%.` : +.%.+.;.'  .} ]  .v w .. .-.;.X./ E ' c   ",
"  X + . X X @ .   + = $ A K G K ' ) ( E R 7   C W ) _ E ` @.*.} o.k C ) ] ) } X.%./ : +. .' =.| } } E  .x f ..[  . .[ } / E c   ",
"  + 3 , , > + % > c a $ K Y Y ~ ' ( E E J & & ] (  .] u ) >.} { R 8 { [  .( { &.%.) * ' @.) @.| )  .( X.3 n  .] } X.)  . .Y b   ",
"  . 3 y y c p s z G a % K K ( Y ( ( E R B + D ' ] | ' ' @.@.{ } u C | [  .R ` +.;.[ * } ;.X.} ' ] ( W } 7 V ..| ' #.' ..X.Y v   ",
"  . 3 h s n b b b U l < G Y Y ( _ ~ Y Y % u ( ] }  .@.@.`  .&.C $ R #.| } T {  .@.' * } #.@.@.) ` _ ~  .1 Z ' )  .'  .| | ^ c   ",
"  . , h s A A c A A p 2 K Y ) ( _  .E h & ( ]  . .X.#. .@.@. .# 5 +...| ] _ }  .@.) *  .#.' +.` ) [ ~ X.7 C } ] ..)  .[ ' / b   ",
"  . , p g m A Z M I l 1 I Y Y '  .' J # S  .]  .@.@.} } O.@.S . x @.] ] ] ] .. .@.( * } X.( ' ' E ] E ] 1 v [ Y  ...' ' _ ( z   ",
"  . > 3 s b C n M Y x ; Y ) _ [ ..( g 2 ) ]  .@.;. .}  .O. .i = x @. .) ) ` @. .} K * o.-. .} ' ) E T ( 1 v ' _  .#.' [ / Y s   ",
"    % t s n n b A K v o J ) ' |  .Y & Y [ X.X.#.X. . .{ O.g S 1 l %. .' E E +.' } K * ' ..[  .' ` ~ E  .7 b _ ]  ...' ~ ) ~ z   ",
"  . X , y n n c M A v o A ) [ [ ] p f [ } #.#.X.{ ]  . .J 8 { 0 l #.} ) ) } } ' @.K * ` ..'  .' ` ' / ] 0 B  .' | | ^ / _ / Z   ",
"  . @ > t j b n G A l O ! H _ ) n > ' [ }  ...} ) { ]  .8 k } 5 l @.+.) ( ' ' ' X.) * ' ) ( | )  .] Y W 1 V } ) [ | ) [ | ^ C . ",
"    + , t b N n U A l o K H ) ! 2 c [ [ |  . .] } )  .k 8 W =.4 l X.#./ ( ) } } ' G = ' Y G ) ) ] _ ] ' 1 v ' E )  .| _ | ) M   ",
"    o , t Z n b A G a o Z A H s % ~ ) [ / [ W ) ] ] ) & Z { *.0 l %.X.[ ) ' ' ' ' A * ) ~ K } ) ] ' ' ] 1 B ] Y ( } |  .[ ) A . ",
"    o % t s Z n G A z . A N n + b I ~ _ ] | ] Y W ] d d E ) @.0 l @.X.@. .| ) ) } G * ) / ! ' ' ) ' W E 1 c ) Y ) } ) [ | ) Z . ",
"    @ > y s N b A A z o b b 3 1 ^ Y Y ~ ( [ I E _ A & A E Q @.4 l -.#.#.} } } )  .) O ) ) ) }  .)  .( E : h E E [ } ' ) ' ( C . ",
"    @ > p c m A G H x . z y + I ~ ! ( _ ^ Y U T ( 8 b ( ) ` @.4 x :.#.;. . ...] ' ~ * E ) ~ ..' ( } ( ] : c E ) ^ ' ) ( ) I Z . ",
"  . @ , y c A m G A s   z + g / ^ ^ ^ ~ G U ~ _ j u ) W ( } $.q l @.#.,.} .._ _ ' K * ( ) Y  .} } @.} ( 1 F ) ] ^ ' ' ) ' ) L . ",
"  . > > y c n M M N a   > @ ~ ^ ^ ~ Y I A E _ U # A ) ) ) } @.q l %...%.@.} )  .) ) * ) / ^ ] _ } ..) } 0 A } ] _ ] ` ' ] ) A . ",
"  . @ , h s M n M N a   . b ! H P n w A I T W g 9 Y ( T )  .%.e x ;.X.=. .] { } ) K * [ ( K ..) `  .` ` 4 J @.| }  .~ ' ' Y Z . "
};
