/* XPM */
static char *e5401c925040410ca1ccf7ed57af19b3[] = {
/* columns rows colors chars-per-pixel */
"64 64 67 1 ",
"  c #6D4E26",
". c #6F5227",
"X c #6F592A",
"o c #725725",
"O c #745B27",
"+ c #72562A",
"@ c #765B2B",
"# c #785E2C",
"$ c #775A31",
"% c #795E31",
"& c #7A622D",
"* c #776137",
"= c #7D6434",
"- c #7F6B33",
"; c #72633D",
": c #7F6538",
"> c #7F6C3D",
", c #7A6C40",
"< c #816A35",
"1 c #81673A",
"2 c #836B3C",
"3 c #8A7235",
"4 c #86713D",
"5 c #8C753D",
"6 c #876E40",
"7 c #886E42",
"8 c #867343",
"9 c #8B7444",
"0 c #877847",
"q c #8A7846",
"w c #85764A",
"e c #8E7449",
"r c #877848",
"t c #8C7B4C",
"y c #927A45",
"u c #90774A",
"i c #947D4D",
"p c #987F4E",
"a c #8E7E51",
"s c #957E51",
"d c #987F53",
"f c #97804D",
"g c #98804E",
"h c #948153",
"j c #9B8354",
"k c #968559",
"l c #9E865A",
"z c #9E885C",
"x c #A0875B",
"c c #A1895D",
"v c #9E8C62",
"b c #A48D63",
"n c #A88F65",
"m c #A59066",
"M c #A99166",
"N c #A6936A",
"B c #AA956C",
"V c #AD986F",
"C c #B0986F",
"Z c #AB9770",
"A c #AD9A72",
"S c #B29D74",
"D c #B49F78",
"F c #B5A077",
"G c #B6A179",
"H c #B9A47C",
"J c #BDA780",
/* pixels */
"njjjdlxM7o#<<#smb@$bljjsjzllzMBZBBZZAGFk0,f,kFvAmhvNkvZAk0hhkkZN",
"cbjhszlce&X2&&2=jssbzjjpjjjjccMAAAZZAFFzhkhhkFAk0hNAh,hh,hvrhrNA",
"MnBcjjjcbi2&O--@&nnxcljjlbbbAFANFAABZNhhAFNkhFHhhkmmhhhhh0hhh0hv",
"8qmBpjhjMde=#4##&dnxljphlxxbZFNSFAFBAmkmAFFhkHHvAk0-,kkh,,hkhh>h",
"trzSNbljnde%X&#O@nCnjdidgljVMSZAAAAAAZAGHHHFAAHFFABbjVAh>;htr>-f",
"tqvGAzbcxnnbp4 =@tFnxljcxcbNNBNNNAAASAFFFGHGAAFAAASmmSf4=*0h0&&,",
"thZDVzlnMMMBue$O#jxcjMnMcllBNAZNAAAHFFNFFANGAFAAAZmNVCz3&<0t-O0h",
"tzDGSzdcBdbb2d1u7nncjbinMzjbZNmbNAASFFHAAFmAAZAAAZvvcmFSB&-=fNFv",
"AADSVzlcnnbnb1.uccxllbMVbzlbbNvnBFABAZAAAHFAANNAZNNNNNZBF0<fNBCG",
"SSSSASlnbbdnMl<inxcxlbMnxxzcvNNCMAANvvZFAFGAAAZFGDZNABZMVBBSSCCH",
"SSHSFGMBMBnBiunccjxlxnnnblxldjbCNZBAZNZAAAAANAZSJSNNZFNvcBAFACFH",
"GHHHASMnjenlo1jcjpjxbcMbxjpxzcbcmAABNmAAANAANZvAFNAFFBZNBAAbccVF",
"ZSSNABmt%%MMdncxxdlnMnbCcgjlxjdcNFHFZNZZZZZNNNAFNvABSSDDBSCBBBCH",
"JHvrvk4O=inbCMMccdxlii2MclplxxjxmAHFZZZZVZZNZSVFABSFHZFSBSCBBCnC",
"BbkrDvhhiMMMMnbjcbnld7encllnjbllvBFBAABBAZNNSAFFFDGJHDSNADHCCCCC",
"94t4hzAGAADCxbclccbCB7<Mcllb9bljjcAZAANBANNZVZHSASJGGSANASAHHHDC",
"=#2=NFFFDAAFzmbzzlCMp2pnvncb4lnckvAZANANZZNNNmZGDSFHGSZZSFmvAHHF",
"#+amAZBBAAAABmBczcMMjxCnMBMMuznlzAHAAAZmAFNNmNNHFZZFGZZZZSvfkkNk",
"45MFZZZZAAAAHNczjnccMCBGBDVd1ibbcmNFAAZZGAZNNNZZAAFFANNZAAAhfh00",
"ztNSZNZFFZZBNMcccnxnBBBNjvd=iMxxblvAAAZZAFNAAAANNNNZmNZAAFSNv,fv",
"HAHAZBGNASBNmBblBb4lMCcu54+#=77ucncCZZZZZANZAFZNZNNZBZZAZAFAANZH",
"JHFAZNZZNDNFAVmlMMdxcC4<<1@<O#%%fcbVvZZmZNNAFGAZSSZDFZZZZAZZZAFF",
"HHSAZNZNvzhAFmllxbcnxcV8#O$$++%ub<BczmNmNZZAAFFAZZNFAZZNNANNNNAA",
"AFAAZNmAABzNBmjjjlxxjlMB2exdb1%djjVlkNAAZNNAFFHHAAZAZAZZZANNNAFA",
"AAAAZBZBGZZvCCNgidlxlblCp2Bnd$+:<BCMBABNNBNZAZHFAAAAFANAAZmNNAGA",
"AAAFABZZZAAAlMFlppjnbbBBzsBi%@=9-lCCBNmNNSABBBAAAAAZZZNAAZNNNAAA",
"AZmBZBNBNBZFMSVlplcbxlcMcxx1.@ucjkVnzmmmmGFSZZBAANNBZABZZZZNNNNZ",
"NZBBZBBAZVvACMBcpjpdbMlccnd$ #lnbcbnzmNjbFVAAAZNmBBvmZZAANNAZNNN",
"ZNZNNFFFGFBbcMjcclxjjBxcxBd$+2bMbBxxjzjbcmBbBFBVAFGVvZFFANNNNNAN",
"AAZNSAFFAmzjlg35yggljxljnMb5#%dbMcclljlfBBmvNACHACVVmNFFAZNNNNAF",
"AZZZFAAAkfgf5fff3ygnjjgdbnnCe@xMCczbljlbmBAVNASmVBNZmAAAFZNNZNNF",
"FAZZFGZvf3fjcjjcccBMlgjjjjcx77jlCMmclcxjfcBCvNmBFBmvkkAAAAAZZNNF",
"FHZNFHFvjy5xjyjcxlxljpgjpjcc&tqzSccxllg555cBljbMbjbbnbMnBCAZABZS",
"FHANAHFBf533yygCMjfljlzlcnnBi2cbMccxgjblxxcMMglzcMBBBBMcbcNBZvSS",
"ASHFFNccy3yycccnbjcnMMnMcDHnnOuMBMMcjglllzsjzjjcccxMCCBbjlcmNNZN",
"HZHHzflNMjlMMcgcljcnBnnBCSBxBb4bcnBxjiilxhjjjgxxcxcccBMbxjcMNZZZ",
"HFSFmjjcbnMBnjyjxgxBMCCBFCBbMzjNVBcziufjccjcBbzcbxBjlMbjzgcxNVCB",
"NNNABmjffgBMbbj3jlgnMBMMHCnxj&-zDngfgpjlbMbMSMMbMCAzlcbjjzccMBSA",
"BANNAmbjyfxxxcf3gnljbnMVHCCMj&-1xbjujjlbcbMMVbMncMMblccjzMNcMbMB",
"kvZZFCAmxfffglf3g5cpjlcbHDDS9X##dBlpppcbMBbclxjMSbljljbbbZZMMBNb",
"jmmMmVSVCbcjzcf3ynlpilclBbxC9$7@4nMljzcMMBMcppubSMclxcBZZZBCVMSc",
"lAVzvZmBFSMlCj33gMzjllccnbxncnMs=dBzcccnnMljljlMnMMlVZZSANVBCBbx",
"cMAmmVBNHSSFBB5gMljjlcBjbBcligcMMBcbMBnnBBlllllxccczbMMVZVVncxxl",
"MxBMzMBAGVMBMvycnbxglbBpMclljlcbBbncMMblnBMcdljjbMlzMbcnbbBlxgll",
"jzNmNZBZBAbjZBMVcljjcxxMblbNbzlzccbzlxxxCMBbjjxzcMMMMccczcBzbjil",
"fmmbbZZNbmSBBBbmjlypjlcbljzBZbbzlcbcllnMynMxjxxxcBBbBncjlcCMMzjg",
"zNNNZBZNNBmmjxMlfsjjlxBnjlmBNNNjjljxjlbbiiBccccxcBcBcczjxjBBbcxl",
"jMzbMBZBNbmczjlnzlpplbxnjjbBjljjjxpxjjnBnnccnxxxxcMMBcxlcxSABxzl",
"zBSBBSMMAANNMBZMlzdjlxcxjjldixbjlljjpjnBBcMcMBbbxxbblbczbMZZZvNm",
"lBHHGSZZSHGAFFZMjjljdbnxcjllhzMMbxlljxMMnMbcSMbMnlxxlcnNBNZNBmNv",
"McCSSHFSFGJHGSNZblljxnbxxjljslxbBbcllccxcczcASbzbccxbzbNSAZZNNNm",
"AMnBBcVFGHGBBCBFnznnuunbcjjjfiplcbMMncxclljbMDAzMMxNAmlbZZZNNZNN",
"MbnMCBHFbbMnSSFCDDuMd1lBCnlljljzxMZBDBjxcgBAZSSBZZBFFnjbNBNNBASS",
"SBMMSBVAvt4=VCMMVbO1iex2cxxjglxlzBZBBMbxxlBGGFFZZVVBAbjzvzNANNZD",
"FVMbCh5kq=42zBlld 71+iBuBxxxxBnxMAZbNbcnnxMHSZGVZZAczzllzvZNNZAS",
"bMBcbz8=#+=ut84bn+ucdcMBBccnMnbcBBZcb19cBBMVDGCBBMbbbMcbmmZAZNbv",
"ncnMbMu&<u=cBbiVC2=nMCCCxjjjxllxzzjll@=1snldBCnbMCbnblzMbmABcllb",
"chlbcbx4871MBFb8epbbx2CSxljiljjxljjnx@++#=6ljbMnSFSMbxzzhjzljzjb",
"zlllllMnxnpbbc7&Obb2idDScjjjyppjljlnb=%&&#aMnBBDFSCbcVzccjjjjlll",
"chplpcnCV9cCbMj=#ejBMCCMilcjyppjlgjcnMfqa86-sCDBFBFBcMBVMbcMjjjg",
"ljppplcBb9lbejbt9eeMVBMljjjgpjjjfjjMnBjrhkr,8rhtBDFHZBZZBBSCbccb",
"jzspjppcd9e#O#7lMjjnbmNzcllcjlxjllzzBDkrhwrt>fvZFHDHFZZADGmziMcz",
"jljlljjbx11+&<4cBCclbcbupljbxcllcczcDHvtkhthmVFNBHDSAZZFGJvt0hbb",
"jlyzxdcBjO+%4@2nBusbcljyyljlnMblczNZSDlah00tBFZSjjSHSGHHbhtrtiBn"
};
