/* XPM */
static char *a9c3419c21f846e9a7f2a13c0a9759bf[] = {
/* columns rows colors chars-per-pixel */
"64 64 255 2 ",
"   c #020101",
".  c #0C0000",
"X  c #0B0A0A",
"o  c #140101",
"O  c #1B0000",
"+  c #160A0A",
"@  c #1B0A0A",
"#  c #191313",
"$  c #240000",
"%  c #2C0000",
"&  c #250B0B",
"*  c #2D0A0A",
"=  c #330000",
"-  c #3C0101",
";  c #340A0A",
":  c #3B0B0B",
">  c #2D1313",
",  c #281A1A",
"<  c #341212",
"1  c #3D1313",
"2  c #351D1D",
"3  c #3B1B1B",
"4  c #292424",
"5  c #3C2424",
"6  c #392828",
"7  c #3A3636",
"8  c #440101",
"9  c #4B0201",
"0  c #4B0A00",
"q  c #440B0A",
"w  c #4B0B0B",
"e  c #530300",
"r  c #590600",
"t  c #540A01",
"y  c #5A0B01",
"u  c #530C0B",
"i  c #5A0C0A",
"p  c #561105",
"a  c #5D1201",
"s  c #5C120A",
"d  c #431313",
"f  c #4C1313",
"g  c #431A1A",
"h  c #4B1B1B",
"j  c #541414",
"k  c #5A1513",
"l  c #5E1A14",
"z  c #541C1C",
"x  c #5B1B1A",
"c  c #620C00",
"v  c #621401",
"b  c #641B02",
"n  c #651809",
"m  c #611411",
"M  c #641D14",
"N  c #6A1C12",
"B  c #631C1B",
"V  c #5E221D",
"C  c #6B2106",
"Z  c #65231B",
"A  c #682719",
"S  c #6B231C",
"D  c #72291A",
"F  c #73311B",
"G  c #432323",
"H  c #4C2121",
"J  c #462C2C",
"K  c #4C2C2C",
"L  c #532121",
"P  c #5B2323",
"I  c #532C2C",
"U  c #5B2C2C",
"Y  c #443131",
"T  c #4B3434",
"R  c #4B3D3D",
"E  c #543333",
"W  c #5C3232",
"Q  c #533D3D",
"!  c #5D3939",
"~  c #622524",
"^  c #6B2624",
"/  c #632925",
"(  c #6B2B25",
")  c #632C2C",
"_  c #6A2D2C",
"`  c #722D26",
"'  c #752C26",
"]  c #6F3028",
"[  c #73332B",
"{  c #75372A",
"}  c #643333",
"|  c #6B3333",
" . c #653D3D",
".. c #6B3B3B",
"X. c #733532",
"o. c #793732",
"O. c #743A34",
"+. c #7A3B33",
"@. c #753D3C",
"#. c #7B3E3A",
"$. c #7C433C",
"%. c #7D493E",
"&. c gray30",
"*. c #544242",
"=. c #584747",
"-. c #5E4C4C",
";. c #555454",
":. c #5C5252",
">. c #634242",
",. c #6C4444",
"<. c #644B4B",
"1. c #6C4A4A",
"2. c #744343",
"3. c #7C4442",
"4. c #7D4A46",
"5. c #744C4C",
"6. c #7B4A4A",
"7. c #655353",
"8. c #6C5353",
"9. c #615A5A",
"0. c #6D5A5A",
"q. c #745353",
"w. c #7B5454",
"e. c #725B5B",
"r. c #7B5B5B",
"t. c #6B6262",
"y. c #696969",
"u. c #736464",
"i. c #7B6464",
"p. c #746A6A",
"a. c #7D6B6B",
"s. c #757272",
"d. c #7C7272",
"f. c #7C7A7A",
"g. c #823829",
"h. c #813E35",
"j. c #844837",
"k. c #8D553E",
"l. c #874B46",
"z. c #834C44",
"x. c #824D4B",
"c. c #83524B",
"v. c #8B5548",
"b. c #8B544C",
"n. c #91584C",
"m. c #835453",
"M. c #8A5654",
"N. c #8B5A54",
"B. c #835C5C",
"V. c #8B5D5C",
"C. c #925C53",
"Z. c #925B5A",
"A. c #8F625F",
"S. c #956153",
"D. c #94635C",
"F. c #9A675D",
"G. c #846464",
"H. c #8C6463",
"J. c #856B6B",
"K. c #8B6B6B",
"L. c #936462",
"P. c #996561",
"I. c #956B67",
"U. c #9B6C63",
"Y. c #936B6B",
"T. c #9B6E6C",
"R. c #847474",
"E. c #8C7474",
"W. c #857A7A",
"Q. c #8C7B7B",
"!. c #947474",
"~. c #9B7473",
"^. c #937B7B",
"/. c #9B7C7C",
"(. c #A4776A",
"). c #A2736D",
"_. c #A27572",
"`. c #A47A75",
"'. c #A97D71",
"]. c #A27C7A",
"[. c #A97D78",
"{. c #AC8376",
"}. c #AE8576",
"|. c #A5817D",
" X c #AA837D",
".X c #8D8383",
"XX c #888686",
"oX c #948383",
"OX c #9C8383",
"+X c #968A8A",
"@X c #9C8B8B",
"#X c #969494",
"$X c #9C9494",
"%X c #A38483",
"&X c #AC8582",
"*X c #AE8A85",
"=X c #A48B8B",
"-X c #AB8C8B",
";X c #B08883",
":X c #B18D8A",
">X c #B4928D",
",X c #B9958D",
"<X c #A49393",
"1X c #AC9393",
"2X c #A49B9B",
"3X c #AC9B9B",
"4X c #B39493",
"5X c #B99794",
"6X c #B79897",
"7X c #BA9A95",
"8X c #B49C9C",
"9X c #BA9D9C",
"0X c #BDA29E",
"qX c #A0A0A0",
"wX c #ADA3A3",
"eX c #ADABAB",
"rX c #B4A2A2",
"tX c #BBA4A4",
"yX c #B5ABAB",
"uX c #BCABAB",
"iX c #B3B1B1",
"pX c #BDB3B3",
"aX c #BDB9B9",
"sX c #C2A39F",
"dX c #C1A5A3",
"fX c #C4A9A5",
"gX c #C3ACAC",
"hX c #C9AFAC",
"jX c #C6B0AF",
"kX c #C9B1AD",
"lX c #C4B4B4",
"zX c #CAB4B3",
"xX c #CCB8B6",
"cX c #C4BBBB",
"vX c #CCBBBB",
"bX c #D2BEBE",
"nX c #D4C1BF",
"mX c #CCC4C4",
"MX c #CCC9C9",
"NX c #D3C4C4",
"BX c #D8C6C3",
"VX c #DBCAC5",
"CX c #D5CCCC",
"ZX c #DACCCC",
"AX c #DED3D2",
"SX c #D8D6D6",
"DX c #E2D5D4",
"FX c #E4D8D7",
"GX c #E4DBDB",
"HX c #EBE4E3",
"JX c #EDEAEA",
"KX c #F1EDEC",
"LX c #F5F3F3",
"PX c #F8F7F7",
"IX c #FEFEFE",
/* pixels */
"bXgX5.< $ $ = $   . O $ O O o O % = - - 8 = $ % $ $ % % $ $ $ % = - 8 - - - 9 8 O - 9 e e e 9 9 9 9 8 L 6.G.K.G.u.t.w.m.5XbX9XtX",
"BXBX[.4.x - = * *.7.0.r.w.w.r.q.w.B.5.~ u 9 8 8 8 - - 8 q - - : q 8 - - 8 8 - 8 $ 8 y r r r y i ' l.Z.P.T.[.].T.T.%XtXzXHXHXsX_.",
"4XjXdX Xx./ f  .wXyX3X8X8X9X9X9X0XgX9X/.z.B f q u w ~ | W } } ) } U 1 : 8 - = = O $ 8 9 s N ' #.Z.:XdX;XP.M.C.b.Z.jXPXIXIXFX:X^ ",
"`.5X>XD.F.>X].-XpXi.P .. .$.%.@.%.x. XjX9X;X).D.M.V.].>X-X1X>X1X1X=X^.5.L = - = . O = d 4.T.>X:XT.M.h.' B N s B Z.FXIXDXdX6X9Xx.",
"@.&XdX$.[ `.BXHXlX..8 9 8 p a a e v %.).).).(.`.[.[.T.Y.Y.Y.Y.H.H.H.Y.~.~.V.6.| Y *.8.OX<XJ.J.r.! u 9 8 9 e M M.dXHXnXV.G.%X-XY.",
"f Y.zX3.e s VXIX8Xw.k u e 9 e e r y r r c n g.b.Z.S.Z e 0 8 8 8 9 u O.].gXAXvX&X=XgXCXIXmXK % o O $ ; - i P G.bXKXNXN.y x.5X|./.",
"w ~ N.(.+.e xXFXG.~.|.H.H.2.9 e e e y e r r v c i a y y t e 8 f } H.tXvXjXBXNXgXpXbXCXIXGXi.Q >.Q R Q E K.lXuXjXVXtXl.c v.9X9X:X",
"t t ( hX Xi _.fX/.Y.T././.~.w.X.B 9 r r a c n [ #.+.$.3.$.$.c.%XOX%XjX>XG.K.Y.!.J.Y.).7X9XY.Y.<XpXaXpXiXmXmX^./.lXT.X._ V.9XVXtX",
"y y [ bXfXP X.:XAX6.e ..2.G.8X4XB.~ e y y i X.4XNXdXtXtXtX0XlXDX8X5.5.L 8 - 8 - O = 8 Z $.6.!.uXJXIXPXIXmXu., 7.jX<.G J.J.3XPXxX",
"% - f OX%XW w 6.vX-X3.j 1 L  .!.rXlX=Xm.6.m.~.-X~.....2.5.5.5.w...h d - - = = %   % = - f @XzX1Xi.t.e.i.t.f.XXf.;.& 6 aXf.f.IXmX",
"    X &.XX^.d d E.pX/.= O O O 6 2XPXCXQ.1XuX8X-X5.: = = % % % = = % $ - = $ O o X + @ 5 0.cXeX7..       X t.GXeXX X 9.SXy.R CXiX",
"O O + ,.jXFX@.9 ^ |.].w - - = ;  .pX#X0.jXmX6XgX9XI.] t 9 8 9 9 e 9 % 8 - = - P ) H I =XZXlX5.8 8 $   O % 3 lXrX1 >.3XlX>.: R.oX",
"= $ @ 2.gXDX .9 ~ /.^.: $ $ $ % h tXd.> <.8.,.NXKXxXgX*Xc.%.k.N.V.m.8.q.M.m.|.gX-X/./.gXdXM.l e e 8 $ % ! W.uXK.- G.3XG.d w /.=X",
"= $ @ q.1X1X) 8 ) %X!.q = O $ % d +Xy.* $ O O yXKXzXmXbXdX0X6X}.|.]..XOXOX%XuXNX>X~./.!.2.e e e e e z N.6XgXOXI = E.=XG % I rXwX",
"% O X e.@XG.h - ) %X~.q - % $ $ < 1.y.w.1 $ O y.+XG. .B.xXHXzXc.( ..*.q.w.q.1.I g 1 d u w 9 9 e r k H.DXVXD.| - = OX3XU = U tXpX",
"= O X R @XwXK $ I %X~.w - = = $ * E s.].V - - E R.+XK 1 r.vXBXV.4.c.G w w f ; = = % % % = - w @.T.-X6XkX'.F b p ) uXtXz 8 | 1XlX",
"8 % o ; OXAX>.= I OX!.q 9 - % % q I d.OX~ - = h R.mX7.O $ ^.DX-X|.].<.P k 9 8 : : < 3 3 3 3 5.tXDXmX^.z.C v v D S.kX>Xs 9 X. XfX",
"t 8 % - x.tX%.s _ %X^.q - - - = ; E s.^.V - 9 9 q.xXH.- = =XLX9XY.T.tXjX-Xz.^ | ) r.2X3X<X+XvXGXuXw.3 s a a c D S.}.U.b t O.;XhX",
"v r - 8 Z C.U.z.' [._.q - 8 8 8 - } d.^.z 0 9 0 O.rXH.: % 8.vXGX4Xx.r.5XkX&XT.(.~.!.J.R.i.a.CXJX!.d $ t a v c D S.{.n.b v O.>XkX",
"y e 8 9 e ^ :X[.S T.].u - % = % : } J.^.P 0 0 9 | >XB.f = : J.LXCX6.$ ~ ].|. X|.}.v.e - % K wXmXr.> o e b b v D S. XS.b a { >XhX",
"- - $ = q ) %X~.B ~./.q = % $ O @ K d.Q.H = = - | <Xr.< O 5 i.2XCXmXt.3 d z P L H d 8 - g Q.yXyXoX7   = 9 9 - z m.].B.8 -  ./.tX",
"- 9 - - q J .X!.L E.^.q 8 - = $ * T R.Q.z - - = W 1XG.d = E i.0.Q.eXmXQ.: O $ 8 = 8 9 8 >.mXwXa.#X=.$ = % - 8 k x.`.M.e X.H.5.|.",
"e y r e i ) %XT.B ~.`.i e r t 9 q W Y.].Z y y t O.7XI.C v +.U.H.L K MXAXY.g % t t e e k H.xXE...OX5.8 8 8 8 - M b.[.C.y T.4Xl S.",
"0 t y y i W OXT.B ~.`.i e e y e u _ ~./.P 9 t 9 X.6XF.M C j.(.U._ 9 ,.gXCX<.o 8 a p ~ L.].2.} w.6Xw.9 e 9 - 8 ( T.,XS.c ).>XM B.",
"- t t p s ) OX).B _.`.i e t r y i O.!./.L 8 e a +.5XD.N c j.{.}.j.t 0 V.AX<XT - 9 O.|.:X5.-  .3X=X@.8 8 8 9 8 @.fX>X$.y U.*XA H.",
"8 9 0 t n _ OX~.~ _.`.i e e r y s X.Y.^.H - 8 p j.5XP.m e +.(.{.j.c t ( ~.cX^.- 8 Y.AXI.9 9 ].CXr.d - 9 9 9 - r.ZX~.i e T.:XA A.",
"9 - 8 8 9 P =XOXx ~./.u e e e e s ] !./.z % % - O.5XZ.i 9 X.).'.j.c t b [ cX<Xd x.|.A.~ p 3.jXbX) = = 8 9 8 2.~.!.} - 8 Y.-XM D.",
"r 9 9 9 w  .Q.i.z !.~.u e e e r p +.~.[.L - - - | 4XV.M e X.)._.+.a a v C ].OX2.~.M.8 8 z ~.uX`.l 9 - = 9 l %XOXh = $ = K.&XB L.",
"e y y v [ E.r.W ~ /.~.: - - 8 e s O.`.%XP - 9 - | -XD.m y o.).).h.r r y C O.~.:Xz.w 8 = L ].!.} t t y 8 w | %XY.< % $ = K.=Xx A.",
"9 e 9 8 4.3X..i _ %X].w - = - 8 u `.tXY.g $ % - } gXT.m y o.(._.h.c c r y ~.VXnXk.p 9 - U %Xm.w 8 9 r e ..9X1X1.= % - = K.=X) P ",
"- 8 8 9 M.gXU 9 _ %X].q = = = 9 X.BXjXX.: $ O 3 G.MXI.u 9 X.Y.~.o.e r N l.zXKXVXS.b e z G.<X,.= = % - - J.GX/.x 8 - = = G.<XW = ",
"  O % % 5.wXT % K .XE.* $ % = h H.AX-Xw - % % d.mXiX=.$ $ E a.R.E - 8 H.ZXuX8XuX!.L - B.uXrX*.o O o . O e.xX .- = % o o u..X6 Y ",
"O o % = 5.8X} % K XXQ.8 - - - ,.=X1X3.0 0 0 - <XcX;., o O 1.E.T + * 1.tXNXM.l.&X~.U 8 _.zXV.h $ $ $ O 6 OXpXU 9 8 O $ $ ^.3X2 7.",
"% $ $ % 1.rX! % J XXR.d 0 8 d Y.1X..q p b b M 0X=Xo o $ < ^.1Xh d ,.-X3XG.9 m T.Z...X.[.'.N p 8 % $ < .XpX%XP 9 9 $ 9 k tXuX< r.",
"$ $ $ O -.pX..- I s.J.- - q U !.|.A 0 0 t A B.NX4XO = u 2.jXZX%X-X6XB.) u 8 k A.6.!.NX:X' a a a 9 - H lXyXI 8 - 8 . q 3.dX1X= 5.",
"= $ $ 2 ^.cXQ = h f.+XE - w @._.!.f - - 8 O.4X8XB.O % / 3XLXIXZXbXtXV.) ^ ' M.4X;X6XNXM.i e y c a x r.NX+XO = 8 9 % 4.zXtXB...K.",
"8 - * <.wXuXE % : XXpXq.d - W Q./.V 0 0 8 2.9XB.d . + 5.BXPXKXNX-X~.~._.].T.:XzXbX8XM.B r r r a a v.0X8Xq.= = - e h -XKXY.U 1X4X",
"8 0 : 0..Xu.3 = L 2XyX) 9 8 L 1XcX! = 8 0 3.3Xw.% o 6 OXvXrX!.!.Y.Y.H.H.Y.H.Y._.bX1XB c r e e y t T.ZXI.j 8 8 9 t u.fX:Xz U CX<X",
"= 8 : e.d.Q * = } <X-Xu t t w /.cXq.* % f x.%X} % 5 R.rX]. .d G T W E  .| ..) ) uX-Xe e e 9 e e i _.zXO.8 8 8 e t Q.5X{ ~ K.MXJ.",
"% % * 0.R.0.> $ I Q.R.8 8 9 9 m.-Xr.d $ W Y._.^ S !.rX-X@.d = % % % $ $ = = - 8 %XOXw 9 9 e 9 i ] Y.Y.x 8 - 8 - 8 E.`.f H.jX%XW ",
"% $ & r.R.7.> O T XX^.t e e q /.bXr.= % R u.E.&X9XtXB.x 9 9 8 8 8 - = = = - 8 9 } u.1.j 9 9 9 l T.`.#.w - = % = H eXrXd G.8X@.d ",
"% $ & 0.W.:.> o 6 2X3XL 9 - z -XcX .= $ 5 J.iXNXgXJ.H z P d - - - 9 - = = = % H } d.aXG.j 8 8 _ 1XY.w 8 = = = : *.iX$X& r.@Xd 8 ",
". O & :.f.;.# . @ #XiX:.@ O K Q.oX3 $ O + .XIXcX=.O R XXQ.Q = - = = = % $ % 6 s.f.iXIXMX;.o X &.+X8.= = = O % 3 :.XX9.  y.#X4   ",
"$ 8 w 1.J.8.3 % % wXSX7.@ $ E %X%Xh - : i.GXIXCXoXJ.u.p.J.Y./.~.].[.[.[.`./.3XlXQ.Q.mXHXMXQ.E.=X1X4.9 e 9 = = z m./.<.  6 a.d.7 ",
"% = : B./.q.< % 2 2XeXY . > i.3X!.j 8 >.vXKXMX<X^.<Xe.J E I.4X6X4X4X4X5X4X1X3X=X1.I 1.2XmXNXMXtXH./ 9 t - - - / T.I.} O / !.wX8.",
"% - h 4XfXM.: 3 0.R.<.& O J xXtX .= I <XvX3X2.z d f : & - w j j l k f j j j j u q - : < E <XxX%XB e 9 e t 8 - 1.tX3.q $ H.gX1X .",
"8 = P gX0X] = E 3Xq.< O $ I lX~.w f G.tXK.E ; % - - % - 0 a y 9 t e e 9 8 - 8 9 t 9 = % $ E 3XrXf 9 9 9 9 t 8 5.uXX.9 % ~.tXm.j ",
"9 8 | uX|.- 8 5.lX,.= o O 5 2X1.8 V.1X!.: % = = = - % % 9 y v e p e t 9 - 8 - = 8 w x z 1 % i.-X,.d 8 9 t e t x.tX2.- = Y.=Xz e ",
"y p | 4XY.- d M.&X..- . . G 3X,.8 xXxX3.e 9 9 8 - = $ O - y e e e t t e 9 9 - = 8 L /.-XK...d I ^.w.8 9 9 e y c.hX2.= % Y.>X_ i ",
"y p o.:XD.t @.~.F.^ $ o . 4 <XQ.q.-XV.p a N F ( @.V.i.t.G.L.D.P.P.P.P.F.P.F.L.F.L.Y.^.~.!.Y.G.H.~.~.H.z.k 9 t 4.uX$.% $ K.-Xo.i ",
"r i X.4XP.a D.%X6.M 8 % = H $XmX1X6.M n $.n.C.S.`.9XrXwX9X0XsXtXsXsXdXsXsXsXdXsXdX~.X.~ ..G.lXbXI.[.bXjXA.j k M./.I % o J.1X_ e ",
"8 e | :XL.e M. Xb.x 9 = 8 B iXcX=X~.T.&XBXnX X[.Z.' U H ~ ( ] ~ ~ ( / P ] ` ` ` ` S n p s j B.1X/.<XNXIXZX~.uX@XJ & %   !.1XP 8 ",
"- 8 X.4XV.- 1.!.m.L 8 9 9 2.lXbX1XpX3X^.rX=Xm.4.B 9 = $ 9 8 8 8 = $ O $ 8 8 9 9 e 9 8 9 e t k  .1.r.Q.rXbXAXIXxX< =     Y.rXu.z ",
"o + Y <Xt.. 1.R.7.3 % - U H.<X2X@XeXd.G d = O = % O $ $ o O o o .   o         . $ $ O $ % - = O . + 2 + 8.NXLXmX1.#     &.qXiX;.",
"- & W -Xw.8 /.gXq.9 C C.&X{.z.' ] Y d 8 9 t a t y r e r y t 9 8 8   $ - % $ % = = - 8 e e e e t e = - 9 f @.Z.hXGXL.- $ > 0.SX@X",
"= o E :XY.P uXuX/ k 2.~.`.v.a e t O ;  .,.5.x.b.b.n.b.j.S Z x x x 2 3 % O O $ % % $ % % - 9 u x z , 1 f 8 9 9 V.AXvXV.d % 5 lX3X",
"O   K 9XtXH.gX/.q b.%Xx.B C v v 9 $ 1.lXlXuXtXtXdXdXBXhXS.x.N.m.m.7.q.I - - = $ $ % % % - d } m.w.:.:.8.I 8 8 u 3.ZXAX6.= < p.+X",
"$   5 rXxX!.Y.M.6.I.Z.D e r r s x.R.<X5XB.,.>. . . ./.rX/.{.|.|./.f./.].K.} q = $ % % I E.rXrX=X/.d.oXpXyXQ.1.: - m.zXZXL.f =.R.",
"$ . I 8XzX/.V.H.E.2.j 0 i M j.A._.=X^.3.8 $ $ $ $ $ 2 5.B.B.B.M.B.0.r.%XtX/.w.>. . . .^.lXlX<Xa.r.:.0.<XwX$Xd.>.} ! 4XIXxXL.~.^.",
"= # -.8X9X~.1X%X,.q = - 0 x.ZXbXH.E > - % O O O O o O @ $ = ; % - $ = | ~.tXlXrXrXwXrXxX<XW < $ $   X   , 7 9.+XwX3XtXBXbXbXFX-X",
"z i.NXZX%X| | U h 5.!.Y.G.OXgX~.P @ o % = $ $ $ O O O o O O $ = = O = i { z.N.c.x.x.6.w.O.p 8 8 %   o O   + 4 Q -.>.2.2.l.].NXP.",
"..tXIXIXtX .H H } R.3X<X=XJ.2.k 9 $ O % % % % % $ O o o o $ % = = o % y c a a a y p a t 0 t y t 8 O $ O . $ o   . $ = - 9 _ gX_.",
"5.2XPXIXJXpXrX1X$Xq.J T 5 1 * - 9 $ % % $ % = % % $ o o o O % $ = O $ - y v a a a a v a 9 9 e 9 - O % - $ % $ .   $ $ 8 9 | NXNX",
"eXiX$XiX2Xu.0.0.:., . O o o o $ $ . o $ o           . .     . o o . $ $ O $ % % - 8 = = % = $ O O . o $ = % % o . o $ O ; f B.cX"
};
